MonaSans-ExtraLight.ufo
<glyph name="exclam" format="2">
  <advance width="226"/>
  <unicode hex="0021"/>
  <outline>
    <contour>
      <point x="103" y="186" type="line"/>
      <point x="123" y="186" type="line"/>
      <point x="133" y="493" type="line"/>
      <point x="133" y="729" type="line"/>
      <point x="94" y="729" type="line"/>
      <point x="94" y="493" type="line"/>
    </contour>
    <contour>
      <point x="113" y="-7" type="curve" smooth="yes"/>
      <point x="130" y="-7"/>
      <point x="143" y="5"/>
      <point x="143" y="22" type="curve" smooth="yes"/>
      <point x="143" y="39"/>
      <point x="130" y="51"/>
      <point x="113" y="51" type="curve" smooth="yes"/>
      <point x="96" y="51"/>
      <point x="83" y="39"/>
      <point x="83" y="22" type="curve" smooth="yes"/>
      <point x="83" y="5"/>
      <point x="96" y="-7"/>
    </contour>
  </outline>
</glyph>
<glyph name="numbersign" format="2">
  <advance width="633"/>
  <unicode hex="0023"/>
  <outline>
    <contour>
      <point x="195" y="0" type="line"/>
      <point x="227" y="0" type="line"/>
      <point x="227" y="245" type="line"/>
      <point x="412" y="245" type="line"/>
      <point x="412" y="0" type="line"/>
      <point x="444" y="0" type="line"/>
      <point x="444" y="245" type="line"/>
      <point x="601" y="245" type="line"/>
      <point x="601" y="273" type="line"/>
      <point x="444" y="273" type="line"/>
      <point x="444" y="480" type="line"/>
      <point x="601" y="480" type="line"/>
      <point x="601" y="507" type="line"/>
      <point x="444" y="507" type="line"/>
      <point x="444" y="729" type="line"/>
      <point x="412" y="729" type="line"/>
      <point x="412" y="507" type="line"/>
      <point x="227" y="507" type="line"/>
      <point x="227" y="729" type="line"/>
      <point x="195" y="729" type="line"/>
      <point x="195" y="507" type="line"/>
      <point x="32" y="507" type="line"/>
      <point x="32" y="480" type="line"/>
      <point x="195" y="480" type="line"/>
      <point x="195" y="273" type="line"/>
      <point x="32" y="273" type="line"/>
      <point x="32" y="245" type="line"/>
      <point x="195" y="245" type="line"/>
    </contour>
    <contour>
      <point x="227" y="273" type="line"/>
      <point x="227" y="480" type="line"/>
      <point x="412" y="480" type="line"/>
      <point x="412" y="273" type="line"/>
    </contour>
  </outline>
</glyph>
<glyph name="dollar" format="2">
  <advance width="648"/>
  <unicode hex="0024"/>
  <outline>
    <contour>
      <point x="328" y="10" type="curve" smooth="yes"/>
      <point x="489" y="10"/>
      <point x="581" y="84"/>
      <point x="581" y="194" type="curve" smooth="yes"/>
      <point x="581" y="339"/>
      <point x="478" y="372"/>
      <point x="343" y="396" type="curve" smooth="yes"/>
      <point x="186" y="425"/>
      <point x="125" y="447"/>
      <point x="125" y="545" type="curve" smooth="yes"/>
      <point x="125" y="629"/>
      <point x="194" y="685"/>
      <point x="315" y="685" type="curve" smooth="yes"/>
      <point x="442" y="685"/>
      <point x="513" y="625"/>
      <point x="517" y="521" type="curve"/>
      <point x="557" y="521" type="line"/>
      <point x="554" y="640"/>
      <point x="473" y="719"/>
      <point x="319" y="719" type="curve" smooth="yes"/>
      <point x="171" y="719"/>
      <point x="84" y="647"/>
      <point x="84" y="540" type="curve" smooth="yes"/>
      <point x="84" y="421"/>
      <point x="170" y="388"/>
      <point x="328" y="359" type="curve" smooth="yes"/>
      <point x="483" y="331"/>
      <point x="541" y="293"/>
      <point x="541" y="192" type="curve" smooth="yes"/>
      <point x="541" y="92"/>
      <point x="454" y="44"/>
      <point x="326" y="44" type="curve" smooth="yes"/>
      <point x="179" y="44"/>
      <point x="112" y="116"/>
      <point x="108" y="232" type="curve"/>
      <point x="67" y="232" type="line"/>
      <point x="70" y="100"/>
      <point x="152" y="10"/>
    </contour>
    <contour>
      <point x="308" y="-85" type="line"/>
      <point x="341" y="-85" type="line"/>
      <point x="341" y="23" type="line"/>
      <point x="308" y="23" type="line"/>
    </contour>
    <contour>
      <point x="308" y="699" type="line"/>
      <point x="341" y="699" type="line"/>
      <point x="341" y="814" type="line"/>
      <point x="308" y="814" type="line"/>
    </contour>
  </outline>
</glyph>
<glyph name="ampersand" format="2">
  <advance width="789"/>
  <unicode hex="0026"/>
  <outline>
    <contour>
      <point x="703" y="-5" type="curve" smooth="yes"/>
      <point x="718" y="-5"/>
      <point x="731" y="-3"/>
      <point x="741" y="0" type="curve"/>
      <point x="741" y="41" type="line"/>
      <point x="732" y="37"/>
      <point x="721" y="35"/>
      <point x="708" y="35" type="curve" smooth="yes"/>
      <point x="639" y="35"/>
      <point x="589" y="67"/>
      <point x="497" y="170" type="curve" smooth="yes"/>
      <point x="328" y="359" type="line" smooth="yes"/>
      <point x="235" y="464"/>
      <point x="207" y="521"/>
      <point x="207" y="586" type="curve" smooth="yes"/>
      <point x="207" y="656"/>
      <point x="258" y="705"/>
      <point x="335" y="705" type="curve" smooth="yes"/>
      <point x="404" y="705"/>
      <point x="450" y="663"/>
      <point x="450" y="590" type="curve" smooth="yes"/>
      <point x="450" y="517"/>
      <point x="401" y="463"/>
      <point x="278" y="405" type="curve"/>
      <point x="301" y="383" type="line"/>
      <point x="425" y="442"/>
      <point x="487" y="507"/>
      <point x="487" y="592" type="curve" smooth="yes"/>
      <point x="487" y="680"/>
      <point x="426" y="739"/>
      <point x="336" y="739" type="curve" smooth="yes"/>
      <point x="240" y="739"/>
      <point x="169" y="677"/>
      <point x="169" y="582" type="curve" smooth="yes"/>
      <point x="169" y="528"/>
      <point x="186" y="463"/>
      <point x="293" y="343" type="curve" smooth="yes"/>
      <point x="468" y="146" type="line" smooth="yes"/>
      <point x="534" y="72"/>
      <point x="605" y="-5"/>
    </contour>
    <contour>
      <point x="247" y="-10" type="curve" smooth="yes"/>
      <point x="359" y="-10"/>
      <point x="450" y="38"/>
      <point x="509" y="139" type="curve"/>
      <point x="479" y="157" type="line"/>
      <point x="432" y="73"/>
      <point x="357" y="23"/>
      <point x="249" y="23" type="curve" smooth="yes"/>
      <point x="160" y="23"/>
      <point x="97" y="82"/>
      <point x="97" y="173" type="curve" smooth="yes"/>
      <point x="97" y="261"/>
      <point x="157" y="323"/>
      <point x="283" y="376" type="curve"/>
      <point x="262" y="402" type="line"/>
      <point x="135" y="347"/>
      <point x="59" y="274"/>
      <point x="59" y="172" type="curve" smooth="yes"/>
      <point x="59" y="65"/>
      <point x="136" y="-10"/>
    </contour>
    <contour>
      <point x="514" y="147" type="line"/>
      <point x="540" y="197"/>
      <point x="562" y="267"/>
      <point x="568" y="319" type="curve"/>
      <point x="691" y="318" type="line"/>
      <point x="686" y="355" type="line"/>
      <point x="529" y="355" type="line"/>
      <point x="529" y="326" type="line"/>
      <point x="522" y="267"/>
      <point x="506" y="212"/>
      <point x="483" y="168" type="curve"/>
    </contour>
  </outline>
</glyph>
<glyph name="quotesingle" format="2">
  <advance width="166"/>
  <unicode hex="0027"/>
  <anchor x="1" y="0" name="#entry"/>
  <anchor x="162" y="0" name="#exit"/>
  <outline>
    <contour>
      <point x="73" y="492" type="line"/>
      <point x="93" y="492" type="line"/>
      <point x="99" y="623" type="line"/>
      <point x="99" y="729" type="line"/>
      <point x="66" y="729" type="line"/>
      <point x="66" y="623" type="line"/>
    </contour>
  </outline>
</glyph>
<glyph name="parenleft" format="2">
  <advance width="321"/>
  <unicode hex="0028"/>
  <outline>
    <contour>
      <point x="248" y="-167" type="curve"/>
      <point x="285" y="-167" type="line"/>
      <point x="175" y="-67"/>
      <point x="100" y="115"/>
      <point x="100" y="313" type="curve" smooth="yes"/>
      <point x="100" y="499"/>
      <point x="167" y="686"/>
      <point x="285" y="793" type="curve"/>
      <point x="248" y="793" type="line"/>
      <point x="130" y="685"/>
      <point x="63" y="500"/>
      <point x="63" y="313" type="curve" smooth="yes"/>
      <point x="63" y="126"/>
      <point x="130" y="-59"/>
    </contour>
  </outline>
</glyph>
<glyph name="asterisk" format="2">
  <advance width="312"/>
  <unicode hex="002A"/>
  <outline>
    <contour>
      <point x="141" y="453" type="line"/>
      <point x="170" y="453" type="line"/>
      <point x="170" y="512" type="line"/>
      <point x="162" y="580" type="line"/>
      <point x="218" y="540" type="line"/>
      <point x="269" y="510" type="line"/>
      <point x="283" y="535" type="line"/>
      <point x="232" y="565" type="line"/>
      <point x="173" y="592" type="line"/>
      <point x="232" y="619" type="line"/>
      <point x="282" y="647" type="line"/>
      <point x="269" y="672" type="line"/>
      <point x="218" y="644" type="line"/>
      <point x="162" y="605" type="line"/>
      <point x="170" y="672" type="line"/>
      <point x="170" y="729" type="line"/>
      <point x="141" y="729" type="line"/>
      <point x="141" y="672" type="line"/>
      <point x="150" y="605" type="line"/>
      <point x="95" y="644" type="line"/>
      <point x="44" y="672" type="line"/>
      <point x="30" y="647" type="line"/>
      <point x="80" y="619" type="line"/>
      <point x="140" y="592" type="line"/>
      <point x="80" y="565" type="line"/>
      <point x="29" y="535" type="line"/>
      <point x="44" y="510" type="line"/>
      <point x="95" y="540" type="line"/>
      <point x="150" y="580" type="line"/>
      <point x="141" y="512" type="line"/>
    </contour>
  </outline>
</glyph>
<glyph name="plus" format="2">
  <advance width="600"/>
  <unicode hex="002B"/>
  <outline>
    <contour>
      <point x="283" y="122" type="line"/>
      <point x="317" y="122" type="line"/>
      <point x="317" y="345" type="line"/>
      <point x="539" y="345" type="line"/>
      <point x="539" y="377" type="line"/>
      <point x="317" y="377" type="line"/>
      <point x="317" y="600" type="line"/>
      <point x="283" y="600" type="line"/>
      <point x="283" y="377" type="line"/>
      <point x="61" y="377" type="line"/>
      <point x="61" y="345" type="line"/>
      <point x="283" y="345" type="line"/>
    </contour>
  </outline>
</glyph>
<glyph name="comma" format="2">
  <advance width="179"/>
  <unicode hex="002C"/>
  <anchor x="-4" y="0" name="#entry"/>
  <anchor x="125" y="0" name="#exit"/>
  <anchor x="91" y="524" name="top"/>
  <outline>
    <contour>
      <point x="42" y="-124" type="curve"/>
      <point x="65" y="-124" type="line"/>
      <point x="89" y="-99"/>
      <point x="123" y="-36"/>
      <point x="123" y="11" type="curve" smooth="yes"/>
      <point x="123" y="39"/>
      <point x="109" y="51"/>
      <point x="91" y="51" type="curve" smooth="yes"/>
      <point x="73" y="51"/>
      <point x="61" y="40"/>
      <point x="61" y="23" type="curve" smooth="yes"/>
      <point x="61" y="8"/>
      <point x="71" y="-4"/>
      <point x="89" y="-4" type="curve" smooth="yes"/>
      <point x="100" y="-4"/>
      <point x="108" y="2"/>
      <point x="110" y="8" type="curve"/>
      <point x="105" y="9" type="line"/>
      <point x="103" y="-27"/>
      <point x="82" y="-77"/>
    </contour>
  </outline>
</glyph>
<glyph name="hyphen" format="2">
  <advance width="380"/>
  <unicode hex="002D"/>
  <outline>
    <contour>
      <point x="60" y="242" type="line"/>
      <point x="320" y="242" type="line"/>
      <point x="320" y="275" type="line"/>
      <point x="60" y="275" type="line"/>
    </contour>
  </outline>
</glyph>
<glyph name="period" format="2">
  <advance width="170"/>
  <unicode hex="002E"/>
  <anchor x="-8" y="0" name="#entry"/>
  <anchor x="178" y="0" name="#exit"/>
  <anchor x="85" y="51" name="_top"/>
  <anchor x="85" y="524" name="top"/>
  <outline>
    <contour>
      <point x="85" y="-7" type="curve" smooth="yes"/>
      <point x="102" y="-7"/>
      <point x="115" y="5"/>
      <point x="115" y="22" type="curve" smooth="yes"/>
      <point x="115" y="39"/>
      <point x="102" y="51"/>
      <point x="85" y="51" type="curve" smooth="yes"/>
      <point x="68" y="51"/>
      <point x="55" y="39"/>
      <point x="55" y="22" type="curve" smooth="yes"/>
      <point x="55" y="5"/>
      <point x="68" y="-7"/>
    </contour>
  </outline>
</glyph>
<glyph name="slash" format="2">
  <advance width="358"/>
  <unicode hex="002F"/>
  <outline>
    <contour>
      <point x="-15" y="-81" type="line"/>
      <point x="24" y="-81" type="line"/>
      <point x="348" y="729" type="line"/>
      <point x="312" y="729" type="line"/>
    </contour>
  </outline>
</glyph>
<glyph name="zero" format="2">
  <advance width="612"/>
  <unicode hex="0030"/>
  <outline>
    <contour>
      <point x="306" y="-9" type="curve" smooth="yes"/>
      <point x="452" y="-9"/>
      <point x="550" y="109"/>
      <point x="550" y="360" type="curve" smooth="yes"/>
      <point x="550" y="611"/>
      <point x="452" y="729"/>
      <point x="306" y="729" type="curve" smooth="yes"/>
      <point x="160" y="729"/>
      <point x="62" y="611"/>
      <point x="62" y="360" type="curve" smooth="yes"/>
      <point x="62" y="109"/>
      <point x="160" y="-9"/>
    </contour>
    <contour>
      <point x="306" y="25" type="curve" smooth="yes"/>
      <point x="159" y="25"/>
      <point x="102" y="159"/>
      <point x="102" y="360" type="curve" smooth="yes"/>
      <point x="102" y="561"/>
      <point x="159" y="695"/>
      <point x="306" y="695" type="curve" smooth="yes"/>
      <point x="453" y="695"/>
      <point x="510" y="561"/>
      <point x="510" y="360" type="curve" smooth="yes"/>
      <point x="510" y="159"/>
      <point x="453" y="25"/>
    </contour>
  </outline>
</glyph>
<glyph name="one" format="2">
  <advance width="325"/>
  <unicode hex="0031"/>
  <outline>
    <contour>
      <point x="194" y="0" type="line"/>
      <point x="231" y="0" type="line"/>
      <point x="231" y="721" type="line"/>
      <point x="192" y="721" type="line"/>
      <point x="186" y="653"/>
      <point x="155" y="608"/>
      <point x="56" y="608" type="curve" smooth="yes"/>
      <point x="31" y="608" type="line"/>
      <point x="31" y="579" type="line"/>
      <point x="194" y="579" type="line"/>
    </contour>
  </outline>
</glyph>
<glyph name="two" format="2">
  <advance width="534"/>
  <unicode hex="0032"/>
  <outline>
    <contour>
      <point x="54" y="0" type="line"/>
      <point x="487" y="0" type="line"/>
      <point x="487" y="34" type="line"/>
      <point x="90" y="34" type="line"/>
      <point x="103" y="247"/>
      <point x="481" y="300"/>
      <point x="481" y="532" type="curve" smooth="yes"/>
      <point x="481" y="652"/>
      <point x="400" y="729"/>
      <point x="269" y="729" type="curve" smooth="yes"/>
      <point x="135" y="729"/>
      <point x="44" y="639"/>
      <point x="49" y="512" type="curve"/>
      <point x="87" y="513" type="line"/>
      <point x="83" y="621"/>
      <point x="157" y="695"/>
      <point x="269" y="695" type="curve" smooth="yes"/>
      <point x="377" y="695"/>
      <point x="442" y="634"/>
      <point x="442" y="532" type="curve" smooth="yes"/>
      <point x="442" y="319"/>
      <point x="54" y="264"/>
      <point x="54" y="20" type="curve" smooth="yes"/>
    </contour>
  </outline>
</glyph>
<glyph name="three" format="2">
  <advance width="563"/>
  <unicode hex="0033"/>
  <outline>
    <contour>
      <point x="266" y="-8" type="curve" smooth="yes"/>
      <point x="408" y="-8"/>
      <point x="501" y="73"/>
      <point x="501" y="195" type="curve" smooth="yes"/>
      <point x="501" y="289"/>
      <point x="451" y="356"/>
      <point x="365" y="374" type="curve"/>
      <point x="365" y="378" type="line"/>
      <point x="442" y="400"/>
      <point x="498" y="461"/>
      <point x="498" y="547" type="curve" smooth="yes"/>
      <point x="498" y="657"/>
      <point x="416" y="730"/>
      <point x="282" y="730" type="curve" smooth="yes"/>
      <point x="155" y="730"/>
      <point x="66" y="651"/>
      <point x="61" y="535" type="curve"/>
      <point x="99" y="535" type="line"/>
      <point x="105" y="631"/>
      <point x="176" y="697"/>
      <point x="282" y="697" type="curve" smooth="yes"/>
      <point x="388" y="697"/>
      <point x="459" y="642"/>
      <point x="459" y="546" type="curve" smooth="yes"/>
      <point x="459" y="453"/>
      <point x="392" y="391"/>
      <point x="272" y="391" type="curve" smooth="yes"/>
      <point x="221" y="391" type="line"/>
      <point x="221" y="358" type="line"/>
      <point x="287" y="358" type="line" smooth="yes"/>
      <point x="391" y="358"/>
      <point x="461" y="306"/>
      <point x="461" y="196" type="curve" smooth="yes"/>
      <point x="461" y="92"/>
      <point x="384" y="26"/>
      <point x="266" y="26" type="curve" smooth="yes"/>
      <point x="159" y="26"/>
      <point x="88" y="91"/>
      <point x="82" y="187" type="curve"/>
      <point x="44" y="187" type="line"/>
      <point x="49" y="71"/>
      <point x="138" y="-8"/>
    </contour>
  </outline>
</glyph>
<glyph name="four" format="2">
  <advance width="603"/>
  <unicode hex="0034"/>
  <outline>
    <contour>
      <point x="393" y="0" type="line"/>
      <point x="430" y="0" type="line"/>
      <point x="430" y="721" type="line"/>
      <point x="388" y="721" type="line"/>
      <point x="33" y="230" type="line"/>
      <point x="33" y="196" type="line"/>
      <point x="572" y="196" type="line"/>
      <point x="572" y="229" type="line"/>
      <point x="76" y="229" type="line"/>
      <point x="403" y="685" type="line"/>
      <point x="393" y="685" type="line"/>
    </contour>
  </outline>
</glyph>
<glyph name="five" format="2">
  <advance width="576"/>
  <unicode hex="0035"/>
  <outline>
    <contour>
      <point x="285" y="-8" type="curve" smooth="yes"/>
      <point x="429" y="-8"/>
      <point x="525" y="87"/>
      <point x="525" y="229" type="curve" smooth="yes"/>
      <point x="525" y="367"/>
      <point x="434" y="461"/>
      <point x="296" y="461" type="curve" smooth="yes"/>
      <point x="214" y="461"/>
      <point x="147" y="424"/>
      <point x="113" y="369" type="curve"/>
      <point x="110" y="370" type="line"/>
      <point x="134" y="687" type="line"/>
      <point x="507" y="687" type="line"/>
      <point x="507" y="721" type="line"/>
      <point x="102" y="721" type="line"/>
      <point x="73" y="328" type="line"/>
      <point x="115" y="328" type="line"/>
      <point x="142" y="386"/>
      <point x="206" y="427"/>
      <point x="290" y="427" type="curve" smooth="yes"/>
      <point x="407" y="427"/>
      <point x="485" y="354"/>
      <point x="485" y="227" type="curve" smooth="yes"/>
      <point x="485" y="108"/>
      <point x="413" y="26"/>
      <point x="286" y="26" type="curve" smooth="yes"/>
      <point x="180" y="26"/>
      <point x="109" y="91"/>
      <point x="103" y="187" type="curve"/>
      <point x="65" y="187" type="line"/>
      <point x="70" y="71"/>
      <point x="159" y="-8"/>
    </contour>
  </outline>
</glyph>
<glyph name="six" format="2">
  <advance width="596"/>
  <unicode hex="0036"/>
  <outline>
    <contour>
      <point x="306" y="-8" type="curve" smooth="yes"/>
      <point x="443" y="-8"/>
      <point x="541" y="81"/>
      <point x="541" y="224" type="curve" smooth="yes"/>
      <point x="541" y="360"/>
      <point x="449" y="451"/>
      <point x="314" y="451" type="curve" smooth="yes"/>
      <point x="203" y="451"/>
      <point x="124" y="392"/>
      <point x="102" y="303" type="curve"/>
      <point x="99" y="303" type="line"/>
      <point x="103" y="537"/>
      <point x="132" y="696"/>
      <point x="318" y="696" type="curve" smooth="yes"/>
      <point x="411" y="696"/>
      <point x="481" y="652"/>
      <point x="496" y="557" type="curve"/>
      <point x="532" y="557" type="line"/>
      <point x="523" y="661"/>
      <point x="436" y="730"/>
      <point x="318" y="730" type="curve" smooth="yes"/>
      <point x="145" y="730"/>
      <point x="64" y="608"/>
      <point x="64" y="307" type="curve" smooth="yes"/>
      <point x="64" y="112"/>
      <point x="137" y="-8"/>
    </contour>
    <contour>
      <point x="308" y="26" type="curve" smooth="yes"/>
      <point x="191" y="26"/>
      <point x="112" y="98"/>
      <point x="112" y="217" type="curve" smooth="yes"/>
      <point x="112" y="328"/>
      <point x="186" y="417"/>
      <point x="310" y="417" type="curve" smooth="yes"/>
      <point x="423" y="417"/>
      <point x="501" y="343"/>
      <point x="501" y="224" type="curve" smooth="yes"/>
      <point x="501" y="105"/>
      <point x="423" y="26"/>
    </contour>
  </outline>
</glyph>
<glyph name="seven" format="2">
  <advance width="535"/>
  <unicode hex="0037"/>
  <outline>
    <contour>
      <point x="210" y="0" type="curve"/>
      <point x="250" y="0" type="line"/>
      <point x="250" y="312"/>
      <point x="372" y="501"/>
      <point x="505" y="696" type="curve"/>
      <point x="505" y="721" type="line"/>
      <point x="45" y="721" type="line"/>
      <point x="45" y="524" type="line"/>
      <point x="78" y="524" type="line"/>
      <point x="78" y="688" type="line"/>
      <point x="460" y="688" type="line"/>
      <point x="329" y="494"/>
      <point x="210" y="304"/>
    </contour>
  </outline>
</glyph>
<glyph name="eight" format="2">
  <advance width="586"/>
  <unicode hex="0038"/>
  <outline>
    <contour>
      <point x="293" y="-10" type="curve" smooth="yes"/>
      <point x="435" y="-10"/>
      <point x="532" y="70"/>
      <point x="532" y="187" type="curve" smooth="yes"/>
      <point x="532" y="276"/>
      <point x="478" y="350"/>
      <point x="372" y="370" type="curve"/>
      <point x="372" y="373" type="line"/>
      <point x="451" y="393"/>
      <point x="508" y="459"/>
      <point x="508" y="542" type="curve" smooth="yes"/>
      <point x="508" y="655"/>
      <point x="424" y="729"/>
      <point x="293" y="729" type="curve" smooth="yes"/>
      <point x="162" y="729"/>
      <point x="78" y="655"/>
      <point x="78" y="542" type="curve" smooth="yes"/>
      <point x="78" y="459"/>
      <point x="135" y="393"/>
      <point x="214" y="373" type="curve"/>
      <point x="214" y="370" type="line"/>
      <point x="108" y="350"/>
      <point x="54" y="276"/>
      <point x="54" y="187" type="curve" smooth="yes"/>
      <point x="54" y="70"/>
      <point x="151" y="-10"/>
    </contour>
    <contour>
      <point x="293" y="24" type="curve" smooth="yes"/>
      <point x="174" y="24"/>
      <point x="94" y="90"/>
      <point x="94" y="189" type="curve" smooth="yes"/>
      <point x="94" y="277"/>
      <point x="146" y="354"/>
      <point x="293" y="354" type="curve" smooth="yes"/>
      <point x="440" y="354"/>
      <point x="492" y="277"/>
      <point x="492" y="189" type="curve" smooth="yes"/>
      <point x="492" y="90"/>
      <point x="412" y="24"/>
    </contour>
    <contour>
      <point x="293" y="389" type="curve" smooth="yes"/>
      <point x="159" y="389"/>
      <point x="117" y="467"/>
      <point x="117" y="543" type="curve" smooth="yes"/>
      <point x="117" y="618"/>
      <point x="159" y="696"/>
      <point x="293" y="696" type="curve" smooth="yes"/>
      <point x="427" y="696"/>
      <point x="469" y="618"/>
      <point x="469" y="543" type="curve" smooth="yes"/>
      <point x="469" y="467"/>
      <point x="427" y="389"/>
    </contour>
  </outline>
</glyph>
<glyph name="equal" format="2">
  <advance width="600"/>
  <unicode hex="003D"/>
  <anchor x="300" y="366" name="center"/>
  <outline>
    <contour>
      <point x="61" y="455" type="line"/>
      <point x="539" y="455" type="line"/>
      <point x="539" y="487" type="line"/>
      <point x="61" y="487" type="line"/>
    </contour>
    <contour>
      <point x="61" y="235" type="line"/>
      <point x="539" y="235" type="line"/>
      <point x="539" y="267" type="line"/>
      <point x="61" y="267" type="line"/>
    </contour>
  </outline>
</glyph>
<glyph name="greater" format="2">
  <advance width="600"/>
  <unicode hex="003E"/>
  <outline>
    <contour>
      <point x="62" y="133" type="line"/>
      <point x="543" y="339" type="line"/>
      <point x="543" y="383" type="line"/>
      <point x="62" y="589" type="line"/>
      <point x="62" y="553" type="line"/>
      <point x="510" y="363" type="line"/>
      <point x="510" y="359" type="line"/>
      <point x="62" y="169" type="line"/>
    </contour>
  </outline>
</glyph>
<glyph name="question" format="2">
  <advance width="509"/>
  <unicode hex="003F"/>
  <outline>
    <contour>
      <point x="243" y="169" type="line"/>
      <point x="280" y="169" type="line"/>
      <point x="280" y="190" type="line" smooth="yes"/>
      <point x="280" y="329"/>
      <point x="457" y="385"/>
      <point x="457" y="553" type="curve" smooth="yes"/>
      <point x="457" y="664"/>
      <point x="384" y="738"/>
      <point x="257" y="738" type="curve" smooth="yes"/>
      <point x="129" y="738"/>
      <point x="44" y="654"/>
      <point x="45" y="529" type="curve"/>
      <point x="82" y="529" type="line"/>
      <point x="81" y="631"/>
      <point x="144" y="705"/>
      <point x="255" y="705" type="curve" smooth="yes"/>
      <point x="353" y="705"/>
      <point x="418" y="656"/>
      <point x="418" y="553" type="curve" smooth="yes"/>
      <point x="418" y="392"/>
      <point x="243" y="344"/>
      <point x="243" y="186" type="curve" smooth="yes"/>
    </contour>
    <contour>
      <point x="260" y="-7" type="curve" smooth="yes"/>
      <point x="277" y="-7"/>
      <point x="290" y="5"/>
      <point x="290" y="22" type="curve" smooth="yes"/>
      <point x="290" y="39"/>
      <point x="277" y="51"/>
      <point x="260" y="51" type="curve" smooth="yes"/>
      <point x="243" y="51"/>
      <point x="230" y="39"/>
      <point x="230" y="22" type="curve" smooth="yes"/>
      <point x="230" y="5"/>
      <point x="243" y="-7"/>
    </contour>
  </outline>
</glyph>
<glyph name="at" format="2">
  <advance width="935"/>
  <unicode hex="0040"/>
  <outline>
    <contour>
      <point x="479" y="-101" type="curve" smooth="yes"/>
      <point x="557" y="-101"/>
      <point x="658" y="-79"/>
      <point x="718" y="-31" type="curve"/>
      <point x="706" y="-4" type="line"/>
      <point x="652" y="-47"/>
      <point x="570" y="-72"/>
      <point x="476" y="-72" type="curve" smooth="yes"/>
      <point x="238" y="-72"/>
      <point x="104" y="97"/>
      <point x="104" y="314" type="curve" smooth="yes"/>
      <point x="104" y="549"/>
      <point x="253" y="709"/>
      <point x="482" y="709" type="curve" smooth="yes"/>
      <point x="694" y="709"/>
      <point x="836" y="569"/>
      <point x="836" y="365" type="curve" smooth="yes"/>
      <point x="836" y="229"/>
      <point x="776" y="133"/>
      <point x="692" y="133" type="curve" smooth="yes"/>
      <point x="640" y="133"/>
      <point x="614" y="170"/>
      <point x="619" y="248" type="curve" smooth="yes"/>
      <point x="636" y="504" type="line"/>
      <point x="605" y="504" type="line"/>
      <point x="597" y="410" type="line"/>
      <point x="594" y="410" type="line"/>
      <point x="578" y="479"/>
      <point x="529" y="516"/>
      <point x="470" y="516" type="curve" smooth="yes"/>
      <point x="376" y="516"/>
      <point x="311" y="424"/>
      <point x="311" y="294" type="curve" smooth="yes"/>
      <point x="311" y="164"/>
      <point x="381" y="106"/>
      <point x="455" y="106" type="curve" smooth="yes"/>
      <point x="508" y="106"/>
      <point x="566" y="141"/>
      <point x="590" y="223" type="curve"/>
      <point x="593" y="223" type="line"/>
      <point x="592" y="149"/>
      <point x="626" y="105"/>
      <point x="693" y="105" type="curve" smooth="yes"/>
      <point x="801" y="105"/>
      <point x="870" y="217"/>
      <point x="870" y="367" type="curve" smooth="yes"/>
      <point x="870" y="589"/>
      <point x="710" y="738"/>
      <point x="484" y="738" type="curve" smooth="yes"/>
      <point x="236" y="738"/>
      <point x="69" y="567"/>
      <point x="69" y="312" type="curve" smooth="yes"/>
      <point x="69" y="64"/>
      <point x="237" y="-101"/>
    </contour>
    <contour>
      <point x="458" y="136" type="curve" smooth="yes"/>
      <point x="389" y="136"/>
      <point x="345" y="189"/>
      <point x="345" y="296" type="curve" smooth="yes"/>
      <point x="345" y="408"/>
      <point x="392" y="489"/>
      <point x="476" y="489" type="curve" smooth="yes"/>
      <point x="546" y="489"/>
      <point x="591" y="431"/>
      <point x="594" y="323" type="curve"/>
      <point x="589" y="213"/>
      <point x="537" y="136"/>
    </contour>
  </outline>
</glyph>
<glyph name="A" format="2">
  <advance width="678"/>
  <unicode hex="0041"/>
  <anchor x="339" y="0" name="bottom"/>
  <anchor x="647" y="0" name="ogonek"/>
  <anchor x="339" y="729" name="top"/>
  <outline>
    <contour>
      <point x="31" y="0" type="line"/>
      <point x="72" y="0" type="line"/>
      <point x="303" y="605" type="line"/>
      <point x="337" y="696" type="line"/>
      <point x="343" y="696" type="line"/>
      <point x="377" y="605" type="line"/>
      <point x="607" y="0" type="line"/>
      <point x="647" y="0" type="line"/>
      <point x="366" y="729" type="line"/>
      <point x="313" y="729" type="line"/>
    </contour>
    <contour>
      <point x="139" y="199" type="line"/>
      <point x="539" y="199" type="line"/>
      <point x="539" y="235" type="line"/>
      <point x="139" y="235" type="line"/>
    </contour>
  </outline>
</glyph>
<glyph name="B" format="2">
  <advance width="688"/>
  <unicode hex="0042"/>
  <anchor x="336" y="0" name="bottom"/>
  <anchor x="336" y="729" name="top"/>
  <outline>
    <contour>
      <point x="94" y="0" type="line"/>
      <point x="398" y="0" type="line" smooth="yes"/>
      <point x="541" y="0"/>
      <point x="632" y="78"/>
      <point x="632" y="200" type="curve" smooth="yes"/>
      <point x="632" y="285"/>
      <point x="583" y="356"/>
      <point x="486" y="374" type="curve"/>
      <point x="486" y="377" type="line"/>
      <point x="574" y="397"/>
      <point x="613" y="464"/>
      <point x="613" y="543" type="curve" smooth="yes"/>
      <point x="613" y="654"/>
      <point x="534" y="729"/>
      <point x="399" y="729" type="curve" smooth="yes"/>
      <point x="94" y="729" type="line"/>
    </contour>
    <contour>
      <point x="132" y="36" type="line"/>
      <point x="132" y="694" type="line"/>
      <point x="398" y="694" type="line" smooth="yes"/>
      <point x="505" y="694"/>
      <point x="575" y="635"/>
      <point x="575" y="538" type="curve" smooth="yes"/>
      <point x="575" y="450"/>
      <point x="519" y="391"/>
      <point x="414" y="391" type="curve" smooth="yes"/>
      <point x="123" y="391" type="line"/>
      <point x="123" y="356" type="line"/>
      <point x="416" y="356" type="line" smooth="yes"/>
      <point x="528" y="356"/>
      <point x="592" y="298"/>
      <point x="592" y="202" type="curve" smooth="yes"/>
      <point x="592" y="104"/>
      <point x="526" y="36"/>
      <point x="398" y="36" type="curve" smooth="yes"/>
    </contour>
  </outline>
</glyph>
<glyph name="C" format="2">
  <advance width="771"/>
  <unicode hex="0043"/>
  <anchor x="412" y="0" name="bottom"/>
  <anchor x="412" y="729" name="top"/>
  <outline>
    <contour>
      <point x="405" y="-8" type="curve" smooth="yes"/>
      <point x="578" y="-8"/>
      <point x="703" y="88"/>
      <point x="724" y="238" type="curve"/>
      <point x="684" y="238" type="line"/>
      <point x="664" y="111"/>
      <point x="559" y="28"/>
      <point x="405" y="28" type="curve" smooth="yes"/>
      <point x="214" y="28"/>
      <point x="96" y="163"/>
      <point x="96" y="364" type="curve" smooth="yes"/>
      <point x="96" y="565"/>
      <point x="213" y="700"/>
      <point x="405" y="700" type="curve" smooth="yes"/>
      <point x="558" y="700"/>
      <point x="662" y="615"/>
      <point x="684" y="494" type="curve"/>
      <point x="724" y="494" type="line"/>
      <point x="698" y="643"/>
      <point x="574" y="736"/>
      <point x="405" y="736" type="curve" smooth="yes"/>
      <point x="194" y="736"/>
      <point x="55" y="588"/>
      <point x="55" y="364" type="curve" smooth="yes"/>
      <point x="55" y="142"/>
      <point x="193" y="-8"/>
    </contour>
  </outline>
</glyph>
<glyph name="D" format="2">
  <advance width="741"/>
  <unicode hex="0044"/>
  <anchor x="361" y="0" name="bottom"/>
  <anchor x="132" y="365" name="center"/>
  <anchor x="361" y="729" name="top"/>
  <outline>
    <contour>
      <point x="94" y="0" type="line"/>
      <point x="364" y="0" type="line" smooth="yes"/>
      <point x="564" y="0"/>
      <point x="685" y="144"/>
      <point x="685" y="364" type="curve" smooth="yes"/>
      <point x="685" y="585"/>
      <point x="564" y="729"/>
      <point x="364" y="729" type="curve" smooth="yes"/>
      <point x="94" y="729" type="line"/>
    </contour>
    <contour>
      <point x="132" y="37" type="line"/>
      <point x="132" y="693" type="line"/>
      <point x="363" y="693" type="line" smooth="yes"/>
      <point x="535" y="693"/>
      <point x="645" y="570"/>
      <point x="645" y="365" type="curve" smooth="yes"/>
      <point x="645" y="167"/>
      <point x="540" y="37"/>
      <point x="363" y="37" type="curve" smooth="yes"/>
    </contour>
  </outline>
</glyph>
<glyph name="E" format="2">
  <advance width="612"/>
  <unicode hex="0045"/>
  <anchor x="310" y="0" name="bottom"/>
  <anchor x="575" y="0" name="ogonek"/>
  <anchor x="310" y="729" name="top"/>
  <anchor x="11" y="729" name="topleft"/>
  <outline>
    <contour>
      <point x="94" y="0" type="line"/>
      <point x="575" y="0" type="line"/>
      <point x="575" y="37" type="line"/>
      <point x="121" y="37" type="line"/>
      <point x="132" y="26" type="line"/>
      <point x="132" y="704" type="line"/>
      <point x="121" y="693" type="line"/>
      <point x="575" y="693" type="line"/>
      <point x="575" y="729" type="line"/>
      <point x="94" y="729" type="line"/>
    </contour>
    <contour>
      <point x="121" y="358" type="line"/>
      <point x="527" y="358" type="line"/>
      <point x="527" y="392" type="line"/>
      <point x="121" y="392" type="line"/>
    </contour>
  </outline>
</glyph>
<glyph name="F" format="2">
  <advance width="604"/>
  <unicode hex="0046"/>
  <anchor x="299" y="0" name="bottom"/>
  <anchor x="299" y="729" name="top"/>
  <outline>
    <contour>
      <point x="94" y="0" type="line"/>
      <point x="132" y="0" type="line"/>
      <point x="132" y="704" type="line"/>
      <point x="121" y="693" type="line"/>
      <point x="573" y="693" type="line"/>
      <point x="573" y="729" type="line"/>
      <point x="94" y="729" type="line"/>
    </contour>
    <contour>
      <point x="112" y="349" type="line"/>
      <point x="533" y="349" type="line"/>
      <point x="533" y="384" type="line"/>
      <point x="112" y="384" type="line"/>
    </contour>
  </outline>
</glyph>
<glyph name="G" format="2">
  <advance width="806"/>
  <unicode hex="0047"/>
  <anchor x="403" y="0" name="bottom"/>
  <anchor x="405" y="729" name="top"/>
  <outline>
    <contour>
      <point x="405" y="-8" type="curve" smooth="yes"/>
      <point x="540" y="-8"/>
      <point x="656" y="64"/>
      <point x="691" y="174" type="curve"/>
      <point x="697" y="174" type="line"/>
      <point x="702" y="0" type="line"/>
      <point x="734" y="0" type="line"/>
      <point x="734" y="376" type="line"/>
      <point x="373" y="376" type="line"/>
      <point x="373" y="340" type="line"/>
      <point x="712" y="340" type="line"/>
      <point x="693" y="359" type="line"/>
      <point x="693" y="298" type="line" smooth="yes"/>
      <point x="693" y="132"/>
      <point x="573" y="28"/>
      <point x="405" y="28" type="curve" smooth="yes"/>
      <point x="214" y="28"/>
      <point x="96" y="163"/>
      <point x="96" y="364" type="curve" smooth="yes"/>
      <point x="96" y="565"/>
      <point x="213" y="700"/>
      <point x="405" y="700" type="curve" smooth="yes"/>
      <point x="559" y="700"/>
      <point x="657" y="629"/>
      <point x="685" y="515" type="curve"/>
      <point x="725" y="515" type="line"/>
      <point x="696" y="658"/>
      <point x="572" y="736"/>
      <point x="405" y="736" type="curve" smooth="yes"/>
      <point x="194" y="736"/>
      <point x="55" y="588"/>
      <point x="55" y="364" type="curve" smooth="yes"/>
      <point x="55" y="142"/>
      <point x="193" y="-8"/>
    </contour>
  </outline>
</glyph>
<glyph name="H" format="2">
  <advance width="770"/>
  <unicode hex="0048"/>
  <anchor x="385" y="0" name="bottom"/>
  <anchor x="385" y="592" name="center"/>
  <anchor x="385" y="729" name="top"/>
  <anchor x="11" y="729" name="topleft"/>
  <outline>
    <contour>
      <point x="94" y="0" type="line"/>
      <point x="132" y="0" type="line"/>
      <point x="132" y="729" type="line"/>
      <point x="94" y="729" type="line"/>
    </contour>
    <contour>
      <point x="638" y="0" type="line"/>
      <point x="676" y="0" type="line"/>
      <point x="676" y="729" type="line"/>
      <point x="638" y="729" type="line"/>
    </contour>
    <contour>
      <point x="112" y="362" type="line"/>
      <point x="658" y="362" type="line"/>
      <point x="658" y="398" type="line"/>
      <point x="112" y="398" type="line"/>
    </contour>
  </outline>
</glyph>
<glyph name="J" format="2">
  <advance width="378"/>
  <unicode hex="004A"/>
  <anchor x="203" y="0" name="bottom"/>
  <anchor x="271" y="729" name="top"/>
  <outline>
    <contour>
      <point x="28" y="0" type="line"/>
      <point x="129" y="0" type="line" smooth="yes"/>
      <point x="242" y="0"/>
      <point x="290" y="57"/>
      <point x="290" y="170" type="curve" smooth="yes"/>
      <point x="290" y="729" type="line"/>
      <point x="252" y="729" type="line"/>
      <point x="252" y="175" type="line" smooth="yes"/>
      <point x="252" y="81"/>
      <point x="223" y="35"/>
      <point x="129" y="35" type="curve" smooth="yes"/>
      <point x="28" y="35" type="line"/>
    </contour>
  </outline>
</glyph>
<glyph name="K" format="2">
  <advance width="647"/>
  <unicode hex="004B"/>
  <anchor x="319" y="0" name="bottom"/>
  <anchor x="319" y="729" name="top"/>
  <outline>
    <contour>
      <point x="570" y="0" type="line"/>
      <point x="617" y="0" type="line"/>
      <point x="312" y="425" type="line"/>
      <point x="609" y="729" type="line"/>
      <point x="558" y="729" type="line"/>
      <point x="123" y="282" type="line"/>
      <point x="123" y="231" type="line"/>
      <point x="286" y="398" type="line"/>
    </contour>
    <contour>
      <point x="94" y="0" type="line"/>
      <point x="132" y="0" type="line"/>
      <point x="132" y="729" type="line"/>
      <point x="94" y="729" type="line"/>
    </contour>
  </outline>
</glyph>
<glyph name="L" format="2">
  <advance width="543"/>
  <unicode hex="004C"/>
  <anchor x="258" y="0" name="bottom"/>
  <anchor x="314" y="365" name="center"/>
  <anchor x="113" y="729" name="top"/>
  <anchor x="215" y="729" name="topright"/>
  <outline>
    <contour>
      <point x="94" y="0" type="line"/>
      <point x="514" y="0" type="line"/>
      <point x="514" y="37" type="line"/>
      <point x="114" y="37" type="line"/>
      <point x="132" y="15" type="line"/>
      <point x="132" y="729" type="line"/>
      <point x="94" y="729" type="line"/>
    </contour>
  </outline>
</glyph>
<glyph name="M" format="2">
  <advance width="879"/>
  <unicode hex="004D"/>
  <anchor x="440" y="0" name="bottom"/>
  <anchor x="440" y="729" name="top"/>
  <outline>
    <contour>
      <point x="94" y="0" type="line"/>
      <point x="132" y="0" type="line"/>
      <point x="132" y="420" type="line"/>
      <point x="131" y="698" type="line"/>
      <point x="138" y="698" type="line"/>
      <point x="234" y="451" type="line"/>
      <point x="416" y="0" type="line"/>
      <point x="464" y="0" type="line"/>
      <point x="645" y="451" type="line"/>
      <point x="741" y="698" type="line"/>
      <point x="748" y="698" type="line"/>
      <point x="747" y="420" type="line"/>
      <point x="747" y="0" type="line"/>
      <point x="785" y="0" type="line"/>
      <point x="785" y="729" type="line"/>
      <point x="716" y="729" type="line"/>
      <point x="547" y="304" type="line"/>
      <point x="443" y="42" type="line"/>
      <point x="436" y="42" type="line"/>
      <point x="332" y="304" type="line"/>
      <point x="164" y="729" type="line"/>
      <point x="94" y="729" type="line"/>
    </contour>
  </outline>
</glyph>
<glyph name="N" format="2">
  <advance width="764"/>
  <unicode hex="004E"/>
  <anchor x="382" y="0" name="bottom"/>
  <anchor x="382" y="729" name="top"/>
  <outline>
    <contour>
      <point x="94" y="0" type="line"/>
      <point x="132" y="0" type="line"/>
      <point x="132" y="436" type="line"/>
      <point x="129" y="686" type="line"/>
      <point x="134" y="686" type="line"/>
      <point x="615" y="0" type="line"/>
      <point x="670" y="0" type="line"/>
      <point x="670" y="729" type="line"/>
      <point x="632" y="729" type="line"/>
      <point x="632" y="303" type="line"/>
      <point x="636" y="43" type="line"/>
      <point x="631" y="43" type="line"/>
      <point x="149" y="729" type="line"/>
      <point x="94" y="729" type="line"/>
    </contour>
  </outline>
</glyph>
<glyph name="O" format="2">
  <advance width="810"/>
  <unicode hex="004F"/>
  <anchor x="405" y="0" name="bottom"/>
  <anchor x="405" y="365" name="center"/>
  <anchor x="722" y="10" name="ogonek"/>
  <anchor x="405" y="729" name="top"/>
  <anchor x="29" y="729" name="topleft"/>
  <anchor x="572" y="699" name="topright"/>
  <outline>
    <contour>
      <point x="405" y="-8" type="curve" smooth="yes"/>
      <point x="615" y="-8"/>
      <point x="755" y="140"/>
      <point x="755" y="364" type="curve" smooth="yes"/>
      <point x="755" y="587"/>
      <point x="617" y="736"/>
      <point x="405" y="736" type="curve" smooth="yes"/>
      <point x="194" y="736"/>
      <point x="55" y="588"/>
      <point x="55" y="364" type="curve" smooth="yes"/>
      <point x="55" y="142"/>
      <point x="193" y="-8"/>
    </contour>
    <contour>
      <point x="405" y="28" type="curve" smooth="yes"/>
      <point x="214" y="28"/>
      <point x="96" y="163"/>
      <point x="96" y="364" type="curve" smooth="yes"/>
      <point x="96" y="565"/>
      <point x="213" y="700"/>
      <point x="405" y="700" type="curve" smooth="yes"/>
      <point x="596" y="700"/>
      <point x="715" y="566"/>
      <point x="715" y="364" type="curve" smooth="yes"/>
      <point x="715" y="164"/>
      <point x="597" y="28"/>
    </contour>
  </outline>
</glyph>
<glyph name="P" format="2">
  <advance width="651"/>
  <unicode hex="0050"/>
  <anchor x="314" y="0" name="bottom"/>
  <anchor x="314" y="729" name="top"/>
  <outline>
    <contour>
      <point x="94" y="0" type="line"/>
      <point x="132" y="0" type="line"/>
      <point x="132" y="704" type="line"/>
      <point x="118" y="692" type="line"/>
      <point x="358" y="692" type="line" smooth="yes"/>
      <point x="491" y="692"/>
      <point x="566" y="623"/>
      <point x="566" y="509" type="curve" smooth="yes"/>
      <point x="566" y="398"/>
      <point x="492" y="325"/>
      <point x="358" y="325" type="curve" smooth="yes"/>
      <point x="123" y="325" type="line"/>
      <point x="123" y="289" type="line"/>
      <point x="360" y="289" type="line" smooth="yes"/>
      <point x="510" y="289"/>
      <point x="606" y="375"/>
      <point x="606" y="509" type="curve" smooth="yes"/>
      <point x="606" y="649"/>
      <point x="511" y="729"/>
      <point x="361" y="729" type="curve" smooth="yes"/>
      <point x="94" y="729" type="line"/>
    </contour>
  </outline>
</glyph>
<glyph name="R" format="2">
  <advance width="693"/>
  <unicode hex="0052"/>
  <anchor x="341" y="0" name="bottom"/>
  <anchor x="330" y="729" name="top"/>
  <outline>
    <contour>
      <point x="94" y="0" type="line"/>
      <point x="132" y="0" type="line"/>
      <point x="132" y="693" type="line"/>
      <point x="400" y="693" type="line" smooth="yes"/>
      <point x="512" y="693"/>
      <point x="586" y="645"/>
      <point x="586" y="536" type="curve" smooth="yes"/>
      <point x="586" y="439"/>
      <point x="533" y="371"/>
      <point x="400" y="371" type="curve" smooth="yes"/>
      <point x="123" y="371" type="line"/>
      <point x="123" y="336" type="line"/>
      <point x="414" y="336" type="line" smooth="yes"/>
      <point x="540" y="336"/>
      <point x="571" y="291"/>
      <point x="571" y="200" type="curve" smooth="yes"/>
      <point x="571" y="77" type="line" smooth="yes"/>
      <point x="571" y="45"/>
      <point x="572" y="22"/>
      <point x="582" y="0" type="curve"/>
      <point x="621" y="0" type="line"/>
      <point x="610" y="26"/>
      <point x="610" y="50"/>
      <point x="610" y="73" type="curve" smooth="yes"/>
      <point x="610" y="207" type="line" smooth="yes"/>
      <point x="610" y="291"/>
      <point x="580" y="341"/>
      <point x="494" y="355" type="curve"/>
      <point x="494" y="360" type="line"/>
      <point x="582" y="385"/>
      <point x="625" y="449"/>
      <point x="625" y="540" type="curve" smooth="yes"/>
      <point x="625" y="660"/>
      <point x="546" y="729"/>
      <point x="404" y="729" type="curve" smooth="yes"/>
      <point x="94" y="729" type="line"/>
    </contour>
  </outline>
</glyph>
<glyph name="S" format="2">
  <advance width="634"/>
  <unicode hex="0053"/>
  <anchor x="321" y="0" name="bottom"/>
  <anchor x="308" y="729" name="top"/>
  <outline>
    <contour>
      <point x="321" y="-8" type="curve" smooth="yes"/>
      <point x="489" y="-8"/>
      <point x="584" y="69"/>
      <point x="584" y="185" type="curve" smooth="yes"/>
      <point x="584" y="340"/>
      <point x="472" y="372"/>
      <point x="333" y="397" type="curve" smooth="yes"/>
      <point x="172" y="427"/>
      <point x="108" y="453"/>
      <point x="108" y="555" type="curve" smooth="yes"/>
      <point x="108" y="644"/>
      <point x="180" y="703"/>
      <point x="308" y="703" type="curve" smooth="yes"/>
      <point x="439" y="703"/>
      <point x="515" y="641"/>
      <point x="519" y="529" type="curve"/>
      <point x="559" y="529" type="line"/>
      <point x="556" y="654"/>
      <point x="473" y="737"/>
      <point x="312" y="737" type="curve" smooth="yes"/>
      <point x="158" y="737"/>
      <point x="68" y="662"/>
      <point x="68" y="550" type="curve" smooth="yes"/>
      <point x="68" y="427"/>
      <point x="154" y="391"/>
      <point x="319" y="360" type="curve" smooth="yes"/>
      <point x="479" y="331"/>
      <point x="544" y="294"/>
      <point x="544" y="183" type="curve" smooth="yes"/>
      <point x="544" y="76"/>
      <point x="454" y="26"/>
      <point x="319" y="26" type="curve" smooth="yes"/>
      <point x="165" y="26"/>
      <point x="95" y="102"/>
      <point x="91" y="225" type="curve"/>
      <point x="50" y="225" type="line"/>
      <point x="53" y="90"/>
      <point x="134" y="-8"/>
    </contour>
  </outline>
</glyph>
<glyph name="T" format="2">
  <advance width="594"/>
  <unicode hex="0054"/>
  <anchor x="297" y="0" name="bottom"/>
  <anchor x="297" y="365" name="center"/>
  <anchor x="297" y="729" name="top"/>
  <outline>
    <contour>
      <point x="278" y="0" type="line"/>
      <point x="316" y="0" type="line"/>
      <point x="316" y="703" type="line"/>
      <point x="278" y="703" type="line"/>
    </contour>
    <contour>
      <point x="28" y="693" type="line"/>
      <point x="566" y="693" type="line"/>
      <point x="566" y="729" type="line"/>
      <point x="28" y="729" type="line"/>
    </contour>
  </outline>
</glyph>
<glyph name="U" format="2">
  <advance width="723"/>
  <unicode hex="0055"/>
  <anchor x="362" y="0" name="bottom"/>
  <anchor x="424" y="0" name="ogonek"/>
  <anchor x="362" y="729" name="top"/>
  <anchor x="604" y="729" name="topright"/>
  <outline>
    <contour>
      <point x="362" y="-8" type="curve" smooth="yes"/>
      <point x="543" y="-8"/>
      <point x="641" y="99"/>
      <point x="641" y="260" type="curve" smooth="yes"/>
      <point x="641" y="729" type="line"/>
      <point x="604" y="729" type="line"/>
      <point x="604" y="264" type="line" smooth="yes"/>
      <point x="604" y="122"/>
      <point x="527" y="29"/>
      <point x="362" y="29" type="curve" smooth="yes"/>
      <point x="214" y="29"/>
      <point x="120" y="105"/>
      <point x="120" y="264" type="curve" smooth="yes"/>
      <point x="120" y="729" type="line"/>
      <point x="82" y="729" type="line"/>
      <point x="82" y="260" type="line" smooth="yes"/>
      <point x="82" y="90"/>
      <point x="189" y="-8"/>
    </contour>
  </outline>
</glyph>
<glyph name="V" format="2">
  <advance width="682"/>
  <unicode hex="0056"/>
  <anchor x="341" y="0" name="bottom"/>
  <anchor x="341" y="729" name="top"/>
  <outline>
    <contour>
      <point x="316" y="0" type="line"/>
      <point x="366" y="0" type="line"/>
      <point x="651" y="729" type="line"/>
      <point x="611" y="729" type="line"/>
      <point x="456" y="333" type="line"/>
      <point x="344" y="36" type="line"/>
      <point x="338" y="36" type="line"/>
      <point x="227" y="333" type="line"/>
      <point x="73" y="729" type="line"/>
      <point x="31" y="729" type="line"/>
    </contour>
  </outline>
</glyph>
<glyph name="W" format="2">
  <advance width="954"/>
  <unicode hex="0057"/>
  <anchor x="477" y="0" name="bottom"/>
  <anchor x="477" y="729" name="top"/>
  <outline>
    <contour>
      <point x="228" y="0" type="line"/>
      <point x="285" y="0" type="line"/>
      <point x="413" y="459" type="line"/>
      <point x="474" y="692" type="line"/>
      <point x="480" y="692" type="line"/>
      <point x="541" y="459" type="line"/>
      <point x="668" y="0" type="line"/>
      <point x="726" y="0" type="line"/>
      <point x="919" y="729" type="line"/>
      <point x="878" y="729" type="line"/>
      <point x="751" y="248" type="line"/>
      <point x="700" y="33" type="line"/>
      <point x="694" y="33" type="line"/>
      <point x="639" y="248" type="line"/>
      <point x="505" y="729" type="line"/>
      <point x="449" y="729" type="line"/>
      <point x="315" y="248" type="line"/>
      <point x="260" y="33" type="line"/>
      <point x="254" y="33" type="line"/>
      <point x="203" y="248" type="line"/>
      <point x="76" y="729" type="line"/>
      <point x="35" y="729" type="line"/>
    </contour>
  </outline>
</glyph>
<glyph name="X" format="2">
  <advance width="664"/>
  <unicode hex="0058"/>
  <anchor x="331" y="0" name="bottom"/>
  <anchor x="331" y="729" name="top"/>
  <outline>
    <contour>
      <point x="27" y="0" type="line"/>
      <point x="72" y="0" type="line"/>
      <point x="239" y="236" type="line"/>
      <point x="328" y="368" type="line"/>
      <point x="334" y="368" type="line"/>
      <point x="423" y="236" type="line"/>
      <point x="590" y="0" type="line"/>
      <point x="636" y="0" type="line"/>
      <point x="358" y="397" type="line"/>
      <point x="591" y="729" type="line"/>
      <point x="548" y="729" type="line"/>
      <point x="408" y="531" type="line"/>
      <point x="334" y="422" type="line"/>
      <point x="328" y="422" type="line"/>
      <point x="254" y="531" type="line"/>
      <point x="115" y="729" type="line"/>
      <point x="72" y="729" type="line"/>
      <point x="305" y="396" type="line"/>
    </contour>
  </outline>
</glyph>
<glyph name="Y" format="2">
  <advance width="634"/>
  <unicode hex="0059"/>
  <anchor x="318" y="0" name="bottom"/>
  <anchor x="318" y="729" name="top"/>
  <anchor x="42" y="729" name="topleft"/>
  <outline>
    <contour>
      <point x="297" y="0" type="line"/>
      <point x="335" y="0" type="line"/>
      <point x="335" y="300" type="line"/>
      <point x="607" y="729" type="line"/>
      <point x="562" y="729" type="line"/>
      <point x="426" y="513" type="line"/>
      <point x="319" y="337" type="line"/>
      <point x="314" y="337" type="line"/>
      <point x="208" y="513" type="line"/>
      <point x="73" y="729" type="line"/>
      <point x="27" y="729" type="line"/>
      <point x="297" y="300" type="line"/>
    </contour>
  </outline>
</glyph>
<glyph name="Z" format="2">
  <advance width="618"/>
  <unicode hex="005A"/>
  <anchor x="308" y="0" name="bottom"/>
  <anchor x="308" y="365" name="center"/>
  <anchor x="308" y="729" name="top"/>
  <outline>
    <contour>
      <point x="34" y="0" type="line"/>
      <point x="584" y="0" type="line"/>
      <point x="584" y="37" type="line"/>
      <point x="86" y="37" type="line"/>
      <point x="572" y="701" type="line"/>
      <point x="572" y="729" type="line"/>
      <point x="49" y="729" type="line"/>
      <point x="49" y="693" type="line"/>
      <point x="520" y="693" type="line"/>
      <point x="34" y="29" type="line"/>
    </contour>
  </outline>
</glyph>
<glyph name="bracketleft" format="2">
  <advance width="345"/>
  <unicode hex="005B"/>
  <outline>
    <contour>
      <point x="102" y="-167" type="line"/>
      <point x="305" y="-167" type="line"/>
      <point x="305" y="-135" type="line"/>
      <point x="138" y="-135" type="line"/>
      <point x="138" y="761" type="line"/>
      <point x="305" y="761" type="line"/>
      <point x="305" y="793" type="line"/>
      <point x="102" y="793" type="line"/>
    </contour>
  </outline>
</glyph>
<glyph name="backslash" format="2">
  <advance width="355"/>
  <unicode hex="005C"/>
  <outline>
    <contour>
      <point x="320" y="-81" type="line"/>
      <point x="359" y="-81" type="line"/>
      <point x="32" y="729" type="line"/>
      <point x="-4" y="729" type="line"/>
    </contour>
  </outline>
</glyph>
<glyph name="asciicircum" format="2">
  <advance width="600"/>
  <unicode hex="005E"/>
  <outline>
    <contour>
      <point x="150" y="475" type="line"/>
      <point x="189" y="475" type="line"/>
      <point x="300" y="691" type="line"/>
      <point x="410" y="475" type="line"/>
      <point x="451" y="475" type="line"/>
      <point x="319" y="729" type="line"/>
      <point x="281" y="729" type="line"/>
    </contour>
  </outline>
</glyph>
<glyph name="underscore" format="2">
  <advance width="450"/>
  <unicode hex="005F"/>
  <outline>
    <contour>
      <point x="60" y="-33" type="line"/>
      <point x="390" y="-33" type="line"/>
      <point x="390" y="0" type="line"/>
      <point x="60" y="0" type="line"/>
    </contour>
  </outline>
</glyph>
<glyph name="c" format="2">
  <advance width="553"/>
  <unicode hex="0063"/>
  <anchor x="293" y="0" name="bottom"/>
  <anchor x="294" y="517" name="top"/>
  <outline>
    <contour>
      <point x="293" y="-8" type="curve" smooth="yes"/>
      <point x="408" y="-8"/>
      <point x="493" y="59"/>
      <point x="510" y="164" type="curve"/>
      <point x="473" y="164" type="line"/>
      <point x="458" y="80"/>
      <point x="388" y="27"/>
      <point x="293" y="27" type="curve" smooth="yes"/>
      <point x="170" y="27"/>
      <point x="89" y="115"/>
      <point x="89" y="257" type="curve" smooth="yes"/>
      <point x="89" y="395"/>
      <point x="167" y="490"/>
      <point x="294" y="490" type="curve" smooth="yes"/>
      <point x="380" y="490"/>
      <point x="450" y="445"/>
      <point x="470" y="364" type="curve"/>
      <point x="506" y="364" type="line"/>
      <point x="489" y="460"/>
      <point x="406" y="525"/>
      <point x="296" y="525" type="curve" smooth="yes"/>
      <point x="148" y="525"/>
      <point x="52" y="416"/>
      <point x="52" y="257" type="curve" smooth="yes"/>
      <point x="52" y="98"/>
      <point x="148" y="-8"/>
    </contour>
  </outline>
</glyph>
<glyph name="e" format="2">
  <advance width="565"/>
  <unicode hex="0065"/>
  <anchor x="290" y="0" name="bottom"/>
  <anchor x="371" y="0" name="ogonek"/>
  <anchor x="287" y="517" name="top"/>
  <outline>
    <contour>
      <point x="290" y="-8" type="curve" smooth="yes"/>
      <point x="400" y="-8"/>
      <point x="488" y="53"/>
      <point x="507" y="147" type="curve"/>
      <point x="469" y="147" type="line"/>
      <point x="450" y="74"/>
      <point x="385" y="26"/>
      <point x="290" y="26" type="curve" smooth="yes"/>
      <point x="171" y="26"/>
      <point x="94" y="110"/>
      <point x="90" y="256" type="curve"/>
      <point x="509" y="256" type="line"/>
      <point x="523" y="410"/>
      <point x="446" y="525"/>
      <point x="288" y="525" type="curve" smooth="yes"/>
      <point x="141" y="525"/>
      <point x="53" y="417"/>
      <point x="53" y="258" type="curve" smooth="yes"/>
      <point x="53" y="97"/>
      <point x="146" y="-8"/>
    </contour>
    <contour>
      <point x="91" y="284" type="line"/>
      <point x="98" y="413"/>
      <point x="173" y="491"/>
      <point x="287" y="491" type="curve" smooth="yes"/>
      <point x="400" y="491"/>
      <point x="476" y="423"/>
      <point x="474" y="281" type="curve"/>
      <point x="479" y="290" type="line"/>
      <point x="86" y="290" type="line"/>
    </contour>
  </outline>
</glyph>
<glyph name="g" format="2">
  <advance width="576"/>
  <unicode hex="0067"/>
  <anchor x="290" y="-167" name="bottom"/>
  <anchor x="290" y="517" name="top"/>
  <outline>
    <contour>
      <point x="271" y="-177" type="curve" smooth="yes"/>
      <point x="408" y="-177"/>
      <point x="491" y="-112"/>
      <point x="491" y="25" type="curve" smooth="yes"/>
      <point x="491" y="517" type="line"/>
      <point x="457" y="517" type="line"/>
      <point x="455" y="404" type="line"/>
      <point x="452" y="404" type="line"/>
      <point x="426" y="478"/>
      <point x="357" y="527"/>
      <point x="263" y="527" type="curve" smooth="yes"/>
      <point x="139" y="527"/>
      <point x="54" y="430"/>
      <point x="54" y="270" type="curve" smooth="yes"/>
      <point x="54" y="112"/>
      <point x="139" y="13"/>
      <point x="263" y="13" type="curve" smooth="yes"/>
      <point x="357" y="13"/>
      <point x="426" y="63"/>
      <point x="452" y="137" type="curve"/>
      <point x="454" y="137" type="line"/>
      <point x="454" y="25" type="line" smooth="yes"/>
      <point x="454" y="-95"/>
      <point x="391" y="-144"/>
      <point x="271" y="-144" type="curve" smooth="yes"/>
      <point x="185" y="-144"/>
      <point x="126" y="-106"/>
      <point x="114" y="-43" type="curve"/>
      <point x="78" y="-43" type="line"/>
      <point x="92" y="-128"/>
      <point x="166" y="-177"/>
    </contour>
    <contour>
      <point x="272" y="47" type="curve" smooth="yes"/>
      <point x="164" y="47"/>
      <point x="92" y="130"/>
      <point x="92" y="270" type="curve" smooth="yes"/>
      <point x="92" y="412"/>
      <point x="164" y="494"/>
      <point x="272" y="494" type="curve" smooth="yes"/>
      <point x="387" y="494"/>
      <point x="454" y="402"/>
      <point x="454" y="305" type="curve" smooth="yes"/>
      <point x="454" y="237" type="line" smooth="yes"/>
      <point x="454" y="139"/>
      <point x="386" y="47"/>
    </contour>
  </outline>
</glyph>
<glyph name="h" format="2">
  <advance width="581"/>
  <unicode hex="0068"/>
  <anchor x="293" y="0" name="bottom"/>
  <anchor x="143" y="631" name="center"/>
  <anchor x="103" y="729" name="top"/>
  <outline>
    <contour>
      <point x="85" y="0" type="line"/>
      <point x="121" y="0" type="line"/>
      <point x="121" y="274" type="line" smooth="yes"/>
      <point x="121" y="401"/>
      <point x="198" y="491"/>
      <point x="313" y="491" type="curve" smooth="yes"/>
      <point x="418" y="491"/>
      <point x="469" y="430"/>
      <point x="469" y="294" type="curve" smooth="yes"/>
      <point x="469" y="0" type="line"/>
      <point x="506" y="0" type="line"/>
      <point x="506" y="300" type="line" smooth="yes"/>
      <point x="506" y="462"/>
      <point x="427" y="525"/>
      <point x="318" y="525" type="curve" smooth="yes"/>
      <point x="235" y="525"/>
      <point x="160" y="482"/>
      <point x="125" y="400" type="curve"/>
      <point x="121" y="400" type="line"/>
      <point x="121" y="729" type="line"/>
      <point x="85" y="729" type="line"/>
    </contour>
  </outline>
</glyph>
<glyph name="k" format="2">
  <advance width="511"/>
  <unicode hex="006B"/>
  <anchor x="262" y="0" name="bottom"/>
  <anchor x="262" y="729" name="top"/>
  <outline>
    <contour>
      <point x="85" y="0" type="line"/>
      <point x="122" y="0" type="line"/>
      <point x="122" y="175" type="line"/>
      <point x="245" y="294" type="line"/>
      <point x="277" y="244" type="line"/>
      <point x="443" y="0" type="line"/>
      <point x="486" y="0" type="line"/>
      <point x="271" y="320" type="line"/>
      <point x="474" y="517" type="line"/>
      <point x="425" y="517" type="line"/>
      <point x="171" y="269" type="line"/>
      <point x="122" y="220" type="line"/>
      <point x="122" y="729" type="line"/>
      <point x="85" y="729" type="line"/>
    </contour>
  </outline>
</glyph>
<glyph name="l" format="2">
  <advance width="207"/>
  <unicode hex="006C"/>
  <anchor x="104" y="0" name="bottom"/>
  <anchor x="104" y="365" name="center"/>
  <anchor x="104" y="729" name="top"/>
  <anchor x="122" y="729" name="topright"/>
  <outline>
    <contour>
      <point x="85" y="0" type="line"/>
      <point x="122" y="0" type="line"/>
      <point x="122" y="729" type="line"/>
      <point x="85" y="729" type="line"/>
    </contour>
  </outline>
</glyph>
<glyph name="m" format="2">
  <advance width="956"/>
  <unicode hex="006D"/>
  <anchor x="481" y="0" name="bottom"/>
  <anchor x="481" y="517" name="top"/>
  <outline>
    <contour>
      <point x="85" y="0" type="line"/>
      <point x="121" y="0" type="line"/>
      <point x="121" y="274" type="line" smooth="yes"/>
      <point x="121" y="401"/>
      <point x="197" y="491"/>
      <point x="311" y="491" type="curve" smooth="yes"/>
      <point x="414" y="491"/>
      <point x="464" y="430"/>
      <point x="464" y="294" type="curve" smooth="yes"/>
      <point x="464" y="0" type="line"/>
      <point x="502" y="0" type="line"/>
      <point x="502" y="274" type="line" smooth="yes"/>
      <point x="502" y="401"/>
      <point x="577" y="491"/>
      <point x="690" y="491" type="curve" smooth="yes"/>
      <point x="795" y="491"/>
      <point x="845" y="430"/>
      <point x="845" y="294" type="curve" smooth="yes"/>
      <point x="845" y="0" type="line"/>
      <point x="881" y="0" type="line"/>
      <point x="881" y="300" type="line" smooth="yes"/>
      <point x="881" y="462"/>
      <point x="804" y="525"/>
      <point x="696" y="525" type="curve" smooth="yes"/>
      <point x="608" y="525"/>
      <point x="532" y="480"/>
      <point x="498" y="394" type="curve"/>
      <point x="490" y="394" type="line"/>
      <point x="465" y="486"/>
      <point x="400" y="525"/>
      <point x="316" y="525" type="curve" smooth="yes"/>
      <point x="233" y="525"/>
      <point x="159" y="482"/>
      <point x="125" y="400" type="curve"/>
      <point x="121" y="400" type="line"/>
      <point x="119" y="517" type="line"/>
      <point x="85" y="517" type="line"/>
    </contour>
  </outline>
</glyph>
<glyph name="n" format="2">
  <advance width="581"/>
  <unicode hex="006E"/>
  <anchor x="293" y="0" name="bottom"/>
  <anchor x="293" y="517" name="top"/>
  <outline>
    <contour>
      <point x="85" y="0" type="line"/>
      <point x="121" y="0" type="line"/>
      <point x="121" y="274" type="line" smooth="yes"/>
      <point x="121" y="401"/>
      <point x="198" y="491"/>
      <point x="313" y="491" type="curve" smooth="yes"/>
      <point x="418" y="491"/>
      <point x="469" y="430"/>
      <point x="469" y="294" type="curve" smooth="yes"/>
      <point x="469" y="0" type="line"/>
      <point x="506" y="0" type="line"/>
      <point x="506" y="300" type="line" smooth="yes"/>
      <point x="506" y="462"/>
      <point x="427" y="525"/>
      <point x="318" y="525" type="curve" smooth="yes"/>
      <point x="235" y="525"/>
      <point x="160" y="482"/>
      <point x="125" y="400" type="curve"/>
      <point x="121" y="400" type="line"/>
      <point x="119" y="517" type="line"/>
      <point x="85" y="517" type="line"/>
    </contour>
  </outline>
</glyph>
<glyph name="o" format="2">
  <advance width="589"/>
  <unicode hex="006F"/>
  <anchor x="295" y="0" name="bottom"/>
  <anchor x="295" y="259" name="center"/>
  <anchor x="525" y="10" name="ogonek"/>
  <anchor x="295" y="517" name="top"/>
  <anchor x="381" y="507" name="topright"/>
  <outline>
    <contour>
      <point x="296" y="-8" type="curve" smooth="yes"/>
      <point x="440" y="-8"/>
      <point x="537" y="101"/>
      <point x="537" y="258" type="curve" smooth="yes"/>
      <point x="537" y="417"/>
      <point x="440" y="525"/>
      <point x="296" y="525" type="curve" smooth="yes"/>
      <point x="150" y="525"/>
      <point x="52" y="415"/>
      <point x="52" y="257" type="curve" smooth="yes"/>
      <point x="52" y="100"/>
      <point x="150" y="-8"/>
    </contour>
    <contour>
      <point x="295" y="28" type="curve" smooth="yes"/>
      <point x="169" y="28"/>
      <point x="90" y="120"/>
      <point x="90" y="257" type="curve" smooth="yes"/>
      <point x="90" y="400"/>
      <point x="173" y="490"/>
      <point x="296" y="490" type="curve" smooth="yes"/>
      <point x="422" y="490"/>
      <point x="499" y="397"/>
      <point x="499" y="258" type="curve" smooth="yes"/>
      <point x="499" y="117"/>
      <point x="417" y="28"/>
    </contour>
  </outline>
</glyph>
<glyph name="p" format="2">
  <advance width="592"/>
  <unicode hex="0070"/>
  <anchor x="291" y="0" name="bottom"/>
  <anchor x="291" y="517" name="top"/>
  <outline>
    <contour>
      <point x="85" y="-167" type="line"/>
      <point x="122" y="-167" type="line"/>
      <point x="122" y="119" type="line"/>
      <point x="124" y="119" type="line"/>
      <point x="151" y="42"/>
      <point x="222" y="-9"/>
      <point x="320" y="-9" type="curve" smooth="yes"/>
      <point x="449" y="-9"/>
      <point x="537" y="92"/>
      <point x="537" y="258" type="curve" smooth="yes"/>
      <point x="537" y="423"/>
      <point x="449" y="525"/>
      <point x="320" y="525" type="curve" smooth="yes"/>
      <point x="222" y="525"/>
      <point x="151" y="473"/>
      <point x="124" y="396" type="curve"/>
      <point x="121" y="396" type="line"/>
      <point x="119" y="517" type="line"/>
      <point x="85" y="517" type="line"/>
    </contour>
    <contour>
      <point x="312" y="24" type="curve" smooth="yes"/>
      <point x="192" y="24"/>
      <point x="122" y="120"/>
      <point x="122" y="222" type="curve" smooth="yes"/>
      <point x="122" y="293" type="line" smooth="yes"/>
      <point x="122" y="395"/>
      <point x="192" y="491"/>
      <point x="312" y="491" type="curve" smooth="yes"/>
      <point x="424" y="491"/>
      <point x="499" y="405"/>
      <point x="499" y="258" type="curve" smooth="yes"/>
      <point x="499" y="109"/>
      <point x="424" y="24"/>
    </contour>
  </outline>
</glyph>
<glyph name="q" format="2">
  <advance width="592"/>
  <unicode hex="0071"/>
  <anchor x="301" y="0" name="bottom"/>
  <anchor x="301" y="517" name="top"/>
  <outline>
    <contour>
      <point x="470" y="-167" type="line"/>
      <point x="507" y="-167" type="line"/>
      <point x="507" y="517" type="line"/>
      <point x="473" y="517" type="line"/>
      <point x="471" y="398" type="line"/>
      <point x="468" y="398" type="line"/>
      <point x="441" y="475"/>
      <point x="370" y="526"/>
      <point x="272" y="526" type="curve" smooth="yes"/>
      <point x="143" y="526"/>
      <point x="55" y="425"/>
      <point x="55" y="259" type="curve" smooth="yes"/>
      <point x="55" y="94"/>
      <point x="143" y="-8"/>
      <point x="272" y="-8" type="curve" smooth="yes"/>
      <point x="370" y="-8"/>
      <point x="441" y="44"/>
      <point x="468" y="121" type="curve"/>
      <point x="470" y="121" type="line"/>
    </contour>
    <contour>
      <point x="280" y="26" type="curve" smooth="yes"/>
      <point x="168" y="26"/>
      <point x="93" y="112"/>
      <point x="93" y="259" type="curve" smooth="yes"/>
      <point x="93" y="408"/>
      <point x="168" y="493"/>
      <point x="280" y="493" type="curve" smooth="yes"/>
      <point x="400" y="493"/>
      <point x="470" y="397"/>
      <point x="470" y="295" type="curve" smooth="yes"/>
      <point x="470" y="224" type="line" smooth="yes"/>
      <point x="470" y="122"/>
      <point x="400" y="26"/>
    </contour>
  </outline>
</glyph>
<glyph name="r" format="2">
  <advance width="340"/>
  <unicode hex="0072"/>
  <anchor x="103" y="0" name="bottom"/>
  <anchor x="171" y="517" name="top"/>
  <outline>
    <contour>
      <point x="85" y="0" type="line"/>
      <point x="121" y="0" type="line"/>
      <point x="121" y="336" type="line"/>
      <point x="130" y="432"/>
      <point x="200" y="488"/>
      <point x="287" y="488" type="curve" smooth="yes"/>
      <point x="298" y="488"/>
      <point x="309" y="487"/>
      <point x="318" y="486" type="curve"/>
      <point x="318" y="522" type="line"/>
      <point x="309" y="523"/>
      <point x="298" y="524"/>
      <point x="286" y="524" type="curve" smooth="yes"/>
      <point x="211" y="524"/>
      <point x="146" y="480"/>
      <point x="123" y="413" type="curve"/>
      <point x="121" y="413" type="line"/>
      <point x="117" y="517" type="line"/>
      <point x="85" y="517" type="line"/>
    </contour>
  </outline>
</glyph>
<glyph name="s" format="2">
  <advance width="494"/>
  <unicode hex="0073"/>
  <anchor x="246" y="0" name="bottom"/>
  <anchor x="246" y="517" name="top"/>
  <outline>
    <contour>
      <point x="249" y="-10" type="curve" smooth="yes"/>
      <point x="365" y="-10"/>
      <point x="442" y="42"/>
      <point x="442" y="135" type="curve" smooth="yes"/>
      <point x="442" y="239"/>
      <point x="365" y="265"/>
      <point x="257" y="281" type="curve" smooth="yes"/>
      <point x="150" y="296"/>
      <point x="100" y="320"/>
      <point x="100" y="389" type="curve" smooth="yes"/>
      <point x="100" y="452"/>
      <point x="153" y="494"/>
      <point x="247" y="494" type="curve" smooth="yes"/>
      <point x="333" y="494"/>
      <point x="391" y="460"/>
      <point x="396" y="373" type="curve"/>
      <point x="432" y="373" type="line"/>
      <point x="429" y="469"/>
      <point x="362" y="527"/>
      <point x="246" y="527" type="curve" smooth="yes"/>
      <point x="136" y="527"/>
      <point x="63" y="470"/>
      <point x="63" y="385" type="curve" smooth="yes"/>
      <point x="63" y="293"/>
      <point x="128" y="264"/>
      <point x="251" y="246" type="curve" smooth="yes"/>
      <point x="359" y="230"/>
      <point x="404" y="207"/>
      <point x="404" y="132" type="curve" smooth="yes"/>
      <point x="404" y="62"/>
      <point x="349" y="23"/>
      <point x="250" y="23" type="curve" smooth="yes"/>
      <point x="155" y="23"/>
      <point x="91" y="63"/>
      <point x="85" y="149" type="curve"/>
      <point x="48" y="149" type="line"/>
      <point x="53" y="53"/>
      <point x="125" y="-10"/>
    </contour>
  </outline>
</glyph>
<glyph name="t" format="2">
  <advance width="330"/>
  <unicode hex="0074"/>
  <anchor x="218" y="0" name="bottom"/>
  <anchor x="159" y="259" name="center"/>
  <anchor x="147" y="517" name="top"/>
  <anchor x="178" y="785" name="topright"/>
  <outline>
    <contour>
      <point x="225" y="0" type="curve" smooth="yes"/>
      <point x="298" y="0" type="line"/>
      <point x="298" y="36" type="line"/>
      <point x="228" y="36" type="line" smooth="yes"/>
      <point x="185" y="36"/>
      <point x="166" y="56"/>
      <point x="166" y="101" type="curve" smooth="yes"/>
      <point x="166" y="485" type="line"/>
      <point x="296" y="485" type="line"/>
      <point x="296" y="517" type="line"/>
      <point x="165" y="517" type="line"/>
      <point x="165" y="690" type="line"/>
      <point x="129" y="681" type="line"/>
      <point x="129" y="517" type="line"/>
      <point x="22" y="517" type="line"/>
      <point x="22" y="485" type="line"/>
      <point x="129" y="485" type="line"/>
      <point x="129" y="97" type="line" smooth="yes"/>
      <point x="129" y="28"/>
      <point x="165" y="0"/>
    </contour>
  </outline>
</glyph>
<glyph name="u" format="2">
  <advance width="581"/>
  <unicode hex="0075"/>
  <anchor x="286" y="0" name="bottom"/>
  <anchor x="496" y="0" name="ogonek"/>
  <anchor x="286" y="517" name="top"/>
  <anchor x="459" y="517" name="topright"/>
  <outline>
    <contour>
      <point x="264" y="-8" type="curve" smooth="yes"/>
      <point x="353" y="-8"/>
      <point x="427" y="42"/>
      <point x="455" y="121" type="curve"/>
      <point x="459" y="121" type="line"/>
      <point x="462" y="0" type="line"/>
      <point x="496" y="0" type="line"/>
      <point x="496" y="517" type="line"/>
      <point x="459" y="517" type="line"/>
      <point x="459" y="249" type="line" smooth="yes"/>
      <point x="459" y="112"/>
      <point x="380" y="26"/>
      <point x="272" y="26" type="curve" smooth="yes"/>
      <point x="159" y="26"/>
      <point x="112" y="94"/>
      <point x="112" y="211" type="curve" smooth="yes"/>
      <point x="112" y="517" type="line"/>
      <point x="75" y="517" type="line"/>
      <point x="75" y="204" type="line" smooth="yes"/>
      <point x="75" y="61"/>
      <point x="151" y="-8"/>
    </contour>
  </outline>
</glyph>
<glyph name="v" format="2">
  <advance width="490"/>
  <unicode hex="0076"/>
  <anchor x="245" y="0" name="bottom"/>
  <anchor x="245" y="517" name="top"/>
  <outline>
    <contour>
      <point x="222" y="0" type="line"/>
      <point x="268" y="0" type="line"/>
      <point x="464" y="517" type="line"/>
      <point x="424" y="517" type="line"/>
      <point x="309" y="208" type="line"/>
      <point x="247" y="31" type="line"/>
      <point x="243" y="31" type="line"/>
      <point x="181" y="208" type="line"/>
      <point x="66" y="517" type="line"/>
      <point x="26" y="517" type="line"/>
    </contour>
  </outline>
</glyph>
<glyph name="w" format="2">
  <advance width="724"/>
  <unicode hex="0077"/>
  <anchor x="362" y="0" name="bottom"/>
  <anchor x="362" y="517" name="top"/>
  <outline>
    <contour>
      <point x="177" y="0" type="line"/>
      <point x="228" y="0" type="line"/>
      <point x="310" y="295" type="line"/>
      <point x="359" y="476" type="line"/>
      <point x="363" y="476" type="line"/>
      <point x="414" y="295" type="line"/>
      <point x="499" y="0" type="line"/>
      <point x="548" y="0" type="line"/>
      <point x="693" y="517" type="line"/>
      <point x="655" y="517" type="line"/>
      <point x="572" y="208" type="line"/>
      <point x="526" y="31" type="line"/>
      <point x="522" y="31" type="line"/>
      <point x="473" y="208" type="line"/>
      <point x="384" y="517" type="line"/>
      <point x="338" y="517" type="line"/>
      <point x="252" y="208" type="line"/>
      <point x="204" y="31" type="line"/>
      <point x="200" y="31" type="line"/>
      <point x="153" y="208" type="line"/>
      <point x="69" y="517" type="line"/>
      <point x="31" y="517" type="line"/>
    </contour>
  </outline>
</glyph>
<glyph name="x" format="2">
  <advance width="511"/>
  <unicode hex="0078"/>
  <anchor x="255" y="0" name="bottom"/>
  <anchor x="255" y="517" name="top"/>
  <outline>
    <contour>
      <point x="22" y="0" type="line"/>
      <point x="63" y="0" type="line"/>
      <point x="239" y="228" type="line"/>
      <point x="254" y="247" type="line"/>
      <point x="258" y="247" type="line"/>
      <point x="272" y="228" type="line"/>
      <point x="443" y="0" type="line"/>
      <point x="487" y="0" type="line"/>
      <point x="279" y="271" type="line"/>
      <point x="465" y="517" type="line"/>
      <point x="423" y="517" type="line"/>
      <point x="271" y="311" type="line"/>
      <point x="259" y="294" type="line"/>
      <point x="255" y="294" type="line"/>
      <point x="242" y="311" type="line"/>
      <point x="87" y="517" type="line"/>
      <point x="45" y="517" type="line"/>
      <point x="233" y="271" type="line"/>
    </contour>
  </outline>
</glyph>
<glyph name="y" format="2">
  <advance width="492"/>
  <unicode hex="0079"/>
  <anchor x="343" y="0" name="bottom"/>
  <anchor x="246" y="517" name="top"/>
  <outline>
    <contour>
      <point x="53" y="-167" type="line"/>
      <point x="102" y="-167" type="line" smooth="yes"/>
      <point x="172" y="-167"/>
      <point x="204" y="-138"/>
      <point x="228" y="-77" type="curve" smooth="yes"/>
      <point x="466" y="517" type="line"/>
      <point x="427" y="517" type="line"/>
      <point x="310" y="223" type="line"/>
      <point x="254" y="71" type="line"/>
      <point x="250" y="71" type="line"/>
      <point x="190" y="223" type="line"/>
      <point x="66" y="517" type="line"/>
      <point x="25" y="517" type="line"/>
      <point x="238" y="23" type="line"/>
      <point x="238" y="39" type="line"/>
      <point x="197" y="-65" type="line" smooth="yes"/>
      <point x="178" y="-113"/>
      <point x="152" y="-135"/>
      <point x="100" y="-135" type="curve" smooth="yes"/>
      <point x="53" y="-135" type="line"/>
    </contour>
  </outline>
</glyph>
<glyph name="z" format="2">
  <advance width="482"/>
  <unicode hex="007A"/>
  <anchor x="241" y="0" name="bottom"/>
  <anchor x="241" y="259" name="center"/>
  <anchor x="241" y="517" name="top"/>
  <outline>
    <contour>
      <point x="30" y="0" type="line"/>
      <point x="452" y="0" type="line"/>
      <point x="452" y="32" type="line"/>
      <point x="75" y="32" type="line"/>
      <point x="441" y="487" type="line"/>
      <point x="441" y="517" type="line"/>
      <point x="41" y="517" type="line"/>
      <point x="41" y="485" type="line"/>
      <point x="397" y="485" type="line"/>
      <point x="30" y="29" type="line"/>
    </contour>
  </outline>
</glyph>
<glyph name="braceleft" format="2">
  <advance width="375"/>
  <unicode hex="007B"/>
  <outline>
    <contour>
      <point x="173" y="-167" type="curve" smooth="yes"/>
      <point x="335" y="-167" type="line"/>
      <point x="335" y="-135" type="line"/>
      <point x="168" y="-135" type="line"/>
      <point x="168" y="208" type="line" smooth="yes"/>
      <point x="168" y="267"/>
      <point x="135" y="309"/>
      <point x="98" y="311" type="curve"/>
      <point x="98" y="315" type="line"/>
      <point x="133" y="316"/>
      <point x="168" y="356"/>
      <point x="168" y="417" type="curve" smooth="yes"/>
      <point x="168" y="761" type="line"/>
      <point x="335" y="761" type="line"/>
      <point x="335" y="793" type="line"/>
      <point x="173" y="793" type="line" smooth="yes"/>
      <point x="145" y="793"/>
      <point x="132" y="775"/>
      <point x="132" y="750" type="curve" smooth="yes"/>
      <point x="132" y="417" type="line" smooth="yes"/>
      <point x="132" y="361"/>
      <point x="100" y="331"/>
      <point x="69" y="331" type="curve" smooth="yes"/>
      <point x="38" y="331" type="line"/>
      <point x="38" y="294" type="line"/>
      <point x="69" y="294" type="line" smooth="yes"/>
      <point x="100" y="294"/>
      <point x="132" y="264"/>
      <point x="132" y="209" type="curve" smooth="yes"/>
      <point x="132" y="-124" type="line" smooth="yes"/>
      <point x="132" y="-149"/>
      <point x="145" y="-167"/>
    </contour>
  </outline>
</glyph>
<glyph name="asciitilde" format="2">
  <advance width="600"/>
  <unicode hex="007E"/>
  <outline>
    <contour>
      <point x="97" y="301" type="curve"/>
      <point x="127" y="301" type="line"/>
      <point x="123" y="340"/>
      <point x="142" y="363"/>
      <point x="170" y="363" type="curve" smooth="yes"/>
      <point x="212" y="363"/>
      <point x="276" y="315"/>
      <point x="333" y="315" type="curve" smooth="yes"/>
      <point x="382" y="315"/>
      <point x="422" y="343"/>
      <point x="417" y="421" type="curve"/>
      <point x="387" y="421" type="line"/>
      <point x="388" y="378"/>
      <point x="369" y="357"/>
      <point x="334" y="357" type="curve" smooth="yes"/>
      <point x="282" y="357"/>
      <point x="224" y="405"/>
      <point x="171" y="405" type="curve" smooth="yes"/>
      <point x="138" y="405"/>
      <point x="91" y="389"/>
    </contour>
  </outline>
</glyph>
<glyph name="cent" format="2">
  <advance width="587"/>
  <unicode hex="00A2"/>
  <outline>
    <contour>
      <point x="307" y="98" type="curve" smooth="yes"/>
      <point x="426" y="98"/>
      <point x="513" y="169"/>
      <point x="525" y="280" type="curve"/>
      <point x="488" y="280" type="line"/>
      <point x="478" y="191"/>
      <point x="406" y="133"/>
      <point x="307" y="133" type="curve" smooth="yes"/>
      <point x="184" y="133"/>
      <point x="103" y="221"/>
      <point x="103" y="363" type="curve" smooth="yes"/>
      <point x="103" y="501"/>
      <point x="181" y="596"/>
      <point x="308" y="596" type="curve" smooth="yes"/>
      <point x="398" y="596"/>
      <point x="470" y="547"/>
      <point x="486" y="460" type="curve"/>
      <point x="522" y="460" type="line"/>
      <point x="509" y="562"/>
      <point x="424" y="631"/>
      <point x="310" y="631" type="curve" smooth="yes"/>
      <point x="162" y="631"/>
      <point x="66" y="522"/>
      <point x="66" y="363" type="curve" smooth="yes"/>
      <point x="66" y="204"/>
      <point x="162" y="98"/>
    </contour>
    <contour>
      <point x="281" y="0" type="line"/>
      <point x="314" y="0" type="line"/>
      <point x="314" y="113" type="line"/>
      <point x="281" y="113" type="line"/>
    </contour>
    <contour>
      <point x="281" y="617" type="line"/>
      <point x="314" y="617" type="line"/>
      <point x="314" y="729" type="line"/>
      <point x="281" y="729" type="line"/>
    </contour>
  </outline>
</glyph>
<glyph name="sterling" format="2">
  <advance width="623"/>
  <unicode hex="00A3"/>
  <outline>
    <contour>
      <point x="109" y="31" type="curve"/>
      <point x="140" y="13" type="line"/>
      <point x="203" y="86"/>
      <point x="223" y="156"/>
      <point x="223" y="241" type="curve" smooth="yes"/>
      <point x="223" y="367"/>
      <point x="158" y="426"/>
      <point x="158" y="534" type="curve" smooth="yes"/>
      <point x="158" y="639"/>
      <point x="225" y="700"/>
      <point x="336" y="700" type="curve" smooth="yes"/>
      <point x="445" y="700"/>
      <point x="509" y="637"/>
      <point x="509" y="526" type="curve"/>
      <point x="550" y="527" type="line"/>
      <point x="550" y="659"/>
      <point x="468" y="738"/>
      <point x="336" y="738" type="curve" smooth="yes"/>
      <point x="202" y="738"/>
      <point x="118" y="661"/>
      <point x="118" y="535" type="curve" smooth="yes"/>
      <point x="118" y="420"/>
      <point x="181" y="364"/>
      <point x="181" y="241" type="curve" smooth="yes"/>
      <point x="181" y="155"/>
      <point x="163" y="99"/>
    </contour>
    <contour>
      <point x="52" y="0" type="line"/>
      <point x="544" y="0" type="line"/>
      <point x="544" y="178" type="line"/>
      <point x="508" y="178" type="line"/>
      <point x="508" y="36" type="line"/>
      <point x="52" y="36" type="line"/>
    </contour>
    <contour>
      <point x="72" y="345" type="line"/>
      <point x="433" y="345" type="line"/>
      <point x="433" y="380" type="line"/>
      <point x="72" y="380" type="line"/>
    </contour>
  </outline>
</glyph>
<glyph name="currency" format="2">
  <advance width="609"/>
  <unicode hex="00A4"/>
  <outline>
    <contour>
      <point x="79" y="97" type="line"/>
      <point x="187" y="207" type="line"/>
      <point x="219" y="182"/>
      <point x="261" y="167"/>
      <point x="305" y="167" type="curve" smooth="yes"/>
      <point x="349" y="167"/>
      <point x="391" y="182"/>
      <point x="422" y="208" type="curve"/>
      <point x="531" y="97" type="line"/>
      <point x="556" y="120" type="line"/>
      <point x="446" y="231" type="line"/>
      <point x="474" y="261"/>
      <point x="489" y="305"/>
      <point x="489" y="348" type="curve" smooth="yes"/>
      <point x="489" y="395"/>
      <point x="473" y="437"/>
      <point x="447" y="468" type="curve"/>
      <point x="556" y="577" type="line"/>
      <point x="531" y="602" type="line"/>
      <point x="422" y="491" type="line"/>
      <point x="391" y="516"/>
      <point x="349" y="529"/>
      <point x="305" y="529" type="curve" smooth="yes"/>
      <point x="257" y="529"/>
      <point x="217" y="514"/>
      <point x="188" y="491" type="curve"/>
      <point x="79" y="602" type="line"/>
      <point x="54" y="577" type="line"/>
      <point x="162" y="468" type="line"/>
      <point x="136" y="437"/>
      <point x="119" y="395"/>
      <point x="119" y="348" type="curve" smooth="yes"/>
      <point x="119" y="302"/>
      <point x="136" y="260"/>
      <point x="161" y="231" type="curve"/>
      <point x="54" y="120" type="line"/>
    </contour>
    <contour>
      <point x="305" y="203" type="curve" smooth="yes"/>
      <point x="218" y="203"/>
      <point x="156" y="265"/>
      <point x="156" y="349" type="curve" smooth="yes"/>
      <point x="156" y="435"/>
      <point x="219" y="496"/>
      <point x="305" y="496" type="curve" smooth="yes"/>
      <point x="390" y="496"/>
      <point x="453" y="435"/>
      <point x="453" y="349" type="curve" smooth="yes"/>
      <point x="453" y="265"/>
      <point x="391" y="203"/>
    </contour>
  </outline>
</glyph>
<glyph name="yen" format="2">
  <advance width="630"/>
  <unicode hex="00A5"/>
  <outline>
    <contour>
      <point x="298" y="0" type="line"/>
      <point x="334" y="0" type="line"/>
      <point x="334" y="159" type="line"/>
      <point x="522" y="159" type="line"/>
      <point x="522" y="192" type="line"/>
      <point x="334" y="192" type="line"/>
      <point x="334" y="311" type="line"/>
      <point x="522" y="311" type="line"/>
      <point x="522" y="344" type="line"/>
      <point x="354" y="344" type="line"/>
      <point x="584" y="729" type="line"/>
      <point x="543" y="729" type="line"/>
      <point x="317" y="346" type="line"/>
      <point x="314" y="346" type="line"/>
      <point x="87" y="729" type="line"/>
      <point x="46" y="729" type="line"/>
      <point x="278" y="344" type="line"/>
      <point x="107" y="344" type="line"/>
      <point x="107" y="311" type="line"/>
      <point x="298" y="311" type="line"/>
      <point x="298" y="192" type="line"/>
      <point x="107" y="192" type="line"/>
      <point x="107" y="159" type="line"/>
      <point x="298" y="159" type="line"/>
    </contour>
  </outline>
</glyph>
<glyph name="brokenbar" format="2">
  <advance width="258"/>
  <unicode hex="00A6"/>
  <outline>
    <contour>
      <point x="111" y="417" type="line"/>
      <point x="147" y="417" type="line"/>
      <point x="147" y="729" type="line"/>
      <point x="111" y="729" type="line"/>
    </contour>
    <contour>
      <point x="111" y="-67" type="line"/>
      <point x="147" y="-67" type="line"/>
      <point x="147" y="245" type="line"/>
      <point x="111" y="245" type="line"/>
    </contour>
  </outline>
</glyph>
<glyph name="section" format="2">
  <advance width="551"/>
  <unicode hex="00A7"/>
  <outline>
    <contour>
      <point x="267" y="-10" type="curve" smooth="yes"/>
      <point x="383" y="-10"/>
      <point x="460" y="42"/>
      <point x="460" y="135" type="curve" smooth="yes"/>
      <point x="460" y="184"/>
      <point x="443" y="216"/>
      <point x="414" y="237" type="curve"/>
      <point x="449" y="262"/>
      <point x="470" y="299"/>
      <point x="470" y="347" type="curve" smooth="yes"/>
      <point x="470" y="451"/>
      <point x="397" y="478"/>
      <point x="295" y="493" type="curve" smooth="yes"/>
      <point x="188" y="508"/>
      <point x="138" y="532"/>
      <point x="138" y="601" type="curve" smooth="yes"/>
      <point x="138" y="664"/>
      <point x="191" y="706"/>
      <point x="285" y="706" type="curve" smooth="yes"/>
      <point x="371" y="706"/>
      <point x="429" y="672"/>
      <point x="434" y="585" type="curve"/>
      <point x="470" y="585" type="line"/>
      <point x="467" y="681"/>
      <point x="400" y="739"/>
      <point x="284" y="739" type="curve" smooth="yes"/>
      <point x="174" y="739"/>
      <point x="101" y="682"/>
      <point x="101" y="597" type="curve" smooth="yes"/>
      <point x="101" y="549"/>
      <point x="119" y="518"/>
      <point x="154" y="496" type="curve"/>
      <point x="116" y="471"/>
      <point x="91" y="429"/>
      <point x="91" y="385" type="curve" smooth="yes"/>
      <point x="91" y="293"/>
      <point x="152" y="263"/>
      <point x="269" y="246" type="curve" smooth="yes"/>
      <point x="377" y="230"/>
      <point x="422" y="207"/>
      <point x="422" y="132" type="curve" smooth="yes"/>
      <point x="422" y="62"/>
      <point x="367" y="23"/>
      <point x="268" y="23" type="curve" smooth="yes"/>
      <point x="173" y="23"/>
      <point x="109" y="63"/>
      <point x="103" y="149" type="curve"/>
      <point x="66" y="149" type="line"/>
      <point x="71" y="53"/>
      <point x="143" y="-10"/>
    </contour>
    <contour>
      <point x="386" y="253" type="curve"/>
      <point x="356" y="267"/>
      <point x="318" y="275"/>
      <point x="275" y="281" type="curve" smooth="yes"/>
      <point x="175" y="295"/>
      <point x="128" y="320"/>
      <point x="128" y="389" type="curve" smooth="yes"/>
      <point x="128" y="426"/>
      <point x="150" y="458"/>
      <point x="186" y="482" type="curve"/>
      <point x="213" y="471"/>
      <point x="248" y="464"/>
      <point x="289" y="458" type="curve" smooth="yes"/>
      <point x="390" y="443"/>
      <point x="432" y="419"/>
      <point x="432" y="344" type="curve" smooth="yes"/>
      <point x="432" y="306"/>
      <point x="416" y="278"/>
    </contour>
  </outline>
</glyph>
<glyph name="ordfeminine" format="2">
  <advance width="449"/>
  <unicode hex="00AA"/>
  <outline>
    <contour>
      <point x="202" y="386" type="curve" smooth="yes"/>
      <point x="260" y="386"/>
      <point x="308" y="415"/>
      <point x="327" y="467" type="curve"/>
      <point x="329" y="467" type="line"/>
      <point x="329" y="391" type="line"/>
      <point x="364" y="391" type="line"/>
      <point x="364" y="729" type="line"/>
      <point x="331" y="729" type="line"/>
      <point x="329" y="654" type="line"/>
      <point x="327" y="654" type="line"/>
      <point x="309" y="703"/>
      <point x="264" y="735"/>
      <point x="202" y="735" type="curve" smooth="yes"/>
      <point x="118" y="735"/>
      <point x="61" y="670"/>
      <point x="61" y="560" type="curve" smooth="yes"/>
      <point x="61" y="451"/>
      <point x="118" y="386"/>
    </contour>
    <contour>
      <point x="212" y="416" type="curve" smooth="yes"/>
      <point x="143" y="416"/>
      <point x="97" y="469"/>
      <point x="97" y="560" type="curve" smooth="yes"/>
      <point x="97" y="653"/>
      <point x="143" y="705"/>
      <point x="212" y="705" type="curve" smooth="yes"/>
      <point x="286" y="705"/>
      <point x="328" y="645"/>
      <point x="328" y="583" type="curve" smooth="yes"/>
      <point x="328" y="538" type="line" smooth="yes"/>
      <point x="328" y="476"/>
      <point x="286" y="416"/>
    </contour>
  </outline>
</glyph>
<glyph name="guillemetleft" format="2">
  <advance width="402"/>
  <unicode hex="00AB"/>
  <outline>
    <contour>
      <point x="172" y="80" type="line"/>
      <point x="205" y="80" type="line"/>
      <point x="92" y="299" type="line"/>
      <point x="205" y="517" type="line"/>
      <point x="172" y="517" type="line"/>
      <point x="52" y="299" type="line"/>
    </contour>
    <contour>
      <point x="317" y="80" type="line"/>
      <point x="350" y="80" type="line"/>
      <point x="237" y="299" type="line"/>
      <point x="350" y="517" type="line"/>
      <point x="317" y="517" type="line"/>
      <point x="197" y="299" type="line"/>
    </contour>
  </outline>
</glyph>
<glyph name="logicalnot" format="2">
  <advance width="600"/>
  <unicode hex="00AC"/>
  <outline>
    <contour>
      <point x="480" y="153" type="line"/>
      <point x="512" y="153" type="line"/>
      <point x="512" y="397" type="line"/>
      <point x="37" y="397" type="line"/>
      <point x="37" y="365" type="line"/>
      <point x="480" y="365" type="line"/>
    </contour>
  </outline>
</glyph>
<glyph name="registered" format="2">
  <advance width="659"/>
  <unicode hex="00AE"/>
  <outline>
    <contour>
      <point x="328" y="231" type="curve" smooth="yes"/>
      <point x="474" y="231"/>
      <point x="585" y="337"/>
      <point x="585" y="485" type="curve" smooth="yes"/>
      <point x="585" y="633"/>
      <point x="474" y="738"/>
      <point x="328" y="738" type="curve" smooth="yes"/>
      <point x="185" y="738"/>
      <point x="75" y="633"/>
      <point x="75" y="485" type="curve" smooth="yes"/>
      <point x="75" y="336"/>
      <point x="184" y="231"/>
    </contour>
    <contour>
      <point x="330" y="259" type="curve" smooth="yes"/>
      <point x="204" y="259"/>
      <point x="106" y="353"/>
      <point x="106" y="484" type="curve" smooth="yes"/>
      <point x="106" y="615"/>
      <point x="203" y="711"/>
      <point x="330" y="711" type="curve" smooth="yes"/>
      <point x="456" y="711"/>
      <point x="555" y="616"/>
      <point x="555" y="484" type="curve" smooth="yes"/>
      <point x="555" y="353"/>
      <point x="457" y="259"/>
    </contour>
    <contour>
      <point x="235" y="349" type="line"/>
      <point x="262" y="349" type="line"/>
      <point x="262" y="594" type="line"/>
      <point x="350" y="594" type="line" smooth="yes"/>
      <point x="387" y="594"/>
      <point x="412" y="579"/>
      <point x="412" y="546" type="curve" smooth="yes"/>
      <point x="412" y="514"/>
      <point x="390" y="493"/>
      <point x="350" y="493" type="curve" smooth="yes"/>
      <point x="255" y="493" type="line"/>
      <point x="255" y="467" type="line"/>
      <point x="365" y="467" type="line" smooth="yes"/>
      <point x="399" y="467"/>
      <point x="407" y="451"/>
      <point x="407" y="429" type="curve" smooth="yes"/>
      <point x="407" y="379" type="line" smooth="yes"/>
      <point x="407" y="358"/>
      <point x="407" y="355"/>
      <point x="412" y="349" type="curve"/>
      <point x="437" y="349" type="line"/>
      <point x="434" y="358"/>
      <point x="434" y="371"/>
      <point x="434" y="375" type="curve" smooth="yes"/>
      <point x="434" y="426" type="line" smooth="yes"/>
      <point x="434" y="456"/>
      <point x="421" y="475"/>
      <point x="392" y="482" type="curve"/>
      <point x="392" y="483" type="line"/>
      <point x="420" y="491"/>
      <point x="440" y="514"/>
      <point x="440" y="548" type="curve" smooth="yes"/>
      <point x="440" y="593"/>
      <point x="409" y="621"/>
      <point x="351" y="621" type="curve" smooth="yes"/>
      <point x="235" y="621" type="line"/>
    </contour>
  </outline>
</glyph>
<glyph name="degree" format="2">
  <advance width="473"/>
  <unicode hex="00B0"/>
  <outline>
    <contour>
      <point x="236" y="443" type="curve" smooth="yes"/>
      <point x="322" y="443"/>
      <point x="389" y="503"/>
      <point x="389" y="590" type="curve" smooth="yes"/>
      <point x="389" y="678"/>
      <point x="322" y="737"/>
      <point x="236" y="737" type="curve" smooth="yes"/>
      <point x="151" y="737"/>
      <point x="84" y="678"/>
      <point x="84" y="590" type="curve" smooth="yes"/>
      <point x="84" y="503"/>
      <point x="151" y="443"/>
    </contour>
    <contour>
      <point x="236" y="478" type="curve" smooth="yes"/>
      <point x="171" y="478"/>
      <point x="121" y="524"/>
      <point x="121" y="590" type="curve" smooth="yes"/>
      <point x="121" y="656"/>
      <point x="171" y="702"/>
      <point x="236" y="702" type="curve" smooth="yes"/>
      <point x="302" y="702"/>
      <point x="352" y="656"/>
      <point x="352" y="590" type="curve" smooth="yes"/>
      <point x="352" y="524"/>
      <point x="302" y="478"/>
    </contour>
  </outline>
</glyph>
<glyph name="plusminus" format="2">
  <advance width="600"/>
  <unicode hex="00B1"/>
  <outline>
    <contour>
      <point x="283" y="162" type="line"/>
      <point x="317" y="162" type="line"/>
      <point x="317" y="365" type="line"/>
      <point x="539" y="365" type="line"/>
      <point x="539" y="397" type="line"/>
      <point x="317" y="397" type="line"/>
      <point x="317" y="600" type="line"/>
      <point x="283" y="600" type="line"/>
      <point x="283" y="397" type="line"/>
      <point x="61" y="397" type="line"/>
      <point x="61" y="365" type="line"/>
      <point x="283" y="365" type="line"/>
    </contour>
    <contour>
      <point x="61" y="0" type="line"/>
      <point x="539" y="0" type="line"/>
      <point x="539" y="32" type="line"/>
      <point x="61" y="32" type="line"/>
    </contour>
  </outline>
</glyph>
<glyph name="paragraph" format="2">
  <advance width="595"/>
  <unicode hex="00B6"/>
  <outline>
    <contour>
      <point x="239" y="0" type="line"/>
      <point x="277" y="0" type="line"/>
      <point x="277" y="693" type="line"/>
      <point x="402" y="693" type="line"/>
      <point x="402" y="0" type="line"/>
      <point x="440" y="0" type="line"/>
      <point x="440" y="693" type="line"/>
      <point x="550" y="693" type="line"/>
      <point x="550" y="729" type="line"/>
      <point x="239" y="729" type="line" smooth="yes"/>
      <point x="128" y="729"/>
      <point x="58" y="672"/>
      <point x="58" y="571" type="curve" smooth="yes"/>
      <point x="58" y="471"/>
      <point x="123" y="405"/>
      <point x="239" y="406" type="curve"/>
    </contour>
  </outline>
</glyph>
<glyph name="periodcentered" format="2">
  <advance width="195"/>
  <unicode hex="00B7"/>
  <outline>
    <contour>
      <point x="98" y="232" type="curve" smooth="yes"/>
      <point x="126" y="232"/>
      <point x="143" y="251"/>
      <point x="143" y="277" type="curve" smooth="yes"/>
      <point x="143" y="303"/>
      <point x="126" y="322"/>
      <point x="98" y="322" type="curve" smooth="yes"/>
      <point x="71" y="322"/>
      <point x="52" y="303"/>
      <point x="52" y="277" type="curve" smooth="yes"/>
      <point x="52" y="251"/>
      <point x="71" y="232"/>
    </contour>
  </outline>
</glyph>
<glyph name="ordmasculine" format="2">
  <advance width="436"/>
  <unicode hex="00BA"/>
  <anchor x="218" y="392" name="bottom"/>
  <anchor x="218" y="561" name="center"/>
  <anchor x="374" y="399" name="ogonek"/>
  <anchor x="218" y="730" name="top"/>
  <anchor x="400" y="730" name="topright"/>
  <outline>
    <contour>
      <point x="219" y="386" type="curve" smooth="yes"/>
      <point x="315" y="386"/>
      <point x="378" y="457"/>
      <point x="378" y="560" type="curve" smooth="yes"/>
      <point x="378" y="665"/>
      <point x="314" y="734"/>
      <point x="219" y="734" type="curve" smooth="yes"/>
      <point x="122" y="734"/>
      <point x="58" y="662"/>
      <point x="58" y="559" type="curve" smooth="yes"/>
      <point x="58" y="455"/>
      <point x="123" y="386"/>
    </contour>
    <contour>
      <point x="219" y="417" type="curve" smooth="yes"/>
      <point x="142" y="417"/>
      <point x="94" y="473"/>
      <point x="94" y="559" type="curve" smooth="yes"/>
      <point x="94" y="648"/>
      <point x="144" y="703"/>
      <point x="219" y="703" type="curve" smooth="yes"/>
      <point x="295" y="703"/>
      <point x="343" y="647"/>
      <point x="343" y="560" type="curve" smooth="yes"/>
      <point x="343" y="472"/>
      <point x="293" y="417"/>
    </contour>
  </outline>
</glyph>
<glyph name="AE" format="2">
  <advance width="912"/>
  <unicode hex="00C6"/>
  <anchor x="456" y="0" name="bottom"/>
  <anchor x="456" y="729" name="top"/>
  <outline>
    <contour>
      <point x="31" y="0" type="line"/>
      <point x="72" y="0" type="line"/>
      <point x="148" y="199" type="line"/>
      <point x="531" y="199" type="line"/>
      <point x="607" y="0" type="line"/>
      <point x="875" y="0" type="line"/>
      <point x="875" y="37" type="line"/>
      <point x="633" y="37" type="line"/>
      <point x="509.005" y="358" type="line"/>
      <point x="827" y="358" type="line"/>
      <point x="827" y="392" type="line"/>
      <point x="496" y="392" type="line"/>
      <point x="380" y="693" type="line"/>
      <point x="875" y="693" type="line"/>
      <point x="875" y="729" type="line"/>
      <point x="313" y="729" type="line"/>
    </contour>
    <contour>
      <point x="162" y="235" type="line"/>
      <point x="303" y="605" type="line"/>
      <point x="337" y="696" type="line"/>
      <point x="343" y="696" type="line"/>
      <point x="377" y="605" type="line"/>
      <point x="518" y="235" type="line"/>
    </contour>
  </outline>
</glyph>
<glyph name="multiply" format="2">
  <advance width="600"/>
  <unicode hex="00D7"/>
  <outline>
    <contour>
      <point x="129" y="166" type="line"/>
      <point x="300" y="337" type="line"/>
      <point x="471" y="166" type="line"/>
      <point x="495" y="190" type="line"/>
      <point x="324" y="361" type="line"/>
      <point x="495" y="532" type="line"/>
      <point x="471" y="556" type="line"/>
      <point x="300" y="385" type="line"/>
      <point x="129" y="556" type="line"/>
      <point x="105" y="532" type="line"/>
      <point x="276" y="361" type="line"/>
      <point x="105" y="190" type="line"/>
    </contour>
  </outline>
</glyph>
<glyph name="germandbls" format="2">
  <advance width="636"/>
  <unicode hex="00DF"/>
  <outline>
    <contour>
      <point x="131" y="0" type="line"/>
      <point x="168" y="0" type="line"/>
      <point x="168" y="516" type="line" smooth="yes"/>
      <point x="168" y="634"/>
      <point x="229" y="704"/>
      <point x="340" y="704" type="curve" smooth="yes"/>
      <point x="443" y="704"/>
      <point x="506" y="648"/>
      <point x="506" y="555" type="curve" smooth="yes"/>
      <point x="506" y="467"/>
      <point x="450" y="411"/>
      <point x="348" y="411" type="curve" smooth="yes"/>
      <point x="302" y="411" type="line"/>
      <point x="302" y="378" type="line"/>
      <point x="379" y="378" type="line" smooth="yes"/>
      <point x="490" y="378"/>
      <point x="553" y="312"/>
      <point x="553" y="214" type="curve" smooth="yes"/>
      <point x="553" y="94"/>
      <point x="480" y="34"/>
      <point x="350" y="34" type="curve" smooth="yes"/>
      <point x="260" y="34" type="line"/>
      <point x="260" y="0" type="line"/>
      <point x="353" y="0" type="line" smooth="yes"/>
      <point x="506" y="0"/>
      <point x="590" y="83"/>
      <point x="590" y="213" type="curve" smooth="yes"/>
      <point x="590" y="314"/>
      <point x="523" y="388"/>
      <point x="433" y="399" type="curve"/>
      <point x="433" y="404" type="line"/>
      <point x="507" y="429"/>
      <point x="541" y="490"/>
      <point x="541" y="560" type="curve" smooth="yes"/>
      <point x="541" y="667"/>
      <point x="466" y="739"/>
      <point x="340" y="739" type="curve" smooth="yes"/>
      <point x="221" y="739"/>
      <point x="131" y="666"/>
      <point x="131" y="521" type="curve" smooth="yes"/>
    </contour>
    <contour>
      <point x="23" y="483" type="line"/>
      <point x="144" y="483" type="line"/>
      <point x="144" y="517" type="line"/>
      <point x="23" y="517" type="line"/>
    </contour>
  </outline>
</glyph>
<glyph name="ae" format="2">
  <advance width="913"/>
  <unicode hex="00E6"/>
  <outline>
    <contour>
      <point x="212" y="-9" type="curve" smooth="yes"/>
      <point x="312" y="-9"/>
      <point x="395" y="49"/>
      <point x="419" y="129" type="curve"/>
      <point x="422" y="129" type="line"/>
      <point x="461" y="41"/>
      <point x="536" y="-8"/>
      <point x="636" y="-8" type="curve" smooth="yes"/>
      <point x="746" y="-8"/>
      <point x="834" y="53"/>
      <point x="853" y="147" type="curve"/>
      <point x="815" y="147" type="line"/>
      <point x="796" y="74"/>
      <point x="731" y="26"/>
      <point x="636" y="26" type="curve" smooth="yes"/>
      <point x="514" y="26"/>
      <point x="436" y="114"/>
      <point x="436" y="267" type="curve" smooth="yes"/>
      <point x="436" y="280" type="line" smooth="yes"/>
      <point x="436" y="411"/>
      <point x="518" y="491"/>
      <point x="633" y="491" type="curve" smooth="yes"/>
      <point x="743" y="491"/>
      <point x="818" y="427"/>
      <point x="820" y="293" type="curve"/>
      <point x="428" y="293" type="line"/>
      <point x="428" y="260" type="line"/>
      <point x="858" y="260" type="line"/>
      <point x="867" y="412"/>
      <point x="791" y="525"/>
      <point x="634" y="525" type="curve" smooth="yes"/>
      <point x="544" y="525"/>
      <point x="472" y="484"/>
      <point x="433" y="415" type="curve"/>
      <point x="428" y="415" type="line"/>
      <point x="408" y="482"/>
      <point x="351" y="527"/>
      <point x="258" y="527" type="curve" smooth="yes"/>
      <point x="148" y="527"/>
      <point x="70" y="469"/>
      <point x="66" y="383" type="curve"/>
      <point x="104" y="383" type="line"/>
      <point x="107" y="449"/>
      <point x="168" y="493"/>
      <point x="258" y="493" type="curve" smooth="yes"/>
      <point x="343" y="493"/>
      <point x="400" y="450"/>
      <point x="400" y="340" type="curve" smooth="yes"/>
      <point x="400" y="194" type="line" smooth="yes"/>
      <point x="400" y="68"/>
      <point x="299" y="23"/>
      <point x="215" y="23" type="curve" smooth="yes"/>
      <point x="133" y="23"/>
      <point x="87" y="68"/>
      <point x="87" y="138" type="curve" smooth="yes"/>
      <point x="87" y="229"/>
      <point x="162" y="261"/>
      <point x="266" y="261" type="curve" smooth="yes"/>
      <point x="414" y="261" type="line"/>
      <point x="414" y="294" type="line"/>
      <point x="270" y="294" type="line" smooth="yes"/>
      <point x="151" y="294"/>
      <point x="49" y="254"/>
      <point x="49" y="137" type="curve" smooth="yes"/>
      <point x="49" y="50"/>
      <point x="110" y="-9"/>
    </contour>
  </outline>
</glyph>
<glyph name="eth" format="2">
  <advance width="549"/>
  <unicode hex="00F0"/>
  <outline>
    <contour>
      <point x="272" y="-9" type="curve" smooth="yes"/>
      <point x="410" y="-9"/>
      <point x="497" y="88"/>
      <point x="497" y="243" type="curve" smooth="yes"/>
      <point x="497" y="423"/>
      <point x="383" y="597"/>
      <point x="276" y="729" type="curve"/>
      <point x="233" y="729" type="line"/>
      <point x="310" y="640"/>
      <point x="393" y="521"/>
      <point x="440" y="402" type="curve"/>
      <point x="438" y="402" type="line"/>
      <point x="403" y="472"/>
      <point x="343" y="506"/>
      <point x="267" y="506" type="curve" smooth="yes"/>
      <point x="135" y="506"/>
      <point x="52" y="408"/>
      <point x="52" y="251" type="curve" smooth="yes"/>
      <point x="52" y="91"/>
      <point x="137" y="-9"/>
    </contour>
    <contour>
      <point x="273" y="25" type="curve" smooth="yes"/>
      <point x="158" y="25"/>
      <point x="90" y="109"/>
      <point x="90" y="251" type="curve" smooth="yes"/>
      <point x="90" y="391"/>
      <point x="157" y="473"/>
      <point x="271" y="473" type="curve" smooth="yes"/>
      <point x="389" y="473"/>
      <point x="459" y="388"/>
      <point x="459" y="243" type="curve" smooth="yes"/>
      <point x="459" y="106"/>
      <point x="390" y="25"/>
    </contour>
    <contour>
      <point x="171" y="563" type="line"/>
      <point x="462" y="635" type="line"/>
      <point x="462" y="663" type="line"/>
      <point x="171" y="591" type="line"/>
    </contour>
  </outline>
</glyph>
<glyph name="divide" format="2">
  <advance width="600"/>
  <unicode hex="00F7"/>
  <outline>
    <contour>
      <point x="61" y="345" type="line"/>
      <point x="539" y="345" type="line"/>
      <point x="539" y="377" type="line"/>
      <point x="61" y="377" type="line"/>
    </contour>
    <contour>
      <point x="278" y="184" type="line"/>
      <point x="323" y="184" type="line"/>
      <point x="323" y="245" type="line"/>
      <point x="278" y="245" type="line"/>
    </contour>
    <contour>
      <point x="278" y="477" type="line"/>
      <point x="323" y="477" type="line"/>
      <point x="323" y="538" type="line"/>
      <point x="278" y="538" type="line"/>
    </contour>
  </outline>
</glyph>
<glyph name="idotless" format="2">
  <advance width="207"/>
  <unicode hex="0131"/>
  <anchor x="104" y="0" name="bottom"/>
  <anchor x="122" y="0" name="ogonek"/>
  <anchor x="104" y="517" name="top"/>
  <outline>
    <contour>
      <point x="85" y="0" type="line"/>
      <point x="122" y="0" type="line"/>
      <point x="122" y="517" type="line"/>
      <point x="85" y="517" type="line"/>
    </contour>
  </outline>
</glyph>
<glyph name="Eng" format="2">
  <advance width="764"/>
  <unicode hex="014A"/>
  <outline>
    <contour>
      <point x="94" y="0" type="line"/>
      <point x="132" y="0" type="line"/>
      <point x="132" y="436" type="line"/>
      <point x="129" y="686" type="line"/>
      <point x="134" y="686" type="line"/>
      <point x="615" y="0" type="line"/>
      <point x="670" y="0" type="line"/>
      <point x="670" y="729" type="line"/>
      <point x="632" y="729" type="line"/>
      <point x="632" y="303" type="line"/>
      <point x="636" y="43" type="line"/>
      <point x="631" y="43" type="line"/>
      <point x="149" y="729" type="line"/>
      <point x="94" y="729" type="line"/>
    </contour>
    <contour>
      <point x="523" y="-167" type="line"/>
      <point x="580" y="-167" type="line" smooth="yes"/>
      <point x="641" y="-167"/>
      <point x="670" y="-128"/>
      <point x="670" y="-70" type="curve" smooth="yes"/>
      <point x="670" y="0" type="line"/>
      <point x="633" y="0" type="line"/>
      <point x="633" y="-60" type="line" smooth="yes"/>
      <point x="633" y="-113"/>
      <point x="615" y="-133"/>
      <point x="569" y="-133" type="curve" smooth="yes"/>
      <point x="523" y="-133" type="line"/>
    </contour>
  </outline>
</glyph>
<glyph name="eng" format="2">
  <advance width="581"/>
  <unicode hex="014B"/>
  <outline>
    <contour>
      <point x="359" y="-167" type="line"/>
      <point x="416" y="-167" type="line" smooth="yes"/>
      <point x="477" y="-167"/>
      <point x="506" y="-128"/>
      <point x="506" y="-70" type="curve" smooth="yes"/>
      <point x="506" y="300" type="line" smooth="yes"/>
      <point x="506" y="462"/>
      <point x="427" y="525"/>
      <point x="318" y="525" type="curve" smooth="yes"/>
      <point x="235" y="525"/>
      <point x="160" y="482"/>
      <point x="125" y="400" type="curve"/>
      <point x="121" y="400" type="line"/>
      <point x="119" y="517" type="line"/>
      <point x="85" y="517" type="line"/>
      <point x="85" y="0" type="line"/>
      <point x="121" y="0" type="line"/>
      <point x="121" y="274" type="line" smooth="yes"/>
      <point x="121" y="401"/>
      <point x="198" y="491"/>
      <point x="313" y="491" type="curve" smooth="yes"/>
      <point x="418" y="491"/>
      <point x="469" y="430"/>
      <point x="469" y="294" type="curve" smooth="yes"/>
      <point x="469" y="-60" type="line" smooth="yes"/>
      <point x="469" y="-113"/>
      <point x="451" y="-133"/>
      <point x="405" y="-133" type="curve" smooth="yes"/>
      <point x="359" y="-133" type="line"/>
    </contour>
  </outline>
</glyph>
<glyph name="OE" format="2">
  <advance width="1042"/>
  <unicode hex="0152"/>
  <anchor x="521" y="0" name="bottom"/>
  <anchor x="521" y="729" name="top"/>
  <outline>
    <contour>
      <point x="415" y="-10" type="curve" smooth="yes"/>
      <point x="445" y="-10"/>
      <point x="484" y="-6"/>
      <point x="520" y="0" type="curve"/>
      <point x="1005" y="0" type="line"/>
      <point x="1005" y="37" type="line"/>
      <point x="562" y="37" type="line"/>
      <point x="562" y="358" type="line"/>
      <point x="957" y="358" type="line"/>
      <point x="957" y="392" type="line"/>
      <point x="562" y="392" type="line"/>
      <point x="562" y="693" type="line"/>
      <point x="1005" y="693" type="line"/>
      <point x="1005" y="729" type="line"/>
      <point x="520" y="729" type="line"/>
      <point x="484" y="735"/>
      <point x="445" y="739"/>
      <point x="415" y="739" type="curve" smooth="yes"/>
      <point x="186" y="739"/>
      <point x="55" y="587"/>
      <point x="55" y="365" type="curve" smooth="yes"/>
      <point x="55" y="142"/>
      <point x="186" y="-10"/>
    </contour>
    <contour>
      <point x="415" y="26" type="curve" smooth="yes"/>
      <point x="214" y="26"/>
      <point x="96" y="163"/>
      <point x="96" y="365" type="curve" smooth="yes"/>
      <point x="96" y="566"/>
      <point x="214" y="703"/>
      <point x="415" y="703" type="curve" smooth="yes"/>
      <point x="452" y="703"/>
      <point x="495" y="698"/>
      <point x="524" y="691" type="curve"/>
      <point x="524" y="38" type="line"/>
      <point x="495" y="31"/>
      <point x="452" y="26"/>
    </contour>
  </outline>
</glyph>
<glyph name="oe" format="2">
  <advance width="1012"/>
  <unicode hex="0153"/>
  <anchor x="505" y="0" name="bottom"/>
  <anchor x="505" y="517" name="top"/>
  <outline>
    <contour>
      <point x="296" y="-8" type="curve" smooth="yes"/>
      <point x="410" y="-8"/>
      <point x="494" y="60"/>
      <point x="525" y="165" type="curve"/>
      <point x="512" y="166" type="line"/>
      <point x="540" y="59"/>
      <point x="622" y="-8"/>
      <point x="737" y="-8" type="curve" smooth="yes"/>
      <point x="849" y="-8"/>
      <point x="938" y="55"/>
      <point x="955" y="152" type="curve"/>
      <point x="917" y="152" type="line"/>
      <point x="900" y="76"/>
      <point x="834" y="26"/>
      <point x="737" y="26" type="curve" smooth="yes"/>
      <point x="615" y="26"/>
      <point x="537" y="114"/>
      <point x="537" y="267" type="curve" smooth="yes"/>
      <point x="537" y="270" type="line" smooth="yes"/>
      <point x="537" y="411"/>
      <point x="618" y="491"/>
      <point x="734" y="491" type="curve" smooth="yes"/>
      <point x="852" y="491"/>
      <point x="930" y="417"/>
      <point x="920" y="261" type="curve"/>
      <point x="952" y="289" type="line"/>
      <point x="530" y="289" type="line"/>
      <point x="529" y="256" type="line"/>
      <point x="956" y="256" type="line"/>
      <point x="970" y="410"/>
      <point x="893" y="525"/>
      <point x="735" y="525" type="curve" smooth="yes"/>
      <point x="619" y="525"/>
      <point x="539" y="457"/>
      <point x="512" y="351" type="curve"/>
      <point x="525" y="352" type="line"/>
      <point x="494" y="457"/>
      <point x="410" y="525"/>
      <point x="296" y="525" type="curve" smooth="yes"/>
      <point x="150" y="525"/>
      <point x="52" y="415"/>
      <point x="52" y="257" type="curve" smooth="yes"/>
      <point x="52" y="100"/>
      <point x="150" y="-8"/>
    </contour>
    <contour>
      <point x="295" y="28" type="curve" smooth="yes"/>
      <point x="169" y="28"/>
      <point x="90" y="120"/>
      <point x="90" y="257" type="curve" smooth="yes"/>
      <point x="90" y="400"/>
      <point x="173" y="490"/>
      <point x="296" y="490" type="curve" smooth="yes"/>
      <point x="422" y="490"/>
      <point x="499" y="397"/>
      <point x="499" y="258" type="curve" smooth="yes"/>
      <point x="499" y="117"/>
      <point x="417" y="28"/>
    </contour>
  </outline>
</glyph>
<glyph name="florin" format="2">
  <advance width="407"/>
  <unicode hex="0192"/>
  <outline>
    <contour>
      <point x="45" y="-167" type="line"/>
      <point x="82" y="-167" type="line" smooth="yes"/>
      <point x="168" y="-167"/>
      <point x="222" y="-120"/>
      <point x="222" y="-23" type="curve" smooth="yes"/>
      <point x="222" y="581" type="line" smooth="yes"/>
      <point x="222" y="662"/>
      <point x="253" y="695"/>
      <point x="333" y="695" type="curve" smooth="yes"/>
      <point x="362" y="695" type="line"/>
      <point x="362" y="729" type="line"/>
      <point x="325" y="729" type="line" smooth="yes"/>
      <point x="239" y="729"/>
      <point x="185" y="682"/>
      <point x="185" y="585" type="curve" smooth="yes"/>
      <point x="185" y="-19" type="line" smooth="yes"/>
      <point x="185" y="-100"/>
      <point x="154" y="-133"/>
      <point x="74" y="-133" type="curve" smooth="yes"/>
      <point x="45" y="-133" type="line"/>
    </contour>
    <contour>
      <point x="85" y="384" type="line"/>
      <point x="323" y="384" type="line"/>
      <point x="323" y="418" type="line"/>
      <point x="85" y="418" type="line"/>
    </contour>
  </outline>
</glyph>
<glyph name="jdotless" format="2">
  <advance width="207"/>
  <unicode hex="0237"/>
  <anchor x="151" y="-250" name="bottom"/>
  <anchor x="104" y="517" name="top"/>
  <outline>
    <contour>
      <point x="-25" y="-167" type="line"/>
      <point x="32" y="-167" type="line" smooth="yes"/>
      <point x="93" y="-167"/>
      <point x="122" y="-128"/>
      <point x="122" y="-70" type="curve" smooth="yes"/>
      <point x="122" y="517" type="line"/>
      <point x="85" y="517" type="line"/>
      <point x="85" y="-60" type="line" smooth="yes"/>
      <point x="85" y="-113"/>
      <point x="67" y="-133"/>
      <point x="21" y="-133" type="curve" smooth="yes"/>
      <point x="-25" y="-133" type="line"/>
    </contour>
  </outline>
</glyph>
<glyph name="gravecomb" format="2">
  <unicode hex="0300"/>
  <anchor x="134" y="672" name="_top"/>
  <outline>
    <contour>
      <point x="118" y="746" type="line"/>
      <point x="149" y="746" type="line"/>
      <point x="81" y="882" type="line"/>
      <point x="40" y="882" type="line"/>
    </contour>
  </outline>
</glyph>
<glyph name="acutecomb" format="2">
  <unicode hex="0301"/>
  <anchor x="55" y="672" name="_top"/>
  <outline>
    <contour>
      <point x="40" y="746" type="line"/>
      <point x="71" y="746" type="line"/>
      <point x="149" y="882" type="line"/>
      <point x="108" y="882" type="line"/>
    </contour>
  </outline>
</glyph>
<glyph name="circumflexcomb" format="2">
  <unicode hex="0302"/>
  <anchor x="164" y="672" name="_top"/>
  <outline>
    <contour>
      <point x="40" y="746" type="line"/>
      <point x="79" y="746" type="line"/>
      <point x="164" y="858" type="line"/>
      <point x="250" y="746" type="line"/>
      <point x="289" y="746" type="line"/>
      <point x="185" y="882" type="line"/>
      <point x="143" y="882" type="line"/>
    </contour>
  </outline>
</glyph>
<glyph name="tildecomb" format="2">
  <unicode hex="0303"/>
  <anchor x="189" y="672" name="_top"/>
  <outline>
    <contour>
      <point x="254" y="776" type="curve" smooth="yes"/>
      <point x="292" y="776"/>
      <point x="319" y="790"/>
      <point x="343" y="825" type="curve"/>
      <point x="322" y="838" type="line"/>
      <point x="306" y="817"/>
      <point x="284" y="808"/>
      <point x="262" y="808" type="curve" smooth="yes"/>
      <point x="216" y="807"/>
      <point x="167" y="836"/>
      <point x="126" y="836" type="curve" smooth="yes"/>
      <point x="87" y="836"/>
      <point x="65" y="822"/>
      <point x="40" y="786" type="curve"/>
      <point x="60" y="774" type="line"/>
      <point x="77" y="796"/>
      <point x="94" y="803"/>
      <point x="119" y="803" type="curve" smooth="yes"/>
      <point x="162" y="803"/>
      <point x="194" y="776"/>
    </contour>
  </outline>
</glyph>
<glyph name="macroncomb" format="2">
  <unicode hex="0304"/>
  <anchor x="200" y="672" name="_top"/>
  <outline>
    <contour>
      <point x="40" y="780" type="line"/>
      <point x="359" y="780" type="line"/>
      <point x="359" y="813" type="line"/>
      <point x="40" y="813" type="line"/>
    </contour>
  </outline>
</glyph>
<glyph name="brevecomb" format="2">
  <unicode hex="0306"/>
  <anchor x="168" y="678" name="_top"/>
  <outline>
    <contour>
      <point x="168" y="742" type="curve" smooth="yes"/>
      <point x="250" y="742"/>
      <point x="295" y="790"/>
      <point x="296" y="882" type="curve"/>
      <point x="260" y="882" type="line"/>
      <point x="260" y="810"/>
      <point x="228" y="773"/>
      <point x="168" y="773" type="curve" smooth="yes"/>
      <point x="108" y="773"/>
      <point x="76" y="810"/>
      <point x="76" y="882" type="curve"/>
      <point x="40" y="882" type="line"/>
      <point x="41" y="790"/>
      <point x="86" y="742"/>
    </contour>
  </outline>
</glyph>
<glyph name="ringcomb" format="2">
  <unicode hex="030A"/>
  <anchor x="133" y="672" name="_top"/>
  <outline>
    <contour>
      <point x="133" y="721" type="curve" smooth="yes"/>
      <point x="188" y="721"/>
      <point x="226" y="756"/>
      <point x="226" y="810" type="curve" smooth="yes"/>
      <point x="226" y="864"/>
      <point x="188" y="899"/>
      <point x="133" y="899" type="curve" smooth="yes"/>
      <point x="78" y="899"/>
      <point x="40" y="864"/>
      <point x="40" y="810" type="curve" smooth="yes"/>
      <point x="40" y="756"/>
      <point x="78" y="721"/>
    </contour>
    <contour>
      <point x="133" y="749" type="curve" smooth="yes"/>
      <point x="96" y="749"/>
      <point x="72" y="774"/>
      <point x="72" y="810" type="curve" smooth="yes"/>
      <point x="72" y="846"/>
      <point x="96" y="870"/>
      <point x="133" y="870" type="curve" smooth="yes"/>
      <point x="170" y="870"/>
      <point x="194" y="846"/>
      <point x="194" y="810" type="curve" smooth="yes"/>
      <point x="194" y="774"/>
      <point x="170" y="749"/>
    </contour>
  </outline>
</glyph>
<glyph name="hungarumlautcomb" format="2">
  <unicode hex="030B"/>
  <anchor x="121" y="672" name="_top"/>
  <outline>
    <contour>
      <point x="40" y="746" type="line"/>
      <point x="69" y="746" type="line"/>
      <point x="147" y="882" type="line"/>
      <point x="106" y="882" type="line"/>
    </contour>
    <contour>
      <point x="173" y="746" type="line"/>
      <point x="204" y="746" type="line"/>
      <point x="282" y="882" type="line"/>
      <point x="241" y="882" type="line"/>
    </contour>
  </outline>
</glyph>
<glyph name="caroncomb" format="2">
  <unicode hex="030C"/>
  <anchor x="164" y="672" name="_top"/>
  <outline>
    <contour>
      <point x="143" y="746" type="line"/>
      <point x="185" y="746" type="line"/>
      <point x="289" y="882" type="line"/>
      <point x="249" y="882" type="line"/>
      <point x="164" y="770" type="line"/>
      <point x="79" y="882" type="line"/>
      <point x="40" y="882" type="line"/>
    </contour>
  </outline>
</glyph>
<glyph name="commaturnedabovecomb" format="2">
  <unicode hex="0312"/>
  <anchor x="56" y="672" name="_top"/>
  <outline>
    <contour>
      <point x="40" y="746" type="line"/>
      <point x="71" y="746" type="line"/>
      <point x="71" y="777" type="line" smooth="yes"/>
      <point x="71" y="823"/>
      <point x="95" y="857"/>
      <point x="129" y="882" type="curve"/>
      <point x="113" y="901" type="line"/>
      <point x="75" y="875"/>
      <point x="40" y="835"/>
      <point x="40" y="777" type="curve" smooth="yes"/>
    </contour>
  </outline>
</glyph>
<glyph name="horncomb" format="2">
  <unicode hex="031B"/>
  <anchor x="40" y="509" name="_topright"/>
  <outline>
    <contour>
      <point x="40" y="480" type="line"/>
      <point x="135" y="480"/>
      <point x="180" y="533"/>
      <point x="170" y="637" type="curve"/>
      <point x="137" y="637" type="line"/>
      <point x="146" y="549"/>
      <point x="116" y="509"/>
      <point x="40" y="509" type="curve"/>
    </contour>
  </outline>
</glyph>
<glyph name="dotbelowcomb" format="2">
  <unicode hex="0323"/>
  <anchor x="72" y="0" name="_bottom"/>
  <outline>
    <contour>
      <point x="72" y="-141" type="curve" smooth="yes"/>
      <point x="91" y="-141"/>
      <point x="104" y="-128"/>
      <point x="104" y="-110" type="curve" smooth="yes"/>
      <point x="104" y="-92"/>
      <point x="91" y="-79"/>
      <point x="72" y="-79" type="curve" smooth="yes"/>
      <point x="53" y="-79"/>
      <point x="40" y="-92"/>
      <point x="40" y="-110" type="curve" smooth="yes"/>
      <point x="40" y="-128"/>
      <point x="53" y="-141"/>
    </contour>
  </outline>
</glyph>
<glyph name="cedillacomb" format="2">
  <unicode hex="0327"/>
  <anchor x="144" y="0" name="_bottom"/>
  <outline>
    <contour>
      <point x="139" y="-233" type="curve" smooth="yes"/>
      <point x="199" y="-234"/>
      <point x="239" y="-199"/>
      <point x="239" y="-149" type="curve" smooth="yes"/>
      <point x="239" y="-101"/>
      <point x="203" y="-67"/>
      <point x="136" y="-52" type="curve"/>
      <point x="164" y="10" type="line"/>
      <point x="132" y="10" type="line"/>
      <point x="99" y="-55" type="line"/>
      <point x="109" y="-76" type="line"/>
      <point x="178" y="-90"/>
      <point x="204" y="-110"/>
      <point x="204" y="-147" type="curve" smooth="yes"/>
      <point x="204" y="-181"/>
      <point x="181" y="-204"/>
      <point x="139" y="-204" type="curve" smooth="yes"/>
      <point x="105" y="-203"/>
      <point x="83" y="-187"/>
      <point x="73" y="-159" type="curve"/>
      <point x="40" y="-169" type="line"/>
      <point x="53" y="-209"/>
      <point x="90" y="-233"/>
    </contour>
  </outline>
</glyph>
<glyph name="ogonekcomb" format="2">
  <unicode hex="0328"/>
  <anchor x="161" y="0" name="_ogonek"/>
  <outline>
    <contour>
      <point x="123" y="-209" type="curve" smooth="yes"/>
      <point x="143" y="-209"/>
      <point x="166" y="-204"/>
      <point x="177" y="-198" type="curve"/>
      <point x="177" y="-170" type="line"/>
      <point x="165" y="-176"/>
      <point x="148" y="-180"/>
      <point x="132" y="-180" type="curve" smooth="yes"/>
      <point x="94" y="-180"/>
      <point x="74" y="-161"/>
      <point x="74" y="-126" type="curve" smooth="yes"/>
      <point x="74" y="-79"/>
      <point x="109" y="-40"/>
      <point x="161" y="0" type="curve"/>
      <point x="151" y="19" type="line"/>
      <point x="143" y="19" type="line"/>
      <point x="78" y="-24"/>
      <point x="40" y="-79"/>
      <point x="40" y="-129" type="curve" smooth="yes"/>
      <point x="40" y="-179"/>
      <point x="72" y="-209"/>
    </contour>
  </outline>
</glyph>
<glyph name="strokeshortcomb" format="2">
  <unicode hex="0335"/>
  <anchor x="192" y="307" name="_center"/>
  <outline>
    <contour>
      <point x="40" y="291" type="line"/>
      <point x="344" y="291" type="line"/>
      <point x="344" y="323" type="line"/>
      <point x="40" y="323" type="line"/>
    </contour>
  </outline>
</glyph>
<glyph name="strokelongcomb" format="2">
  <unicode hex="0336"/>
  <anchor x="427" y="369" name="_center"/>
  <outline>
    <contour>
      <point x="40" y="352" type="line"/>
      <point x="814" y="352" type="line"/>
      <point x="814" y="386" type="line"/>
      <point x="40" y="386" type="line"/>
    </contour>
  </outline>
</glyph>
<glyph name="slashshortcomb" format="2">
  <unicode hex="0337"/>
  <anchor x="134" y="342" name="_center"/>
  <outline>
    <contour>
      <point x="40" y="270" type="line"/>
      <point x="228" y="376" type="line"/>
      <point x="228" y="413" type="line"/>
      <point x="40" y="308" type="line"/>
    </contour>
  </outline>
</glyph>
<glyph name="slashlongcomb" format="2">
  <unicode hex="0338"/>
  <anchor x="295" y="259" name="_center"/>
  <outline>
    <contour>
      <point x="40" y="-60" type="line"/>
      <point x="81" y="-60" type="line"/>
      <point x="549" y="577" type="line"/>
      <point x="509" y="577" type="line"/>
    </contour>
  </outline>
</glyph>
<glyph name="mu" format="2">
  <advance width="590"/>
  <unicode hex="03BC"/>
  <outline>
    <contour>
      <point x="85" y="-132" type="line"/>
      <point x="122" y="-132" type="line"/>
      <point x="122" y="111" type="line"/>
      <point x="117" y="83" type="line"/>
      <point x="137" y="25"/>
      <point x="199" y="-8"/>
      <point x="276" y="-8" type="curve" smooth="yes"/>
      <point x="364" y="-8"/>
      <point x="433" y="33"/>
      <point x="464" y="121" type="curve"/>
      <point x="468" y="121" type="line"/>
      <point x="471" y="0" type="line"/>
      <point x="505" y="0" type="line"/>
      <point x="505" y="517" type="line"/>
      <point x="468" y="517" type="line"/>
      <point x="468" y="249" type="line" smooth="yes"/>
      <point x="468" y="115"/>
      <point x="414" y="26"/>
      <point x="287" y="26" type="curve" smooth="yes"/>
      <point x="183" y="26"/>
      <point x="122" y="83"/>
      <point x="122" y="183" type="curve" smooth="yes"/>
      <point x="122" y="517" type="line"/>
      <point x="85" y="517" type="line"/>
    </contour>
  </outline>
</glyph>
<glyph name="pi" format="2">
  <advance width="570"/>
  <unicode hex="03C0"/>
  <outline>
    <contour>
      <point x="496" y="-7" type="curve" smooth="yes"/>
      <point x="516" y="-7"/>
      <point x="531" y="-4"/>
      <point x="537" y="1" type="curve"/>
      <point x="537" y="38" type="line"/>
      <point x="529" y="33"/>
      <point x="518" y="29"/>
      <point x="501" y="29" type="curve" smooth="yes"/>
      <point x="456" y="29"/>
      <point x="448" y="63"/>
      <point x="448" y="118" type="curve" smooth="yes"/>
      <point x="448" y="485" type="line"/>
      <point x="538" y="485" type="line"/>
      <point x="538" y="517" type="line"/>
      <point x="22" y="517" type="line"/>
      <point x="22" y="485" type="line"/>
      <point x="114" y="485" type="line"/>
      <point x="114" y="0" type="line"/>
      <point x="151" y="0" type="line"/>
      <point x="151" y="485" type="line"/>
      <point x="411" y="485" type="line"/>
      <point x="411" y="98" type="line" smooth="yes"/>
      <point x="411" y="34"/>
      <point x="435" y="-7"/>
    </contour>
  </outline>
</glyph>
<glyph name="Germandbls" format="2">
  <advance width="626"/>
  <unicode hex="1E9E"/>
  <outline>
    <contour>
      <point x="94" y="0" type="line"/>
      <point x="133" y="0" type="line"/>
      <point x="133" y="693" type="line"/>
      <point x="497" y="693" type="line"/>
      <point x="278" y="417" type="line"/>
      <point x="278" y="387" type="line"/>
      <point x="337" y="387" type="line" smooth="yes"/>
      <point x="481" y="387"/>
      <point x="538" y="319"/>
      <point x="538" y="211" type="curve" smooth="yes"/>
      <point x="538" y="110"/>
      <point x="479" y="34"/>
      <point x="345" y="34" type="curve" smooth="yes"/>
      <point x="203" y="34" type="line"/>
      <point x="203" y="0" type="line"/>
      <point x="345" y="0" type="line" smooth="yes"/>
      <point x="494" y="0"/>
      <point x="579" y="81"/>
      <point x="579" y="211" type="curve" smooth="yes"/>
      <point x="579" y="339"/>
      <point x="503" y="420"/>
      <point x="341" y="420" type="curve" smooth="yes"/>
      <point x="316" y="420" type="line"/>
      <point x="331" y="403" type="line"/>
      <point x="331" y="427" type="line"/>
      <point x="530" y="678" type="line"/>
      <point x="530" y="729" type="line"/>
      <point x="94" y="729" type="line"/>
    </contour>
  </outline>
</glyph>
<glyph name="emdash" format="2">
  <advance width="635"/>
  <unicode hex="2014"/>
  <outline>
    <contour>
      <point x="60" y="242" type="line"/>
      <point x="575" y="242" type="line"/>
      <point x="575" y="275" type="line"/>
      <point x="60" y="275" type="line"/>
    </contour>
  </outline>
</glyph>
<glyph name="bullet" format="2">
  <advance width="298"/>
  <unicode hex="2022"/>
  <outline>
    <contour>
      <point x="149" y="171" type="curve" smooth="yes"/>
      <point x="214" y="171"/>
      <point x="257" y="216"/>
      <point x="257" y="277" type="curve" smooth="yes"/>
      <point x="257" y="339"/>
      <point x="214" y="384"/>
      <point x="149" y="384" type="curve" smooth="yes"/>
      <point x="86" y="384"/>
      <point x="40" y="339"/>
      <point x="40" y="277" type="curve" smooth="yes"/>
      <point x="40" y="216"/>
      <point x="86" y="171"/>
    </contour>
  </outline>
</glyph>
<glyph name="perthousand" format="2">
  <advance width="1167"/>
  <unicode hex="2030"/>
  <outline>
    <contour>
      <point x="167" y="0" type="line"/>
      <point x="208" y="0" type="line"/>
      <point x="670" y="729" type="line"/>
      <point x="628" y="729" type="line"/>
    </contour>
    <contour>
      <point x="204" y="324" type="curve" smooth="yes"/>
      <point x="285" y="324"/>
      <point x="341" y="395"/>
      <point x="341" y="527" type="curve" smooth="yes"/>
      <point x="341" y="658"/>
      <point x="286" y="729"/>
      <point x="204" y="729" type="curve" smooth="yes"/>
      <point x="121" y="729"/>
      <point x="65" y="659"/>
      <point x="65" y="527" type="curve" smooth="yes"/>
      <point x="65" y="396"/>
      <point x="120" y="324"/>
    </contour>
    <contour>
      <point x="204" y="356" type="curve" smooth="yes"/>
      <point x="139" y="356"/>
      <point x="102" y="415"/>
      <point x="102" y="527" type="curve" smooth="yes"/>
      <point x="102" y="638"/>
      <point x="139" y="697"/>
      <point x="204" y="697" type="curve" smooth="yes"/>
      <point x="267" y="697"/>
      <point x="304" y="639"/>
      <point x="304" y="527" type="curve" smooth="yes"/>
      <point x="304" y="415"/>
      <point x="267" y="356"/>
    </contour>
    <contour>
      <point x="635" y="-5" type="curve" smooth="yes"/>
      <point x="716" y="-5"/>
      <point x="772" y="66"/>
      <point x="772" y="197" type="curve" smooth="yes"/>
      <point x="772" y="329"/>
      <point x="717" y="400"/>
      <point x="635" y="400" type="curve" smooth="yes"/>
      <point x="551" y="400"/>
      <point x="496" y="329"/>
      <point x="496" y="198" type="curve" smooth="yes"/>
      <point x="496" y="66"/>
      <point x="551" y="-5"/>
    </contour>
    <contour>
      <point x="635" y="27" type="curve" smooth="yes"/>
      <point x="570" y="27"/>
      <point x="533" y="85"/>
      <point x="533" y="197" type="curve" smooth="yes"/>
      <point x="533" y="310"/>
      <point x="570" y="368"/>
      <point x="635" y="368" type="curve" smooth="yes"/>
      <point x="697" y="368"/>
      <point x="734" y="310"/>
      <point x="734" y="197" type="curve" smooth="yes"/>
      <point x="734" y="84"/>
      <point x="697" y="27"/>
    </contour>
    <contour>
      <point x="965" y="-5" type="curve" smooth="yes"/>
      <point x="1046" y="-5"/>
      <point x="1102" y="66"/>
      <point x="1102" y="197" type="curve" smooth="yes"/>
      <point x="1102" y="329"/>
      <point x="1047" y="400"/>
      <point x="965" y="400" type="curve" smooth="yes"/>
      <point x="881" y="400"/>
      <point x="826" y="329"/>
      <point x="826" y="198" type="curve" smooth="yes"/>
      <point x="826" y="66"/>
      <point x="881" y="-5"/>
    </contour>
    <contour>
      <point x="965" y="27" type="curve" smooth="yes"/>
      <point x="900" y="27"/>
      <point x="863" y="85"/>
      <point x="863" y="197" type="curve" smooth="yes"/>
      <point x="863" y="310"/>
      <point x="900" y="368"/>
      <point x="965" y="368" type="curve" smooth="yes"/>
      <point x="1027" y="368"/>
      <point x="1064" y="310"/>
      <point x="1064" y="197" type="curve" smooth="yes"/>
      <point x="1064" y="84"/>
      <point x="1027" y="27"/>
    </contour>
  </outline>
</glyph>
<glyph name="guilsinglleft" format="2">
  <advance width="257"/>
  <unicode hex="2039"/>
  <outline>
    <contour>
      <point x="172" y="80" type="line"/>
      <point x="205" y="80" type="line"/>
      <point x="92" y="299" type="line"/>
      <point x="205" y="517" type="line"/>
      <point x="172" y="517" type="line"/>
      <point x="52" y="299" type="line"/>
    </contour>
  </outline>
</glyph>
<glyph name="fraction" format="2">
  <advance width="116"/>
  <unicode hex="2044"/>
  <outline>
    <contour>
      <point x="-209" y="0" type="line"/>
      <point x="-172" y="0" type="line"/>
      <point x="325" y="721" type="line"/>
      <point x="287" y="721" type="line"/>
    </contour>
  </outline>
</glyph>
<glyph name="zeroinferior" format="2">
  <advance width="424"/>
  <unicode hex="2080"/>
  <anchor x="212" y="174" name="_center"/>
  <outline>
    <contour>
      <point x="212" y="-45" type="curve" smooth="yes"/>
      <point x="301" y="-45"/>
      <point x="361" y="25"/>
      <point x="361" y="176" type="curve" smooth="yes"/>
      <point x="361" y="324"/>
      <point x="303" y="397"/>
      <point x="212" y="397" type="curve" smooth="yes"/>
      <point x="123" y="397"/>
      <point x="63" y="326"/>
      <point x="63" y="176" type="curve" smooth="yes"/>
      <point x="63" y="28"/>
      <point x="121" y="-45"/>
    </contour>
    <contour>
      <point x="212" y="-15" type="curve" smooth="yes"/>
      <point x="132" y="-15"/>
      <point x="99" y="57"/>
      <point x="99" y="176" type="curve" smooth="yes"/>
      <point x="99" y="295"/>
      <point x="132" y="367"/>
      <point x="212" y="367" type="curve" smooth="yes"/>
      <point x="292" y="367"/>
      <point x="325" y="295"/>
      <point x="325" y="176" type="curve" smooth="yes"/>
      <point x="325" y="57"/>
      <point x="292" y="-15"/>
    </contour>
  </outline>
</glyph>
<glyph name="oneinferior" format="2">
  <advance width="247"/>
  <unicode hex="2081"/>
  <anchor x="129" y="174" name="_center"/>
  <outline>
    <contour>
      <point x="128" y="-40" type="line"/>
      <point x="162" y="-40" type="line"/>
      <point x="162" y="393" type="line"/>
      <point x="128" y="393" type="line"/>
      <point x="124" y="351"/>
      <point x="102" y="323"/>
      <point x="44" y="323" type="curve" smooth="yes"/>
      <point x="28" y="323" type="line"/>
      <point x="28" y="297" type="line"/>
      <point x="128" y="297" type="line"/>
    </contour>
  </outline>
</glyph>
<glyph name="twoinferior" format="2">
  <advance width="370"/>
  <unicode hex="2082"/>
  <anchor x="185" y="174" name="_center"/>
  <outline>
    <contour>
      <point x="53" y="-40" type="line"/>
      <point x="320" y="-40" type="line"/>
      <point x="320" y="-9" type="line"/>
      <point x="88" y="-9" type="line"/>
      <point x="100" y="108"/>
      <point x="317" y="141"/>
      <point x="317" y="278" type="curve" smooth="yes"/>
      <point x="317" y="350"/>
      <point x="267" y="397"/>
      <point x="187" y="397" type="curve" smooth="yes"/>
      <point x="104" y="397"/>
      <point x="48" y="344"/>
      <point x="50" y="266" type="curve"/>
      <point x="85" y="266" type="line"/>
      <point x="83" y="329"/>
      <point x="127" y="367"/>
      <point x="186" y="367" type="curve" smooth="yes"/>
      <point x="245" y="367"/>
      <point x="282" y="333"/>
      <point x="282" y="277" type="curve" smooth="yes"/>
      <point x="282" y="155"/>
      <point x="53" y="123"/>
      <point x="53" y="-27" type="curve" smooth="yes"/>
    </contour>
  </outline>
</glyph>
<glyph name="threeinferior" format="2">
  <advance width="393"/>
  <unicode hex="2083"/>
  <anchor x="188" y="174" name="_center"/>
  <outline>
    <contour>
      <point x="184" y="-45" type="curve" smooth="yes"/>
      <point x="271" y="-45"/>
      <point x="329" y="4"/>
      <point x="329" y="78" type="curve" smooth="yes"/>
      <point x="329" y="133"/>
      <point x="299" y="173"/>
      <point x="249" y="184" type="curve"/>
      <point x="249" y="187" type="line"/>
      <point x="293" y="200"/>
      <point x="326" y="236"/>
      <point x="326" y="287" type="curve" smooth="yes"/>
      <point x="326" y="354"/>
      <point x="275" y="398"/>
      <point x="193" y="398" type="curve" smooth="yes"/>
      <point x="117" y="398"/>
      <point x="60" y="353"/>
      <point x="56" y="278" type="curve"/>
      <point x="91" y="278" type="line"/>
      <point x="94" y="332"/>
      <point x="134" y="368"/>
      <point x="193" y="368" type="curve" smooth="yes"/>
      <point x="251" y="368"/>
      <point x="291" y="338"/>
      <point x="291" y="284" type="curve" smooth="yes"/>
      <point x="291" y="233"/>
      <point x="254" y="198"/>
      <point x="187" y="198" type="curve" smooth="yes"/>
      <point x="155" y="198" type="line"/>
      <point x="155" y="170" type="line"/>
      <point x="196" y="170" type="line" smooth="yes"/>
      <point x="254" y="170"/>
      <point x="293" y="141"/>
      <point x="293" y="80" type="curve" smooth="yes"/>
      <point x="293" y="22"/>
      <point x="250" y="-15"/>
      <point x="184" y="-15" type="curve" smooth="yes"/>
      <point x="128" y="-15"/>
      <point x="85" y="18"/>
      <point x="81" y="75" type="curve"/>
      <point x="47" y="75" type="line"/>
      <point x="50" y="4"/>
      <point x="104" y="-45"/>
    </contour>
  </outline>
</glyph>
<glyph name="fourinferior" format="2">
  <advance width="392"/>
  <unicode hex="2084"/>
  <anchor x="197" y="174" name="_center"/>
  <outline>
    <contour>
      <point x="245" y="-40" type="line"/>
      <point x="279" y="-40" type="line"/>
      <point x="279" y="393" type="line"/>
      <point x="239" y="393" type="line"/>
      <point x="32" y="103" type="line"/>
      <point x="32" y="74" type="line"/>
      <point x="362" y="74" type="line"/>
      <point x="362" y="104" type="line"/>
      <point x="69" y="104" type="line"/>
      <point x="255" y="364" type="line"/>
      <point x="245" y="367" type="line"/>
    </contour>
  </outline>
</glyph>
<glyph name="fiveinferior" format="2">
  <advance width="403"/>
  <unicode hex="2085"/>
  <anchor x="209" y="174" name="_center"/>
  <outline>
    <contour>
      <point x="203" y="-45" type="curve" smooth="yes"/>
      <point x="292" y="-45"/>
      <point x="350" y="13"/>
      <point x="350" y="99" type="curve" smooth="yes"/>
      <point x="350" y="181"/>
      <point x="296" y="237"/>
      <point x="213" y="237" type="curve" smooth="yes"/>
      <point x="170" y="237"/>
      <point x="129" y="219"/>
      <point x="108" y="186" type="curve"/>
      <point x="106" y="187" type="line"/>
      <point x="120" y="362" type="line"/>
      <point x="340" y="362" type="line"/>
      <point x="340" y="393" type="line"/>
      <point x="90" y="393" type="line"/>
      <point x="72" y="152" type="line"/>
      <point x="109" y="152" type="line"/>
      <point x="123" y="185"/>
      <point x="160" y="208"/>
      <point x="206" y="208" type="curve" smooth="yes"/>
      <point x="271" y="208"/>
      <point x="315" y="167"/>
      <point x="315" y="97" type="curve" smooth="yes"/>
      <point x="315" y="31"/>
      <point x="274" y="-14"/>
      <point x="204" y="-14" type="curve" smooth="yes"/>
      <point x="145" y="-14"/>
      <point x="106" y="21"/>
      <point x="102" y="74" type="curve"/>
      <point x="67" y="74" type="line"/>
      <point x="70" y="7"/>
      <point x="121" y="-45"/>
    </contour>
  </outline>
</glyph>
<glyph name="sixinferior" format="2">
  <advance width="417"/>
  <unicode hex="2086"/>
  <anchor x="211" y="174" name="_center"/>
  <outline>
    <contour>
      <point x="213" y="-45" type="curve" smooth="yes"/>
      <point x="298" y="-45"/>
      <point x="358" y="10"/>
      <point x="358" y="96" type="curve" smooth="yes"/>
      <point x="358" y="177"/>
      <point x="303" y="232"/>
      <point x="222" y="232" type="curve" smooth="yes"/>
      <point x="158" y="232"/>
      <point x="113" y="199"/>
      <point x="99" y="150" type="curve"/>
      <point x="97" y="150" type="line"/>
      <point x="99" y="280"/>
      <point x="118" y="368"/>
      <point x="220" y="368" type="curve" smooth="yes"/>
      <point x="269" y="368"/>
      <point x="311" y="346"/>
      <point x="320" y="291" type="curve"/>
      <point x="354" y="291" type="line"/>
      <point x="348" y="355"/>
      <point x="295" y="398"/>
      <point x="221" y="398" type="curve" smooth="yes"/>
      <point x="115" y="398"/>
      <point x="64" y="324"/>
      <point x="64" y="148" type="curve" smooth="yes"/>
      <point x="64" y="27"/>
      <point x="111" y="-45"/>
    </contour>
    <contour>
      <point x="215" y="-14" type="curve" smooth="yes"/>
      <point x="150" y="-14"/>
      <point x="105" y="26"/>
      <point x="105" y="92" type="curve" smooth="yes"/>
      <point x="105" y="154"/>
      <point x="147" y="203"/>
      <point x="216" y="203" type="curve" smooth="yes"/>
      <point x="278" y="203"/>
      <point x="322" y="162"/>
      <point x="322" y="96" type="curve" smooth="yes"/>
      <point x="322" y="30"/>
      <point x="279" y="-14"/>
    </contour>
  </outline>
</glyph>
<glyph name="seveninferior" format="2">
  <advance width="349"/>
  <unicode hex="2087"/>
  <anchor x="182" y="174" name="_center"/>
  <outline>
    <contour>
      <point x="138" y="-40" type="curve"/>
      <point x="175" y="-40" type="line"/>
      <point x="175" y="145"/>
      <point x="245" y="254"/>
      <point x="323" y="369" type="curve"/>
      <point x="323" y="393" type="line"/>
      <point x="40" y="393" type="line"/>
      <point x="40" y="268" type="line"/>
      <point x="69" y="268" type="line"/>
      <point x="69" y="362" type="line"/>
      <point x="282" y="362" type="line"/>
      <point x="207" y="252"/>
      <point x="138" y="138"/>
    </contour>
  </outline>
</glyph>
<glyph name="eightinferior" format="2">
  <advance width="410"/>
  <unicode hex="2088"/>
  <anchor x="205" y="174" name="_center"/>
  <outline>
    <contour>
      <point x="205" y="-46" type="curve" smooth="yes"/>
      <point x="292" y="-46"/>
      <point x="352" y="2"/>
      <point x="352" y="73" type="curve" smooth="yes"/>
      <point x="352" y="126"/>
      <point x="319" y="170"/>
      <point x="257" y="182" type="curve"/>
      <point x="257" y="184" type="line"/>
      <point x="304" y="196"/>
      <point x="337" y="236"/>
      <point x="337" y="284" type="curve" smooth="yes"/>
      <point x="337" y="352"/>
      <point x="286" y="397"/>
      <point x="205" y="397" type="curve" smooth="yes"/>
      <point x="125" y="397"/>
      <point x="73" y="353"/>
      <point x="73" y="284" type="curve" smooth="yes"/>
      <point x="73" y="236"/>
      <point x="106" y="196"/>
      <point x="152" y="184" type="curve"/>
      <point x="152" y="182" type="line"/>
      <point x="91" y="170"/>
      <point x="58" y="126"/>
      <point x="58" y="73" type="curve" smooth="yes"/>
      <point x="58" y="2"/>
      <point x="117" y="-46"/>
    </contour>
    <contour>
      <point x="205" y="-16" type="curve" smooth="yes"/>
      <point x="139" y="-16"/>
      <point x="94" y="21"/>
      <point x="94" y="76" type="curve" smooth="yes"/>
      <point x="94" y="126"/>
      <point x="124" y="168"/>
      <point x="205" y="168" type="curve" smooth="yes"/>
      <point x="286" y="168"/>
      <point x="316" y="125"/>
      <point x="316" y="76" type="curve" smooth="yes"/>
      <point x="316" y="21"/>
      <point x="271" y="-16"/>
    </contour>
    <contour>
      <point x="205" y="197" type="curve" smooth="yes"/>
      <point x="132" y="197"/>
      <point x="107" y="240"/>
      <point x="107" y="283" type="curve" smooth="yes"/>
      <point x="107" y="325"/>
      <point x="131" y="368"/>
      <point x="205" y="368" type="curve" smooth="yes"/>
      <point x="279" y="368"/>
      <point x="303" y="324"/>
      <point x="303" y="283" type="curve" smooth="yes"/>
      <point x="303" y="240"/>
      <point x="278" y="197"/>
    </contour>
  </outline>
</glyph>
<glyph name="peseta" format="2">
  <advance width="1460"/>
  <unicode hex="20A7"/>
  <outline>
    <contour>
      <point x="111" y="0" type="line"/>
      <point x="149" y="0" type="line"/>
      <point x="149" y="704" type="line"/>
      <point x="135" y="692" type="line"/>
      <point x="355" y="692" type="line" smooth="yes"/>
      <point x="475" y="692"/>
      <point x="543" y="623"/>
      <point x="543" y="509" type="curve" smooth="yes"/>
      <point x="543" y="398"/>
      <point x="476" y="325"/>
      <point x="355" y="325" type="curve" smooth="yes"/>
      <point x="140" y="325" type="line"/>
      <point x="140" y="289" type="line"/>
      <point x="357" y="289" type="line" smooth="yes"/>
      <point x="495" y="289"/>
      <point x="583" y="375"/>
      <point x="583" y="509" type="curve" smooth="yes"/>
      <point x="583" y="649"/>
      <point x="496" y="729"/>
      <point x="358" y="729" type="curve" smooth="yes"/>
      <point x="111" y="729" type="line"/>
    </contour>
    <contour>
      <point x="836" y="0" type="curve" smooth="yes"/>
      <point x="924" y="0" type="line"/>
      <point x="924" y="34" type="line"/>
      <point x="844" y="34" type="line" smooth="yes"/>
      <point x="803" y="34"/>
      <point x="793" y="44"/>
      <point x="793" y="85" type="curve" smooth="yes"/>
      <point x="793" y="485" type="line"/>
      <point x="924" y="485" type="line"/>
      <point x="924" y="517" type="line"/>
      <point x="793" y="517" type="line"/>
      <point x="793" y="690" type="line"/>
      <point x="757" y="681" type="line"/>
      <point x="757" y="517" type="line"/>
      <point x="650" y="517" type="line"/>
      <point x="650" y="485" type="line"/>
      <point x="757" y="485" type="line"/>
      <point x="757" y="79" type="line" smooth="yes"/>
      <point x="757" y="23"/>
      <point x="780" y="0"/>
    </contour>
    <contour>
      <point x="1201" y="-10" type="curve" smooth="yes"/>
      <point x="1317" y="-10"/>
      <point x="1394" y="42"/>
      <point x="1394" y="135" type="curve" smooth="yes"/>
      <point x="1394" y="239"/>
      <point x="1317" y="265"/>
      <point x="1209" y="281" type="curve" smooth="yes"/>
      <point x="1102" y="296"/>
      <point x="1052" y="320"/>
      <point x="1052" y="389" type="curve" smooth="yes"/>
      <point x="1052" y="452"/>
      <point x="1105" y="494"/>
      <point x="1199" y="494" type="curve" smooth="yes"/>
      <point x="1285" y="494"/>
      <point x="1343" y="460"/>
      <point x="1348" y="373" type="curve"/>
      <point x="1384" y="373" type="line"/>
      <point x="1381" y="469"/>
      <point x="1314" y="527"/>
      <point x="1198" y="527" type="curve" smooth="yes"/>
      <point x="1088" y="527"/>
      <point x="1015" y="470"/>
      <point x="1015" y="385" type="curve" smooth="yes"/>
      <point x="1015" y="293"/>
      <point x="1080" y="264"/>
      <point x="1203" y="246" type="curve" smooth="yes"/>
      <point x="1311" y="230"/>
      <point x="1356" y="207"/>
      <point x="1356" y="132" type="curve" smooth="yes"/>
      <point x="1356" y="62"/>
      <point x="1301" y="23"/>
      <point x="1202" y="23" type="curve" smooth="yes"/>
      <point x="1107" y="23"/>
      <point x="1043" y="63"/>
      <point x="1037" y="149" type="curve"/>
      <point x="1000" y="149" type="line"/>
      <point x="1005" y="53"/>
      <point x="1077" y="-10"/>
    </contour>
  </outline>
</glyph>
<glyph name="won" format="2">
  <advance width="961"/>
  <unicode hex="20A9"/>
  <outline>
    <contour>
      <point x="252" y="0" type="line"/>
      <point x="311" y="0" type="line"/>
      <point x="428" y="486" type="line"/>
      <point x="478" y="692" type="line"/>
      <point x="484" y="692" type="line"/>
      <point x="533" y="486" type="line"/>
      <point x="650" y="0" type="line"/>
      <point x="710" y="0" type="line"/>
      <point x="886" y="729" type="line"/>
      <point x="844" y="729" type="line"/>
      <point x="728" y="225" type="line"/>
      <point x="684" y="33" type="line"/>
      <point x="678" y="33" type="line"/>
      <point x="632" y="224" type="line"/>
      <point x="511" y="729" type="line"/>
      <point x="451" y="729" type="line"/>
      <point x="329" y="222" type="line"/>
      <point x="284" y="33" type="line"/>
      <point x="278" y="33" type="line"/>
      <point x="234" y="225" type="line"/>
      <point x="118" y="729" type="line"/>
      <point x="76" y="729" type="line"/>
    </contour>
    <contour>
      <point x="57" y="348" type="line"/>
      <point x="905" y="348" type="line"/>
      <point x="905" y="382" type="line"/>
      <point x="57" y="382" type="line"/>
    </contour>
  </outline>
</glyph>
<glyph name="sheqel" format="2">
  <advance width="797"/>
  <unicode hex="20AA"/>
  <outline>
    <contour>
      <point x="288" y="0" type="line"/>
      <point x="620" y="0" type="line" smooth="yes"/>
      <point x="664" y="0"/>
      <point x="687" y="18"/>
      <point x="687" y="67" type="curve" smooth="yes"/>
      <point x="687" y="729" type="line"/>
      <point x="646" y="729" type="line"/>
      <point x="646" y="37" type="line"/>
      <point x="327" y="37" type="line"/>
      <point x="327" y="571" type="line"/>
      <point x="288" y="571" type="line"/>
    </contour>
    <contour>
      <point x="111" y="0" type="line"/>
      <point x="150" y="0" type="line"/>
      <point x="150" y="692" type="line"/>
      <point x="469" y="692" type="line"/>
      <point x="469" y="159" type="line"/>
      <point x="510" y="159" type="line"/>
      <point x="510" y="663" type="line" smooth="yes"/>
      <point x="510" y="712"/>
      <point x="488" y="729"/>
      <point x="444" y="729" type="curve" smooth="yes"/>
      <point x="111" y="729" type="line"/>
    </contour>
  </outline>
</glyph>
<glyph name="euro" format="2">
  <advance width="859"/>
  <unicode hex="20AC"/>
  <outline>
    <contour>
      <point x="476" y="-8" type="curve" smooth="yes"/>
      <point x="649" y="-8"/>
      <point x="774" y="88"/>
      <point x="795" y="238" type="curve"/>
      <point x="755" y="238" type="line"/>
      <point x="735" y="111"/>
      <point x="630" y="28"/>
      <point x="476" y="28" type="curve" smooth="yes"/>
      <point x="287" y="28"/>
      <point x="172" y="162"/>
      <point x="172" y="364" type="curve" smooth="yes"/>
      <point x="172" y="566"/>
      <point x="287" y="700"/>
      <point x="476" y="700" type="curve" smooth="yes"/>
      <point x="629" y="700"/>
      <point x="733" y="615"/>
      <point x="755" y="494" type="curve"/>
      <point x="795" y="494" type="line"/>
      <point x="769" y="643"/>
      <point x="645" y="736"/>
      <point x="476" y="736" type="curve" smooth="yes"/>
      <point x="269" y="736"/>
      <point x="131" y="586"/>
      <point x="131" y="364" type="curve" smooth="yes"/>
      <point x="131" y="143"/>
      <point x="268" y="-8"/>
    </contour>
    <contour>
      <point x="59" y="260" type="line"/>
      <point x="506" y="260" type="line"/>
      <point x="511" y="294" type="line"/>
      <point x="59" y="294" type="line"/>
    </contour>
    <contour>
      <point x="59" y="435" type="line"/>
      <point x="535" y="435" type="line"/>
      <point x="540" y="469" type="line"/>
      <point x="59" y="469" type="line"/>
    </contour>
  </outline>
</glyph>
<glyph name="tenge" format="2">
  <advance width="598"/>
  <unicode hex="20B8"/>
  <outline>
    <contour>
      <point x="280" y="527" type="line"/>
      <point x="280" y="0" type="line"/>
      <point x="318" y="0" type="line"/>
      <point x="318" y="527" type="line"/>
    </contour>
    <contour>
      <point x="543" y="517" type="line"/>
      <point x="543" y="553" type="line"/>
      <point x="55" y="553" type="line"/>
      <point x="55" y="517" type="line"/>
    </contour>
    <contour>
      <point x="543" y="693" type="line"/>
      <point x="543" y="729" type="line"/>
      <point x="55" y="729" type="line"/>
      <point x="55" y="693" type="line"/>
    </contour>
  </outline>
</glyph>
<glyph name="rupeeIndian" format="2">
  <advance width="667"/>
  <unicode hex="20B9"/>
  <outline>
    <contour>
      <point x="483" y="0" type="line"/>
      <point x="521" y="0" type="line"/>
      <point x="492" y="206" type="line" smooth="yes"/>
      <point x="482" y="276"/>
      <point x="447" y="322"/>
      <point x="387" y="334" type="curve"/>
      <point x="387" y="340" type="line"/>
      <point x="475" y="358"/>
      <point x="534" y="420"/>
      <point x="540" y="507" type="curve"/>
      <point x="612" y="507" type="line"/>
      <point x="612" y="541" type="line"/>
      <point x="539" y="541" type="line"/>
      <point x="536" y="610"/>
      <point x="493" y="671"/>
      <point x="439" y="691" type="curve"/>
      <point x="439" y="694" type="line"/>
      <point x="612" y="694" type="line"/>
      <point x="612" y="729" type="line"/>
      <point x="66" y="729" type="line"/>
      <point x="66" y="694" type="line"/>
      <point x="314" y="694" type="line" smooth="yes"/>
      <point x="417" y="694"/>
      <point x="486" y="647"/>
      <point x="499" y="542" type="curve"/>
      <point x="66" y="542" type="line"/>
      <point x="66" y="507" type="line"/>
      <point x="499" y="507" type="line"/>
      <point x="492" y="414"/>
      <point x="431" y="359"/>
      <point x="306" y="359" type="curve" smooth="yes"/>
      <point x="66" y="359" type="line"/>
      <point x="66" y="323" type="line"/>
      <point x="304" y="323" type="line" smooth="yes"/>
      <point x="375" y="323"/>
      <point x="440" y="303"/>
      <point x="455" y="197" type="curve" smooth="yes"/>
    </contour>
  </outline>
</glyph>
<glyph name="liraTurkish" format="2">
  <advance width="632"/>
  <unicode hex="20BA"/>
  <outline>
    <contour>
      <point x="161" y="0" type="line"/>
      <point x="200" y="0" type="line" smooth="yes"/>
      <point x="413" y="0"/>
      <point x="549" y="105"/>
      <point x="578" y="317" type="curve"/>
      <point x="541" y="317" type="line"/>
      <point x="516" y="146"/>
      <point x="410" y="36"/>
      <point x="199" y="36" type="curve"/>
      <point x="199" y="729" type="line"/>
      <point x="161" y="729" type="line"/>
    </contour>
    <contour>
      <point x="59" y="286" type="line"/>
      <point x="433" y="436" type="line"/>
      <point x="433" y="471" type="line"/>
      <point x="59" y="321" type="line"/>
    </contour>
    <contour>
      <point x="59" y="445" type="line"/>
      <point x="433" y="595" type="line"/>
      <point x="433" y="630" type="line"/>
      <point x="59" y="480" type="line"/>
    </contour>
  </outline>
</glyph>
<glyph name="literSign" format="2">
  <advance width="478"/>
  <unicode hex="2113"/>
  <outline>
    <contour>
      <point x="271" y="-8" type="curve" smooth="yes"/>
      <point x="329" y="-8"/>
      <point x="383" y="23"/>
      <point x="413" y="102" type="curve"/>
      <point x="383" y="114" type="line"/>
      <point x="363" y="61"/>
      <point x="329" y="26"/>
      <point x="273" y="26" type="curve" smooth="yes"/>
      <point x="196" y="26"/>
      <point x="144" y="113"/>
      <point x="144" y="389" type="curve" smooth="yes"/>
      <point x="144" y="585"/>
      <point x="194" y="705"/>
      <point x="277" y="705" type="curve" smooth="yes"/>
      <point x="328" y="705"/>
      <point x="357" y="658"/>
      <point x="357" y="558" type="curve" smooth="yes"/>
      <point x="357" y="363"/>
      <point x="235" y="196"/>
      <point x="53" y="141" type="curve"/>
      <point x="53" y="110" type="line"/>
      <point x="255" y="167"/>
      <point x="390" y="351"/>
      <point x="390" y="562" type="curve" smooth="yes"/>
      <point x="390" y="668"/>
      <point x="354" y="739"/>
      <point x="278" y="739" type="curve" smooth="yes"/>
      <point x="171" y="739"/>
      <point x="112" y="604"/>
      <point x="112" y="389" type="curve" smooth="yes"/>
      <point x="112" y="151"/>
      <point x="151" y="-8"/>
    </contour>
  </outline>
</glyph>
<glyph name="numero" format="2">
  <advance width="1122"/>
  <unicode hex="2116"/>
  <outline>
    <contour>
      <point x="111" y="0" type="line"/>
      <point x="149" y="0" type="line"/>
      <point x="149" y="436" type="line"/>
      <point x="146" y="686" type="line"/>
      <point x="151" y="686" type="line"/>
      <point x="632" y="0" type="line"/>
      <point x="687" y="0" type="line"/>
      <point x="687" y="729" type="line"/>
      <point x="649" y="729" type="line"/>
      <point x="649" y="303" type="line"/>
      <point x="653" y="43" type="line"/>
      <point x="648" y="43" type="line"/>
      <point x="166" y="729" type="line"/>
      <point x="111" y="729" type="line"/>
    </contour>
    <contour>
      <point x="815" y="231" type="line"/>
      <point x="1017" y="231" type="line"/>
      <point x="1017" y="263" type="line"/>
      <point x="815" y="263" type="line"/>
    </contour>
    <contour>
      <point x="917" y="334" type="curve" smooth="yes"/>
      <point x="998" y="334"/>
      <point x="1054" y="405"/>
      <point x="1054" y="537" type="curve" smooth="yes"/>
      <point x="1054" y="668"/>
      <point x="999" y="739"/>
      <point x="917" y="739" type="curve" smooth="yes"/>
      <point x="834" y="739"/>
      <point x="778" y="669"/>
      <point x="778" y="537" type="curve" smooth="yes"/>
      <point x="778" y="406"/>
      <point x="833" y="334"/>
    </contour>
    <contour>
      <point x="917" y="366" type="curve" smooth="yes"/>
      <point x="852" y="366"/>
      <point x="815" y="425"/>
      <point x="815" y="537" type="curve" smooth="yes"/>
      <point x="815" y="648"/>
      <point x="852" y="707"/>
      <point x="917" y="707" type="curve" smooth="yes"/>
      <point x="980" y="707"/>
      <point x="1017" y="649"/>
      <point x="1017" y="537" type="curve" smooth="yes"/>
      <point x="1017" y="425"/>
      <point x="980" y="366"/>
    </contour>
  </outline>
</glyph>
<glyph name="trademark" format="2">
  <advance width="814"/>
  <unicode hex="2122"/>
  <outline>
    <contour>
      <point x="361" y="419" type="line"/>
      <point x="393" y="419" type="line"/>
      <point x="393" y="569" type="line"/>
      <point x="392" y="686" type="line"/>
      <point x="394" y="686" type="line"/>
      <point x="517" y="419" type="line"/>
      <point x="545" y="419" type="line"/>
      <point x="668" y="686" type="line"/>
      <point x="671" y="686" type="line"/>
      <point x="668" y="569" type="line"/>
      <point x="668" y="419" type="line"/>
      <point x="703" y="419" type="line"/>
      <point x="703" y="729" type="line"/>
      <point x="656" y="729" type="line"/>
      <point x="532" y="459" type="line"/>
      <point x="529" y="459" type="line"/>
      <point x="405" y="729" type="line"/>
      <point x="361" y="729" type="line"/>
    </contour>
    <contour>
      <point x="164" y="419" type="line"/>
      <point x="197" y="419" type="line"/>
      <point x="197" y="699" type="line"/>
      <point x="311" y="699" type="line"/>
      <point x="311" y="729" type="line"/>
      <point x="54" y="729" type="line"/>
      <point x="54" y="699" type="line"/>
      <point x="164" y="699" type="line"/>
    </contour>
  </outline>
</glyph>
<glyph name="estimated" format="2">
  <advance width="853"/>
  <unicode hex="212E"/>
  <outline>
    <contour>
      <point x="457" y="-9" type="curve" smooth="yes"/>
      <point x="561" y="-9"/>
      <point x="667" y="27"/>
      <point x="734" y="90" type="curve"/>
      <point x="716" y="120" type="line"/>
      <point x="655" y="64"/>
      <point x="557" y="26"/>
      <point x="457" y="26" type="curve" smooth="yes"/>
      <point x="361" y="26"/>
      <point x="289" y="53"/>
      <point x="232" y="107" type="curve"/>
      <point x="232" y="362" type="line"/>
      <point x="763" y="362" type="line"/>
      <point x="763" y="416" type="line" smooth="yes"/>
      <point x="763" y="609"/>
      <point x="632" y="737"/>
      <point x="436" y="737" type="curve" smooth="yes"/>
      <point x="228" y="737"/>
      <point x="90" y="588"/>
      <point x="90" y="364" type="curve" smooth="yes"/>
      <point x="90" y="140"/>
      <point x="237" y="-9"/>
    </contour>
    <contour>
      <point x="232" y="395" type="line"/>
      <point x="232" y="620" type="line"/>
      <point x="282" y="679"/>
      <point x="365" y="704"/>
      <point x="436" y="704" type="curve" smooth="yes"/>
      <point x="511" y="704"/>
      <point x="594" y="681"/>
      <point x="638" y="626" type="curve"/>
      <point x="638" y="395" type="line"/>
    </contour>
  </outline>
</glyph>
<glyph name="leftArrow" format="2">
  <advance width="746"/>
  <unicode hex="2190"/>
  <outline>
    <contour>
      <point x="640" y="383" type="line"/>
      <point x="157" y="383" type="line"/>
      <point x="279" y="548" type="line"/>
      <point x="237" y="548" type="line"/>
      <point x="101" y="365" type="line"/>
      <point x="237" y="182" type="line"/>
      <point x="279" y="182" type="line"/>
      <point x="157" y="347" type="line"/>
      <point x="640" y="347" type="line"/>
    </contour>
  </outline>
</glyph>
<glyph name="upArrow" format="2">
  <advance width="513"/>
  <unicode hex="2191"/>
  <outline>
    <contour>
      <point x="239" y="95" type="line"/>
      <point x="275" y="95" type="line"/>
      <point x="275" y="578" type="line"/>
      <point x="440" y="456" type="line"/>
      <point x="440" y="498" type="line"/>
      <point x="257" y="634" type="line"/>
      <point x="74" y="498" type="line"/>
      <point x="74" y="456" type="line"/>
      <point x="239" y="578" type="line"/>
    </contour>
  </outline>
</glyph>
<glyph name="rightArrow" format="2">
  <advance width="746"/>
  <unicode hex="2192"/>
  <outline>
    <contour>
      <point x="106" y="383" type="line"/>
      <point x="106" y="347" type="line"/>
      <point x="589" y="347" type="line"/>
      <point x="467" y="182" type="line"/>
      <point x="509" y="182" type="line"/>
      <point x="645" y="365" type="line"/>
      <point x="509" y="548" type="line"/>
      <point x="467" y="548" type="line"/>
      <point x="589" y="383" type="line"/>
    </contour>
  </outline>
</glyph>
<glyph name="downArrow" format="2">
  <advance width="491"/>
  <unicode hex="2193"/>
  <outline>
    <contour>
      <point x="238" y="634" type="line"/>
      <point x="238" y="151" type="line"/>
      <point x="73" y="273" type="line"/>
      <point x="73" y="231" type="line"/>
      <point x="256" y="95" type="line"/>
      <point x="439" y="231" type="line"/>
      <point x="439" y="273" type="line"/>
      <point x="274" y="151" type="line"/>
      <point x="274" y="634" type="line"/>
    </contour>
  </outline>
</glyph>
<glyph name="leftRightArrow" format="2">
  <advance width="829"/>
  <unicode hex="2194"/>
  <outline>
    <contour>
      <point x="216" y="182" type="line"/>
      <point x="258" y="182" type="line"/>
      <point x="136" y="347" type="line"/>
      <point x="693" y="347" type="line"/>
      <point x="571" y="182" type="line"/>
      <point x="613" y="182" type="line"/>
      <point x="749" y="365" type="line"/>
      <point x="613" y="548" type="line"/>
      <point x="571" y="548" type="line"/>
      <point x="693" y="383" type="line"/>
      <point x="136" y="383" type="line"/>
      <point x="258" y="548" type="line"/>
      <point x="216" y="548" type="line"/>
      <point x="80" y="365" type="line"/>
    </contour>
  </outline>
</glyph>
<glyph name="emptyset" format="2">
  <advance width="823"/>
  <unicode hex="2205"/>
  <outline>
    <contour>
      <point x="412" y="-10" type="curve" smooth="yes"/>
      <point x="613" y="-10"/>
      <point x="780" y="145"/>
      <point x="780" y="366" type="curve" smooth="yes"/>
      <point x="780" y="584"/>
      <point x="613" y="739"/>
      <point x="412" y="739" type="curve" smooth="yes"/>
      <point x="209" y="739"/>
      <point x="43" y="584"/>
      <point x="43" y="366" type="curve" smooth="yes"/>
      <point x="43" y="145"/>
      <point x="209" y="-10"/>
    </contour>
    <contour>
      <point x="412" y="19" type="curve" smooth="yes"/>
      <point x="295" y="19"/>
      <point x="190" y="80"/>
      <point x="129" y="176" type="curve"/>
      <point x="709" y="529" type="line"/>
      <point x="733" y="481"/>
      <point x="747" y="426"/>
      <point x="747" y="366" type="curve" smooth="yes"/>
      <point x="747" y="166"/>
      <point x="593" y="19"/>
    </contour>
    <contour>
      <point x="114" y="202" type="line"/>
      <point x="90" y="250"/>
      <point x="76" y="306"/>
      <point x="76" y="366" type="curve" smooth="yes"/>
      <point x="76" y="565"/>
      <point x="230" y="710"/>
      <point x="412" y="710" type="curve" smooth="yes"/>
      <point x="528" y="710"/>
      <point x="633" y="651"/>
      <point x="693" y="556" type="curve"/>
    </contour>
  </outline>
</glyph>
<glyph name="product" format="2">
  <advance width="732"/>
  <unicode hex="220F"/>
  <outline>
    <contour>
      <point x="85" y="-151" type="line"/>
      <point x="123" y="-151" type="line"/>
      <point x="123" y="693" type="line"/>
      <point x="609" y="693" type="line"/>
      <point x="609" y="-151" type="line"/>
      <point x="647" y="-151" type="line"/>
      <point x="647" y="729" type="line"/>
      <point x="85" y="729" type="line"/>
    </contour>
  </outline>
</glyph>
<glyph name="summation" format="2">
  <advance width="529"/>
  <unicode hex="2211"/>
  <outline>
    <contour>
      <point x="28" y="-151" type="line"/>
      <point x="505" y="-151" type="line"/>
      <point x="505" y="-117" type="line"/>
      <point x="257" y="-117" type="line"/>
      <point x="73" y="-117" type="line"/>
      <point x="73" y="-114" type="line"/>
      <point x="361" y="289" type="line"/>
      <point x="73" y="692" type="line"/>
      <point x="73" y="695" type="line"/>
      <point x="257" y="695" type="line"/>
      <point x="505" y="695" type="line"/>
      <point x="505" y="729" type="line"/>
      <point x="28" y="729" type="line"/>
      <point x="28" y="689" type="line"/>
      <point x="311" y="291" type="line"/>
      <point x="311" y="288" type="line"/>
      <point x="28" y="-111" type="line"/>
    </contour>
  </outline>
</glyph>
<glyph name="radical" format="2">
  <advance width="602"/>
  <unicode hex="221A"/>
  <outline>
    <contour>
      <point x="254" y="-151" type="line"/>
      <point x="293" y="-151" type="line"/>
      <point x="580" y="729" type="line"/>
      <point x="538" y="729" type="line"/>
      <point x="275" y="-90" type="line"/>
      <point x="272" y="-90" type="line"/>
      <point x="126" y="369" type="line"/>
      <point x="21" y="369" type="line"/>
      <point x="21" y="335" type="line"/>
      <point x="96" y="335" type="line"/>
    </contour>
  </outline>
</glyph>
<glyph name="infinity" format="2">
  <advance width="896"/>
  <unicode hex="221E"/>
  <outline>
    <contour>
      <point x="235" y="167" type="curve" smooth="yes"/>
      <point x="337" y="167"/>
      <point x="397" y="248"/>
      <point x="449" y="337" type="curve"/>
      <point x="504" y="242"/>
      <point x="562" y="167"/>
      <point x="665" y="167" type="curve" smooth="yes"/>
      <point x="777" y="167"/>
      <point x="841" y="262"/>
      <point x="841" y="364" type="curve" smooth="yes"/>
      <point x="841" y="469"/>
      <point x="777" y="563"/>
      <point x="665" y="563" type="curve" smooth="yes"/>
      <point x="559" y="563"/>
      <point x="501" y="481"/>
      <point x="449" y="394" type="curve"/>
      <point x="397" y="481"/>
      <point x="339" y="563"/>
      <point x="234" y="563" type="curve" smooth="yes"/>
      <point x="122" y="563"/>
      <point x="55" y="471"/>
      <point x="55" y="364" type="curve" smooth="yes"/>
      <point x="55" y="253"/>
      <point x="122" y="167"/>
    </contour>
    <contour>
      <point x="234" y="202" type="curve" smooth="yes"/>
      <point x="149" y="202"/>
      <point x="91" y="266"/>
      <point x="91" y="364" type="curve" smooth="yes"/>
      <point x="91" y="458"/>
      <point x="148" y="527"/>
      <point x="233" y="527" type="curve" smooth="yes"/>
      <point x="311" y="527"/>
      <point x="359" y="473"/>
      <point x="427" y="365" type="curve"/>
      <point x="359" y="253"/>
      <point x="307" y="202"/>
    </contour>
    <contour>
      <point x="664" y="202" type="curve" smooth="yes"/>
      <point x="585" y="202"/>
      <point x="539" y="256"/>
      <point x="470" y="365" type="curve"/>
      <point x="538" y="472"/>
      <point x="585" y="527"/>
      <point x="664" y="527" type="curve" smooth="yes"/>
      <point x="749" y="527"/>
      <point x="807" y="457"/>
      <point x="807" y="364" type="curve" smooth="yes"/>
      <point x="807" y="273"/>
      <point x="749" y="202"/>
    </contour>
  </outline>
</glyph>
<glyph name="integral" format="2">
  <advance width="371"/>
  <unicode hex="222B"/>
  <outline>
    <contour>
      <point x="18" y="-151" type="line"/>
      <point x="156" y="-151" type="line" smooth="yes"/>
      <point x="196" y="-151"/>
      <point x="204" y="-126"/>
      <point x="204" y="-99" type="curve" smooth="yes"/>
      <point x="204" y="693" type="line"/>
      <point x="353" y="693" type="line"/>
      <point x="353" y="729" type="line"/>
      <point x="214" y="729" type="line" smooth="yes"/>
      <point x="183" y="729"/>
      <point x="166" y="707"/>
      <point x="166" y="674" type="curve" smooth="yes"/>
      <point x="166" y="-116" type="line"/>
      <point x="18" y="-116" type="line"/>
    </contour>
  </outline>
</glyph>
<glyph name="approxequal" format="2">
  <advance width="600"/>
  <unicode hex="2248"/>
  <outline>
    <contour>
      <point x="377" y="215" type="curve" smooth="yes"/>
      <point x="426" y="215"/>
      <point x="466" y="243"/>
      <point x="461" y="321" type="curve"/>
      <point x="431" y="321" type="line"/>
      <point x="432" y="278"/>
      <point x="413" y="257"/>
      <point x="378" y="257" type="curve" smooth="yes"/>
      <point x="326" y="257"/>
      <point x="268" y="305"/>
      <point x="215" y="305" type="curve" smooth="yes"/>
      <point x="182" y="305"/>
      <point x="135" y="289"/>
      <point x="141" y="201" type="curve"/>
      <point x="171" y="201" type="line"/>
      <point x="167" y="240"/>
      <point x="186" y="263"/>
      <point x="214" y="263" type="curve" smooth="yes"/>
      <point x="256" y="263"/>
      <point x="320" y="215"/>
    </contour>
    <contour>
      <point x="377" y="418" type="curve" smooth="yes"/>
      <point x="436" y="418"/>
      <point x="465" y="452"/>
      <point x="461" y="520" type="curve"/>
      <point x="431" y="520" type="line"/>
      <point x="432" y="478"/>
      <point x="413" y="456"/>
      <point x="378" y="456" type="curve" smooth="yes"/>
      <point x="326" y="456"/>
      <point x="268" y="504"/>
      <point x="214" y="504" type="curve" smooth="yes"/>
      <point x="172" y="504"/>
      <point x="136" y="477"/>
      <point x="141" y="402" type="curve"/>
      <point x="171" y="402" type="line"/>
      <point x="167" y="441"/>
      <point x="184" y="462"/>
      <point x="214" y="462" type="curve" smooth="yes"/>
      <point x="256" y="462"/>
      <point x="319" y="418"/>
    </contour>
  </outline>
</glyph>
<glyph name="notequal" format="2">
  <advance width="600"/>
  <unicode hex="2260"/>
  <outline>
    <contour>
      <point x="160" y="101" type="line"/>
      <point x="197" y="101" type="line"/>
      <point x="440" y="630" type="line"/>
      <point x="405" y="630" type="line"/>
    </contour>
    <contour>
      <point x="61" y="235" type="line"/>
      <point x="539" y="235" type="line"/>
      <point x="539" y="267" type="line"/>
      <point x="61" y="267" type="line"/>
    </contour>
    <contour>
      <point x="61" y="455" type="line"/>
      <point x="539" y="455" type="line"/>
      <point x="539" y="487" type="line"/>
      <point x="61" y="487" type="line"/>
    </contour>
  </outline>
</glyph>
<glyph name="lessequal" format="2">
  <advance width="600"/>
  <unicode hex="2264"/>
  <outline>
    <contour>
      <point x="537" y="133" type="line"/>
      <point x="537" y="169" type="line"/>
      <point x="89" y="359" type="line"/>
      <point x="89" y="363" type="line"/>
      <point x="537" y="553" type="line"/>
      <point x="537" y="589" type="line"/>
      <point x="56" y="383" type="line"/>
      <point x="56" y="339" type="line"/>
    </contour>
    <contour>
      <point x="56" y="0" type="line"/>
      <point x="537" y="0" type="line"/>
      <point x="537" y="32" type="line"/>
      <point x="56" y="32" type="line"/>
    </contour>
  </outline>
</glyph>
<glyph name="greaterequal" format="2">
  <advance width="600"/>
  <unicode hex="2265"/>
  <outline>
    <contour>
      <point x="63" y="133" type="line"/>
      <point x="544" y="339" type="line"/>
      <point x="544" y="383" type="line"/>
      <point x="63" y="589" type="line"/>
      <point x="63" y="553" type="line"/>
      <point x="511" y="363" type="line"/>
      <point x="511" y="359" type="line"/>
      <point x="63" y="169" type="line"/>
    </contour>
    <contour>
      <point x="63" y="0" type="line"/>
      <point x="544" y="0" type="line"/>
      <point x="544" y="32" type="line"/>
      <point x="63" y="32" type="line"/>
    </contour>
  </outline>
</glyph>
<glyph name="blackCircle" format="2">
  <advance width="871"/>
  <unicode hex="25CF"/>
  <anchor x="435.5" y="363" name="center"/>
  <outline>
    <contour>
      <point x="435" y="-10" type="curve" smooth="yes"/>
      <point x="211" y="-10"/>
      <point x="60" y="140"/>
      <point x="60" y="363" type="curve" smooth="yes"/>
      <point x="60" y="587"/>
      <point x="211" y="736"/>
      <point x="435" y="736" type="curve" smooth="yes"/>
      <point x="660" y="736"/>
      <point x="811" y="587"/>
      <point x="811" y="363" type="curve" smooth="yes"/>
      <point x="811" y="140"/>
      <point x="660" y="-10"/>
    </contour>
  </outline>
</glyph>
<glyph name="whiteSmilingFace" format="2">
  <advance width="869"/>
  <unicode hex="263A"/>
  <outline>
    <contour>
      <point x="435" y="-10" type="curve" smooth="yes"/>
      <point x="652" y="-10"/>
      <point x="809" y="140"/>
      <point x="809" y="366" type="curve" smooth="yes"/>
      <point x="809" y="590"/>
      <point x="652" y="739"/>
      <point x="435" y="739" type="curve" smooth="yes"/>
      <point x="218" y="739"/>
      <point x="60" y="590"/>
      <point x="60" y="366" type="curve" smooth="yes"/>
      <point x="60" y="140"/>
      <point x="218" y="-10"/>
    </contour>
    <contour>
      <point x="433" y="105" type="curve" smooth="yes"/>
      <point x="572" y="105"/>
      <point x="667" y="187"/>
      <point x="685" y="311" type="curve"/>
      <point x="721" y="311" type="line"/>
      <point x="721" y="326" type="line"/>
      <point x="612" y="326" type="line"/>
      <point x="612" y="311" type="line"/>
      <point x="651" y="311" type="line"/>
      <point x="639" y="206"/>
      <point x="550" y="136"/>
      <point x="433" y="136" type="curve" smooth="yes"/>
      <point x="319" y="136"/>
      <point x="229" y="206"/>
      <point x="216" y="311" type="curve"/>
      <point x="257" y="311" type="line"/>
      <point x="257" y="326" type="line"/>
      <point x="148" y="326" type="line"/>
      <point x="148" y="311" type="line"/>
      <point x="183" y="311" type="line"/>
      <point x="200" y="187"/>
      <point x="296" y="105"/>
    </contour>
    <contour>
      <point x="435" y="19" type="curve" smooth="yes"/>
      <point x="237" y="19"/>
      <point x="93" y="158"/>
      <point x="93" y="366" type="curve" smooth="yes"/>
      <point x="93" y="572"/>
      <point x="237" y="710"/>
      <point x="435" y="710" type="curve" smooth="yes"/>
      <point x="632" y="710"/>
      <point x="776" y="572"/>
      <point x="776" y="366" type="curve" smooth="yes"/>
      <point x="776" y="158"/>
      <point x="632" y="19"/>
    </contour>
    <contour>
      <point x="358" y="412" type="curve" smooth="yes"/>
      <point x="385" y="412"/>
      <point x="406" y="431"/>
      <point x="406" y="458" type="curve" smooth="yes"/>
      <point x="406" y="485"/>
      <point x="385" y="504"/>
      <point x="358" y="504" type="curve" smooth="yes"/>
      <point x="331" y="504"/>
      <point x="310" y="485"/>
      <point x="310" y="458" type="curve" smooth="yes"/>
      <point x="310" y="431"/>
      <point x="331" y="412"/>
    </contour>
    <contour>
      <point x="512" y="412" type="curve" smooth="yes"/>
      <point x="539" y="412"/>
      <point x="560" y="431"/>
      <point x="560" y="458" type="curve" smooth="yes"/>
      <point x="560" y="485"/>
      <point x="539" y="504"/>
      <point x="512" y="504" type="curve" smooth="yes"/>
      <point x="485" y="504"/>
      <point x="464" y="485"/>
      <point x="464" y="458" type="curve" smooth="yes"/>
      <point x="464" y="431"/>
      <point x="485" y="412"/>
    </contour>
  </outline>
</glyph>
<glyph name="fi" format="2">
  <advance width="512"/>
  <unicode hex="FB01"/>
  <outline>
    <contour>
      <point x="130" y="0" type="line"/>
      <point x="167" y="0" type="line"/>
      <point x="167" y="485" type="line"/>
      <point x="390" y="485" type="line"/>
      <point x="390" y="0" type="line"/>
      <point x="427" y="0" type="line"/>
      <point x="427" y="517" type="line"/>
      <point x="167" y="517" type="line"/>
      <point x="167" y="606" type="line" smooth="yes"/>
      <point x="167" y="669"/>
      <point x="191" y="695"/>
      <point x="253" y="695" type="curve" smooth="yes"/>
      <point x="307" y="695" type="line"/>
      <point x="307" y="729" type="line"/>
      <point x="244" y="729" type="line" smooth="yes"/>
      <point x="174" y="729"/>
      <point x="130" y="691"/>
      <point x="130" y="612" type="curve" smooth="yes"/>
      <point x="130" y="517" type="line"/>
      <point x="22" y="517" type="line"/>
      <point x="22" y="485" type="line"/>
      <point x="130" y="485" type="line"/>
    </contour>
    <contour>
      <point x="409" y="625" type="curve" smooth="yes"/>
      <point x="428" y="625"/>
      <point x="441" y="638"/>
      <point x="441" y="656" type="curve" smooth="yes"/>
      <point x="441" y="674"/>
      <point x="428" y="687"/>
      <point x="409" y="687" type="curve" smooth="yes"/>
      <point x="390" y="687"/>
      <point x="377" y="674"/>
      <point x="377" y="656" type="curve" smooth="yes"/>
      <point x="377" y="638"/>
      <point x="390" y="625"/>
    </contour>
  </outline>
</glyph>
<glyph name="G.ss06" format="2">
  <advance width="798"/>
  <anchor x="402" y="0" name="bottom"/>
  <anchor x="406" y="729" name="top"/>
  <outline>
    <contour>
      <point x="405" y="-8" type="curve" smooth="yes"/>
      <point x="610" y="-8"/>
      <point x="747" y="124"/>
      <point x="747" y="340" type="curve" smooth="yes"/>
      <point x="747" y="366" type="line"/>
      <point x="426" y="366" type="line"/>
      <point x="426" y="330" type="line"/>
      <point x="730" y="330" type="line"/>
      <point x="706" y="355" type="line"/>
      <point x="706" y="335" type="line" smooth="yes"/>
      <point x="706" y="140"/>
      <point x="583" y="28"/>
      <point x="405" y="28" type="curve" smooth="yes"/>
      <point x="216" y="28"/>
      <point x="94" y="162"/>
      <point x="94" y="365" type="curve" smooth="yes"/>
      <point x="94" y="567"/>
      <point x="217" y="699"/>
      <point x="406" y="699" type="curve" smooth="yes"/>
      <point x="547" y="699"/>
      <point x="664" y="626"/>
      <point x="689" y="493" type="curve"/>
      <point x="728" y="493" type="line"/>
      <point x="705" y="640"/>
      <point x="575" y="736"/>
      <point x="406" y="736" type="curve" smooth="yes"/>
      <point x="197" y="736"/>
      <point x="55" y="587"/>
      <point x="55" y="364" type="curve" smooth="yes"/>
      <point x="55" y="142"/>
      <point x="193" y="-8"/>
    </contour>
  </outline>
</glyph>
<glyph name="I.ss02" format="2">
  <advance width="474"/>
  <anchor x="237" y="0" name="bottom"/>
  <anchor x="439" y="0" name="ogonek"/>
  <anchor x="237" y="729" name="top"/>
  <anchor x="54" y="729" name="topleft"/>
  <outline>
    <contour>
      <point x="218" y="27" type="line"/>
      <point x="256" y="27" type="line"/>
      <point x="256" y="703" type="line"/>
      <point x="218" y="703" type="line"/>
    </contour>
    <contour>
      <point x="35" y="693" type="line"/>
      <point x="439" y="693" type="line"/>
      <point x="439" y="729" type="line"/>
      <point x="35" y="729" type="line"/>
    </contour>
    <contour>
      <point x="35" y="0" type="line"/>
      <point x="439" y="0" type="line"/>
      <point x="439" y="36" type="line"/>
      <point x="35" y="36" type="line"/>
    </contour>
  </outline>
</glyph>
<glyph name="_B.currency" format="2">
  <advance width="702"/>
  <anchor x="370" y="0" name="bottom"/>
  <outline>
    <contour>
      <point x="111" y="0" type="line"/>
      <point x="395" y="0" type="line" smooth="yes"/>
      <point x="538" y="0"/>
      <point x="629" y="78"/>
      <point x="629" y="200" type="curve" smooth="yes"/>
      <point x="629" y="285"/>
      <point x="580" y="356"/>
      <point x="483" y="374" type="curve"/>
      <point x="483" y="377" type="line"/>
      <point x="571" y="397"/>
      <point x="610" y="464"/>
      <point x="610" y="543" type="curve" smooth="yes"/>
      <point x="610" y="654"/>
      <point x="531" y="729"/>
      <point x="396" y="729" type="curve" smooth="yes"/>
      <point x="111" y="729" type="line"/>
    </contour>
    <contour>
      <point x="149" y="36" type="line"/>
      <point x="149" y="356" type="line"/>
      <point x="413" y="356" type="line" smooth="yes"/>
      <point x="525" y="356"/>
      <point x="589" y="298"/>
      <point x="589" y="202" type="curve" smooth="yes"/>
      <point x="589" y="104"/>
      <point x="523" y="36"/>
      <point x="395" y="36" type="curve" smooth="yes"/>
    </contour>
    <contour>
      <point x="149" y="391" type="line"/>
      <point x="149" y="694" type="line"/>
      <point x="395" y="694" type="line" smooth="yes"/>
      <point x="502" y="694"/>
      <point x="572" y="635"/>
      <point x="572" y="538" type="curve" smooth="yes"/>
      <point x="572" y="450"/>
      <point x="516" y="391"/>
      <point x="411" y="391" type="curve" smooth="yes"/>
    </contour>
  </outline>
</glyph>
<glyph name="_Thorn.bowl" format="2">
  <advance width="550"/>
  <anchor x="39" y="0" name="_bottom"/>
  <outline>
    <contour>
      <point x="40" y="145" type="line"/>
      <point x="264" y="145" type="line" smooth="yes"/>
      <point x="414" y="145"/>
      <point x="510" y="231"/>
      <point x="510" y="365" type="curve" smooth="yes"/>
      <point x="510" y="505"/>
      <point x="415" y="585"/>
      <point x="265" y="585" type="curve" smooth="yes"/>
      <point x="40" y="585" type="line"/>
      <point x="40" y="548" type="line"/>
      <point x="262" y="548" type="line" smooth="yes"/>
      <point x="395" y="548"/>
      <point x="470" y="479"/>
      <point x="470" y="365" type="curve" smooth="yes"/>
      <point x="470" y="254"/>
      <point x="396" y="181"/>
      <point x="262" y="181" type="curve" smooth="yes"/>
      <point x="40" y="181" type="line"/>
    </contour>
  </outline>
</glyph>
<glyph name="_baht.bar" format="2">
  <advance width="112"/>
  <anchor x="100" y="0" name="_bottom"/>
  <outline>
    <contour>
      <point x="40" y="-85" type="line"/>
      <point x="72" y="-85" type="line"/>
      <point x="72" y="22" type="line"/>
      <point x="40" y="22" type="line"/>
    </contour>
    <contour>
      <point x="40" y="714" type="line"/>
      <point x="72" y="714" type="line"/>
      <point x="72" y="814" type="line"/>
      <point x="40" y="814" type="line"/>
    </contour>
  </outline>
</glyph>
<glyph name="_circle" format="2">
  <advance width="871"/>
  <outline>
    <contour>
      <point x="435" y="-10" type="curve" smooth="yes"/>
      <point x="660" y="-10"/>
      <point x="811" y="140"/>
      <point x="811" y="363" type="curve" smooth="yes"/>
      <point x="811" y="587"/>
      <point x="660" y="736"/>
      <point x="435" y="736" type="curve" smooth="yes"/>
      <point x="211" y="736"/>
      <point x="60" y="587"/>
      <point x="60" y="363" type="curve" smooth="yes"/>
      <point x="60" y="140"/>
      <point x="211" y="-10"/>
    </contour>
    <contour>
      <point x="435" y="21" type="curve" smooth="yes"/>
      <point x="232" y="21"/>
      <point x="94" y="159"/>
      <point x="94" y="363" type="curve" smooth="yes"/>
      <point x="94" y="567"/>
      <point x="232" y="706"/>
      <point x="435" y="706" type="curve" smooth="yes"/>
      <point x="639" y="706"/>
      <point x="777" y="567"/>
      <point x="777" y="363" type="curve" smooth="yes"/>
      <point x="777" y="159"/>
      <point x="639" y="21"/>
    </contour>
  </outline>
</glyph>
<glyph name="_copyright.C" format="2">
  <advance width="437"/>
  <anchor x="218" y="363" name="_center"/>
  <outline>
    <contour>
      <point x="227" y="160" type="curve" smooth="yes"/>
      <point x="323" y="160"/>
      <point x="389" y="217"/>
      <point x="397" y="300" type="curve"/>
      <point x="362" y="300" type="line"/>
      <point x="354" y="231"/>
      <point x="298" y="192"/>
      <point x="227" y="192" type="curve" smooth="yes"/>
      <point x="136" y="192"/>
      <point x="75" y="257"/>
      <point x="75" y="362" type="curve" smooth="yes"/>
      <point x="75" y="464"/>
      <point x="133" y="535"/>
      <point x="228" y="535" type="curve" smooth="yes"/>
      <point x="290" y="535"/>
      <point x="348" y="503"/>
      <point x="361" y="435" type="curve"/>
      <point x="395" y="435" type="line"/>
      <point x="386" y="513"/>
      <point x="319" y="567"/>
      <point x="230" y="567" type="curve" smooth="yes"/>
      <point x="115" y="567"/>
      <point x="40" y="484"/>
      <point x="40" y="362" type="curve" smooth="yes"/>
      <point x="40" y="241"/>
      <point x="115" y="160"/>
    </contour>
  </outline>
</glyph>
<glyph name=".notdef" format="2">
  <advance width="866"/>
  <outline>
    <contour>
      <point x="310" y="-8" type="curve" smooth="yes"/>
      <point x="323" y="-12"/>
      <point x="337" y="-6"/>
      <point x="337" y="10" type="curve" smooth="yes"/>
      <point x="337" y="80" type="line"/>
      <point x="322" y="77"/>
      <point x="310" y="76"/>
      <point x="298" y="76" type="curve" smooth="yes"/>
      <point x="226" y="76"/>
      <point x="216" y="122"/>
      <point x="194" y="156" type="curve" smooth="yes"/>
      <point x="179" y="180"/>
      <point x="153" y="186"/>
      <point x="153" y="199" type="curve" smooth="yes"/>
      <point x="153" y="205"/>
      <point x="158" y="209"/>
      <point x="167" y="209" type="curve" smooth="yes"/>
      <point x="226" y="209"/>
      <point x="230" y="124"/>
      <point x="294" y="124" type="curve" smooth="yes"/>
      <point x="310" y="124"/>
      <point x="327" y="128"/>
      <point x="338" y="134" type="curve"/>
      <point x="342" y="159"/>
      <point x="353" y="177"/>
      <point x="373" y="186" type="curve"/>
      <point x="258" y="198"/>
      <point x="188" y="264"/>
      <point x="188" y="366" type="curve" smooth="yes"/>
      <point x="188" y="416"/>
      <point x="203" y="451"/>
      <point x="228" y="477" type="curve"/>
      <point x="218" y="509"/>
      <point x="219" y="550"/>
      <point x="232" y="579" type="curve"/>
      <point x="270" y="581"/>
      <point x="312" y="565"/>
      <point x="336" y="539" type="curve"/>
      <point x="368" y="549"/>
      <point x="400" y="553"/>
      <point x="433" y="553" type="curve" smooth="yes"/>
      <point x="466" y="553"/>
      <point x="498" y="549"/>
      <point x="530" y="539" type="curve"/>
      <point x="554" y="565"/>
      <point x="596" y="581"/>
      <point x="634" y="579" type="curve"/>
      <point x="647" y="550"/>
      <point x="648" y="509"/>
      <point x="638" y="477" type="curve"/>
      <point x="663" y="451"/>
      <point x="678" y="416"/>
      <point x="678" y="366" type="curve" smooth="yes"/>
      <point x="678" y="264"/>
      <point x="608" y="198"/>
      <point x="493" y="186" type="curve"/>
      <point x="516" y="175"/>
      <point x="529" y="150"/>
      <point x="529" y="115" type="curve" smooth="yes"/>
      <point x="529" y="10" type="line" smooth="yes"/>
      <point x="529" y="-6"/>
      <point x="543" y="-12"/>
      <point x="556" y="-8" type="curve" smooth="yes"/>
      <point x="712" y="42"/>
      <point x="816" y="177"/>
      <point x="816" y="356" type="curve" smooth="yes"/>
      <point x="816" y="585"/>
      <point x="663" y="738"/>
      <point x="433" y="738" type="curve" smooth="yes"/>
      <point x="203" y="738"/>
      <point x="50" y="585"/>
      <point x="50" y="356" type="curve" smooth="yes"/>
      <point x="50" y="177"/>
      <point x="154" y="42"/>
    </contour>
    <contour>
      <point x="222" y="150" type="curve" smooth="yes"/>
      <point x="226" y="150"/>
      <point x="228" y="152"/>
      <point x="228" y="155" type="curve" smooth="yes"/>
      <point x="228" y="158"/>
      <point x="225" y="160"/>
      <point x="221" y="160" type="curve" smooth="yes"/>
      <point x="217" y="160"/>
      <point x="215" y="158"/>
      <point x="215" y="155" type="curve" smooth="yes"/>
      <point x="215" y="152"/>
      <point x="218" y="150"/>
    </contour>
    <contour>
      <point x="191" y="185" type="curve" smooth="yes"/>
      <point x="194" y="185"/>
      <point x="196" y="187"/>
      <point x="196" y="189" type="curve" smooth="yes"/>
      <point x="196" y="192"/>
      <point x="194" y="193"/>
      <point x="190" y="193" type="curve" smooth="yes"/>
      <point x="187" y="193"/>
      <point x="185" y="191"/>
      <point x="185" y="189" type="curve" smooth="yes"/>
      <point x="185" y="186"/>
      <point x="187" y="185"/>
    </contour>
    <contour>
      <point x="206" y="171" type="curve" smooth="yes"/>
      <point x="209" y="171"/>
      <point x="211" y="173"/>
      <point x="211" y="175" type="curve" smooth="yes"/>
      <point x="211" y="178"/>
      <point x="209" y="179"/>
      <point x="205" y="179" type="curve" smooth="yes"/>
      <point x="202" y="179"/>
      <point x="200" y="177"/>
      <point x="200" y="175" type="curve" smooth="yes"/>
      <point x="200" y="172"/>
      <point x="202" y="171"/>
    </contour>
    <contour>
      <point x="266" y="109" type="curve" smooth="yes"/>
      <point x="270" y="109"/>
      <point x="273" y="111"/>
      <point x="273" y="115" type="curve" smooth="yes"/>
      <point x="273" y="119"/>
      <point x="270" y="121"/>
      <point x="265" y="121" type="curve" smooth="yes"/>
      <point x="261" y="121"/>
      <point x="258" y="119"/>
      <point x="258" y="115" type="curve" smooth="yes"/>
      <point x="258" y="111"/>
      <point x="261" y="109"/>
    </contour>
    <contour>
      <point x="297" y="104" type="curve" smooth="yes"/>
      <point x="301" y="104"/>
      <point x="304" y="106"/>
      <point x="304" y="110" type="curve" smooth="yes"/>
      <point x="304" y="114"/>
      <point x="301" y="116"/>
      <point x="296" y="116" type="curve" smooth="yes"/>
      <point x="292" y="116"/>
      <point x="289" y="114"/>
      <point x="289" y="110" type="curve" smooth="yes"/>
      <point x="289" y="106"/>
      <point x="292" y="104"/>
    </contour>
    <contour>
      <point x="328" y="110" type="curve" smooth="yes"/>
      <point x="332" y="110"/>
      <point x="335" y="112"/>
      <point x="335" y="116" type="curve" smooth="yes"/>
      <point x="335" y="120"/>
      <point x="332" y="122"/>
      <point x="327" y="122" type="curve" smooth="yes"/>
      <point x="323" y="122"/>
      <point x="320" y="120"/>
      <point x="320" y="116" type="curve" smooth="yes"/>
      <point x="320" y="112"/>
      <point x="323" y="110"/>
    </contour>
    <contour>
      <point x="240" y="127" type="curve" smooth="yes"/>
      <point x="244" y="127"/>
      <point x="247" y="129"/>
      <point x="247" y="133" type="curve" smooth="yes"/>
      <point x="247" y="137"/>
      <point x="244" y="139"/>
      <point x="239" y="139" type="curve" smooth="yes"/>
      <point x="235" y="139"/>
      <point x="232" y="137"/>
      <point x="232" y="133" type="curve" smooth="yes"/>
      <point x="232" y="129"/>
      <point x="235" y="127"/>
    </contour>
  </outline>
</glyph>
<glyph name="_published.P" format="2">
  <advance width="365"/>
  <anchor x="142" y="363" name="_center"/>
  <outline>
    <contour>
      <point x="40" y="165" type="line"/>
      <point x="72" y="165" type="line"/>
      <point x="72" y="532" type="line"/>
      <point x="186" y="532" type="line" smooth="yes"/>
      <point x="251" y="532"/>
      <point x="291" y="499"/>
      <point x="291" y="440" type="curve" smooth="yes"/>
      <point x="291" y="382"/>
      <point x="252" y="347"/>
      <point x="186" y="347" type="curve" smooth="yes"/>
      <point x="65" y="347" type="line"/>
      <point x="65" y="319" type="line"/>
      <point x="190" y="319" type="line" smooth="yes"/>
      <point x="273" y="319"/>
      <point x="325" y="367"/>
      <point x="325" y="441" type="curve" smooth="yes"/>
      <point x="325" y="517"/>
      <point x="273" y="562"/>
      <point x="191" y="562" type="curve" smooth="yes"/>
      <point x="40" y="562" type="line"/>
    </contour>
  </outline>
</glyph>
